ENDFONT
CHARS 6720
STARTCHAR U_0133
ENCODING 307
SWIDTH 1000 0
DWIDTH 6 0
BBX 3 13 1 -1
BITMAP
00
00
00
00
A0
00
A0
A0
A0
A0
A0
20
40
ENDCHAR
STARTCHAR U_01CA
ENCODING 458
SWIDTH 1000 0
DWIDTH 13 0
BBX 12 12 0 -1
BITMAP
8410
8410
C410
C410
A410
A410
9410
9410
8D10
8D10
8510
84E0
ENDCHAR
STARTCHAR U_01E2
ENCODING 482
SWIDTH 1000 0
DWIDTH 13 0
BBX 12 12 1 -1
BITMAP
03C0
0000
07E0
0C00
0C00
1400
17E0
2400
3C00
4400
4400
87E0
ENDCHAR
STARTCHAR U_01EF
ENCODING 495
SWIDTH 1000 0
DWIDTH 13 0
BBX 12 12 3 -1
BITMAP
4800
3000
0000
FC00
0400
0800
3000
0800
0400
8400
4800
3000
ENDCHAR
STARTCHAR U_1103
ENCODING 4355
SWIDTH 1000 0
DWIDTH 13 0
BBX 12 12 2 -1
BITMAP
0000
FF80
8000
8000
8000
8000
FF80
0000
0000
0000
0000
0000
ENDCHAR
STARTCHAR U_2225
ENCODING 8741
SWIDTH 1000 0
DWIDTH 13 0
BBX 4 13 5 -3
BITMAP
90
90
90
90
90
90
90
90
90
90
90
90
90
ENDCHAR
STARTCHAR U_2235
ENCODING 8757
SWIDTH 1000 0
DWIDTH 13 0
BBX 10 9 2 -1
BITMAP
C0C0
C0C0
0000
0000
0000
0000
0000
0C00
0C00
ENDCHAR
STARTCHAR U_2236
ENCODING 8758
SWIDTH 1000 0
DWIDTH 13 0
BBX 2 8 6 0
BITMAP
C0
C0
00
00
00
00
C0
C0
ENDCHAR
STARTCHAR U_2237
ENCODING 8759
SWIDTH 1000 0
DWIDTH 13 0
BBX 8 8 3 0
BITMAP
C3
C3
00
00
00
00
C3
C3
ENDCHAR
STARTCHAR U_223D
ENCODING 8765
SWIDTH 1000 0
DWIDTH 13 0
BBX 14 6 0 1
BITMAP
2070
4088
8104
8204
4408
3810
ENDCHAR
STARTCHAR U_224C
ENCODING 8780
SWIDTH 1000 0
DWIDTH 13 0
BBX 14 10 2 -1
BITMAP
2070
4088
8104
8204
4408
3810
0000
FFFC
0000
FFFC
ENDCHAR
STARTCHAR U_2252
ENCODING 8786
SWIDTH 1000 0
DWIDTH 13 0
BBX 12 10 2 -1
BITMAP
C000
C000
0000
FFF0
0000
0000
FFF0
0000
0030
0030
ENDCHAR
STARTCHAR U_2288
ENCODING 8840
SWIDTH 1000 0
DWIDTH 13 0
BBX 12 12 1 -1
BITMAP
0200
3FC0
4200
8400
8400
8400
4800
3FC0
0800
FFC0
1000
0000
ENDCHAR
STARTCHAR U_2464
ENCODING 9316
SWIDTH 1000 0
DWIDTH 13 0
BBX 13 12 0 -1
BITMAP
1FC0
2020
4F90
8808
8808
8F08
8088
8088
8888
4710
2020
1FC0
ENDCHAR
STARTCHAR U_2465
ENCODING 9317
SWIDTH 1000 0
DWIDTH 13 0
BBX 12 12 0 -1
BITMAP
1F80
2040
4E20
9110
9010
9E10
9110
9110
9110
4E20
2040
1F80
ENDCHAR
STARTCHAR U_2468
ENCODING 9320
SWIDTH 1000 0
DWIDTH 13 0
BBX 12 12 0 -1
BITMAP
1F80
2040
4E20
9110
9110
9110
8F10
8110
9110
4E20
2040
1F80
ENDCHAR
STARTCHAR U_2469
ENCODING 9321
SWIDTH 1000 0
DWIDTH 13 0
BBX 12 12 0 -1
BITMAP
1F80
2040
49A0
9A50
8A50
8A50
8A50
8A50
8A50
5DA0
2040
1F80
ENDCHAR
STARTCHAR U_2474
ENCODING 9332
SWIDTH 1000 0
DWIDTH 13 0
BBX 14 11 0 -2
BITMAP
2010
2110
4308
4108
8104
8104
8104
4108
4108
2110
2110
ENDCHAR
STARTCHAR U_24B6
ENCODING 9398
SWIDTH 1000 0
DWIDTH 13 0
BBX 12 12 0 -1
BITMAP
0600
1980
2440
4A20
5120
9F10
9110
5120
5120
2040
1980
0600
ENDCHAR
STARTCHAR U_24EF
ENCODING 9455
SWIDTH 1000 0
DWIDTH 13 0
BBX 12 12 0 -1
BITMAP
0F00
3FC0
7FE0
7460
E5F0
F4F0
F770
F770
74E0
7FE0
3FC0
0F00
ENDCHAR
STARTCHAR U_24F0
ENCODING 9456
SWIDTH 1000 0
DWIDTH 13 0
BBX 12 12 0 -1
BITMAP
0F00
1F80
2CC0
6B60
EBF0
E8F0
EB70
EB70
6B60
2CC0
1F80
0F00
ENDCHAR
STARTCHAR U_2500
ENCODING 9472
SWIDTH 1000 0
DWIDTH 13 0
BBX 12 12 0 -1
BITMAP
0000
0000
0000
0000
0000
FFF0
0000
0000
0000
0000
0000
0000
ENDCHAR
STARTCHAR U_25E7
ENCODING 9703
SWIDTH 1000 0
DWIDTH 13 0
BBX 12 12 0 -1
BITMAP
FFF0
FC10
FC10
FC10
FC10
FC10
FC10
FC10
FC10
FC10
FC10
FFF0
ENDCHAR
STARTCHAR U_2607
ENCODING 9735
SWIDTH 1000 0
DWIDTH 13 0
BBX 12 12 3 -1
BITMAP
0400
0800
1000
2000
4000
8000
4000
2000
1000
0A00
0600
0E00
ENDCHAR
STARTCHAR U_2E80
ENCODING 11904
SWIDTH 1000 0
DWIDTH 13 0
BBX 12 12 2 -1
BITMAP
0000
0000
0000
6000
1800
0400
C000
3000
0800
0400
0000
0000
ENDCHAR
STARTCHAR U_2E81
ENCODING 11905
SWIDTH 1000 0
DWIDTH 13 0
BBX 12 12 0 -1
BITMAP
01F0
3E00
2000
2000
2000
2000
2000
2000
2000
4000
4000
8000
ENDCHAR
STARTCHAR U_2E82
ENCODING 11906
SWIDTH 1000 0
DWIDTH 13 0
BBX 12 12 1 -1
BITMAP
0000
0000
0000
FFC0
0040
0080
0080
0100
0000
0000
0000
0000
ENDCHAR
STARTCHAR U_2E83
ENCODING 11907
SWIDTH 1000 0
DWIDTH 13 0
BBX 12 12 2 -1
BITMAP
8000
8000
8000
8000
8000
8000
8000
8000
8000
8100
8100
7F00
ENDCHAR
STARTCHAR U_2E84
ENCODING 11908
SWIDTH 1000 0
DWIDTH 13 0
BBX 12 12 0 -1
BITMAP
0000
FF80
0080
0080
0080
0080
0080
0080
0090
0050
0050
0030
ENDCHAR
STARTCHAR U_2E85
ENCODING 11909
SWIDTH 1000 0
DWIDTH 13 0
BBX 12 12 0 -1
BITMAP
0800
0800
1000
1000
3000
5000
9000
1000
1000
1000
1000
1000
ENDCHAR
STARTCHAR U_2E86
ENCODING 11910
SWIDTH 1000 0
DWIDTH 13 0
BBX 12 12 1 -1
BITMAP
0000
3F80
2080
2080
2080
2080
2080
2080
2080
4080
4280
8100
ENDCHAR
STARTCHAR U_2E87
ENCODING 11911
SWIDTH 1000 0
DWIDTH 13 0
BBX 12 12 0 -1
BITMAP
0000
3FC0
2040
2040
2040
2040
2040
2040
2050
4050
4030
8010
ENDCHAR
STARTCHAR U_2E88
ENCODING 11912
SWIDTH 1000 0
DWIDTH 13 0
BBX 12 12 1 -1
BITMAP
1000
1000
3F00
2100
4200
8000
0000
0000
0000
0000
0000
0000
ENDCHAR
STARTCHAR U_2E89
ENCODING 11913
SWIDTH 1000 0
DWIDTH 13 0
BBX 12 12 4 -1
BITMAP
1000
1000
9000
9000
9000
9000
9000
9000
9000
1000
5000
2000
ENDCHAR
STARTCHAR U_2E8A
ENCODING 11914
SWIDTH 1000 0
DWIDTH 13 0
BBX 12 12 4 -1
BITMAP
8000
8000
8000
8000
8000
F800
8000
8000
8000
8000
8000
8000
ENDCHAR
STARTCHAR U_2E8B
ENCODING 11915
SWIDTH 1000 0
DWIDTH 13 0
BBX 12 12 2 -1
BITMAP
0000
0000
0000
0000
0000
FE00
8200
8200
8E00
8080
8080
7F80
ENDCHAR
STARTCHAR U_2E8C
ENCODING 11916
SWIDTH 1000 0
DWIDTH 13 0
BBX 12 12 1 -1
BITMAP
0800
8840
4880
2900
0000
0000
0000
0000
0000
0000
0000
0000
ENDCHAR
STARTCHAR U_2E8D
ENCODING 11917
SWIDTH 1000 0
DWIDTH 13 0
BBX 12 12 2 -1
BITMAP
0080
9080
4900
4A00
0000
0000
0000
0000
0000
0000
0000
0000
ENDCHAR
STARTCHAR U_2E8E
ENCODING 11918
SWIDTH 1000 0
DWIDTH 13 0
BBX 12 12 0 -1
BITMAP
0000
0000
0000
FFF0
0900
0900
0900
0900
1100
1110
2110
40F0
ENDCHAR
STARTCHAR U_2E8F
ENCODING 11919
SWIDTH 1000 0
DWIDTH 13 0
BBX 12 12 1 -1
BITMAP
1200
2100
40C0
8040
1200
1200
1200
1200
2200
2220
4220
81E0
ENDCHAR
STARTCHAR U_2E90
ENCODING 11920
SWIDTH 1000 0
DWIDTH 13 0
BBX 12 12 0 -1
BITMAP
0400
0400
0400
FFF0
0500
0500
0500
0900
0900
1110
2110
C0F0
ENDCHAR
STARTCHAR U_2E91
ENCODING 11921
SWIDTH 1000 0
DWIDTH 13 0
BBX 12 12 1 -1
BITMAP
1200
2100
4080
8040
1E40
1200
1200
1200
2200
2220
4220
81E0
ENDCHAR
STARTCHAR U_2E92
ENCODING 11922
SWIDTH 1000 0
DWIDTH 13 0
BBX 12 12 2 -1
BITMAP
0000
0000
FF00
8100
8100
8100
FF00
8000
8000
8040
8040
7FC0
ENDCHAR
STARTCHAR U_2E93
ENCODING 11923
SWIDTH 1000 0
DWIDTH 13 0
BBX 12 12 1 -1
BITMAP
0800
0800
1000
2100
4200
FC00
0800
1000
2100
4080
FFC0
0040
ENDCHAR
STARTCHAR U_2E94
ENCODING 11924
SWIDTH 1000 0
DWIDTH 13 0
BBX 12 12 1 -1
BITMAP
0000
1000
1000
1FC0
1080
2080
2080
2100
7F00
0100
0100
FFC0
ENDCHAR
STARTCHAR U_2E95
ENCODING 11925
SWIDTH 1000 0
DWIDTH 13 0
BBX 12 12 1 -1
BITMAP
0000
FFC0
0040
0040
0040
7FC0
0040
0040
0040
0040
FFC0
0040
ENDCHAR
STARTCHAR U_2E96
ENCODING 11926
SWIDTH 1000 0
DWIDTH 13 0
BBX 12 12 0 -1
BITMAP
1000
1000
1000
5800
5400
9000
1000
1000
1000
1000
1000
1000
ENDCHAR
STARTCHAR U_2E97
ENCODING 11927
SWIDTH 1000 0
DWIDTH 13 0
BBX 12 12 1 -1
BITMAP
0000
0000
0000
0000
0000
0800
0800
4A80
4940
8940
2800
1000
ENDCHAR
STARTCHAR U_2E98
ENCODING 11928
SWIDTH 1000 0
DWIDTH 13 0
BBX 12 12 0 -1
BITMAP
1000
1000
FC00
1000
1000
1800
3000
D000
1000
1000
5000
2000
ENDCHAR
STARTCHAR U_2E99
ENCODING 11929
SWIDTH 1000 0
DWIDTH 13 0
BBX 12 12 0 -1
BITMAP
0800
0800
1FE0
1040
2880
4880
0500
0200
0500
0880
1040
E030
ENDCHAR
STARTCHAR U_2E9B
ENCODING 11931
SWIDTH 1000 0
DWIDTH 13 0
BBX 12 12 0 -1
BITMAP
FFF0
0400
2400
4400
8400
FFF0
0400
0600
0A00
1210
2210
C3F0
ENDCHAR
STARTCHAR U_2E9C
ENCODING 11932
SWIDTH 1000 0
DWIDTH 13 0
BBX 12 12 0 -1
BITMAP
FFF0
8010
BFD0
8010
BFD0
8010
0000
0000
0000
0000
0000
0000
ENDCHAR
STARTCHAR U_2E9D
ENCODING 11933
SWIDTH 1000 0
DWIDTH 13 0
BBX 12 12 3 -1
BITMAP
FC00
8400
8400
FC00
8400
8400
8400
FC00
8400
8400
9C00
8800
ENDCHAR
STARTCHAR U_2E9E
ENCODING 11934
SWIDTH 1000 0
DWIDTH 13 0
BBX 12 12 0 -1
BITMAP
0400
07F0
1400
1FE0
2020
2040
5040
8880
0500
0200
0400
F800
ENDCHAR
STARTCHAR U_2E9F
ENCODING 11935
SWIDTH 1000 0
DWIDTH 13 0
BBX 12 12 0 -1
BITMAP
0000
1FC0
1440
1240
1040
FFF0
2040
2440
2240
3FF0
0040
0180
ENDCHAR
STARTCHAR U_2EA0
ENCODING 11936
SWIDTH 1000 0
DWIDTH 13 0
BBX 12 12 1 -1
BITMAP
0000
FF00
8100
8100
FF00
8000
8800
FF00
8400
8200
A140
C080
ENDCHAR
STARTCHAR U_2EA1
ENCODING 11937
SWIDTH 1000 0
DWIDTH 13 0
BBX 12 12 3 -1
BITMAP
4000
2000
1000
8000
4000
2000
0000
0800
1000
2000
4000
8000
ENDCHAR
STARTCHAR U_2EA2
ENCODING 11938
SWIDTH 1000 0
DWIDTH 13 0
BBX 12 12 0 -1
BITMAP
0400
8410
4420
2440
1680
0500
1480
2440
4420
8410
0400
1C00
ENDCHAR
STARTCHAR U_2EA3
ENCODING 11939
SWIDTH 1000 0
DWIDTH 13 0
BBX 12 12 0 -1
BITMAP
0000
0000
0000
0000
0000
5240
8920
0000
0000
0000
0000
0000
ENDCHAR
STARTCHAR U_2EA4
ENCODING 11940
SWIDTH 1000 0
DWIDTH 13 0
BBX 12 12 1 -1
BITMAP
0080
03C0
FC80
4880
2500
0000
0000
0000
0000
0000
0000
0000
ENDCHAR
STARTCHAR U_2EA5
ENCODING 11941
SWIDTH 1000 0
DWIDTH 13 0
BBX 12 12 1 -1
BITMAP
07C0
7C80
4480
4440
8440
8020
0000
0000
0000
0000
0000
0000
ENDCHAR
STARTCHAR U_2EA6
ENCODING 11942
SWIDTH 1000 0
DWIDTH 13 0
BBX 12 12 2 -1
BITMAP
0800
0800
8800
4800
2800
2800
0800
1800
2800
C800
0800
0800
ENDCHAR
STARTCHAR U_2EA7
ENCODING 11943
SWIDTH 1000 0
DWIDTH 13 0
BBX 12 12 0 -1
BITMAP
2200
3FE0
4200
FFF0
0000
0000
0000
0000
0000
0000
0000
0000
ENDCHAR
STARTCHAR U_2EA8
ENCODING 11944
SWIDTH 1000 0
DWIDTH 13 0
BBX 12 12 3 -1
BITMAP
8800
5000
2000
5000
8800
1400
2400
4400
8400
0800
8800
7000
ENDCHAR
STARTCHAR U_2EA9
ENCODING 11945
SWIDTH 1000 0
DWIDTH 13 0
BBX 12 12 2 -1
BITMAP
FE00
1000
1000
1000
1000
FE00
1000
1000
1000
1600
3800
C000
ENDCHAR
STARTCHAR U_2EAA
ENCODING 11946
SWIDTH 1000 0
DWIDTH 13 0
BBX 12 12 0 -1
BITMAP
0000
FC00
0800
1000
5000
5C00
5000
5000
5800
E000
0000
0000
ENDCHAR
STARTCHAR U_2EAB
ENCODING 11947
SWIDTH 1000 0
DWIDTH 13 0
BBX 12 12 0 -1
BITMAP
0000
0000
0000
FFF0
8910
8910
8910
FFF0
8010
0000
0000
0000
ENDCHAR
STARTCHAR U_2EAC
ENCODING 11948
SWIDTH 1000 0
DWIDTH 6 0
BBX 6 13 0 -1
BITMAP
7C
00
FC
10
54
54
54
54
54
54
94
10
00
ENDCHAR
STARTCHAR U_2EAD
ENCODING 11949
SWIDTH 1000 0
DWIDTH 13 0
BBX 12 12 3 -1
BITMAP
4000
2000
F800
0800
1000
3000
6800
A800
2000
2000
2000
2000
ENDCHAR
STARTCHAR U_2EAE
ENCODING 11950
SWIDTH 1000 0
DWIDTH 13 0
BBX 12 12 0 -1
BITMAP
2080
2080
3CF0
5140
4920
8A10
0000
0000
0000
0000
0000
0000
ENDCHAR
STARTCHAR U_2EAF
ENCODING 11951
SWIDTH 1000 0
DWIDTH 13 0
BBX 12 12 0 -1
BITMAP
1000
1000
2000
4800
F000
2000
4800
F800
0000
5000
A800
A800
ENDCHAR
STARTCHAR U_2EB0
ENCODING 11952
SWIDTH 1000 0
DWIDTH 13 0
BBX 12 12 0 -1
BITMAP
1000
1000
2000
4800
F000
1000
2000
4800
F000
0000
1800
E000
ENDCHAR
STARTCHAR U_2EB1
ENCODING 11953
SWIDTH 1000 0
DWIDTH 13 0
BBX 12 12 0 -1
BITMAP
0000
0000
FFF0
9850
8490
8310
8C90
B050
0000
0000
0000
0000
ENDCHAR
STARTCHAR U_2EB2
ENCODING 11954
SWIDTH 1000 0
DWIDTH 13 0
BBX 12 12 0 -1
BITMAP
0000
0000
FFF0
8910
8910
8910
FFF0
8010
0000
0000
0000
0000
ENDCHAR
STARTCHAR U_2EB3
ENCODING 11955
SWIDTH 1000 0
DWIDTH 13 0
BBX 12 12 0 -1
BITMAP
0000
7FF0
4010
90A0
2040
4020
0000
0000
0000
0000
0000
0000
ENDCHAR
STARTCHAR U_2EB4
ENCODING 11956
SWIDTH 1000 0
DWIDTH 13 0
BBX 12 12 0 -1
BITMAP
7FF0
4920
8940
0900
0900
0900
0900
0900
1100
1110
2110
C0F0
ENDCHAR
STARTCHAR U_2EB5
ENCODING 11957
SWIDTH 1000 0
DWIDTH 13 0
BBX 12 12 1 -1
BITMAP
0000
0000
FFC0
9240
9240
9240
9240
9240
9240
9240
8040
0000
ENDCHAR
STARTCHAR U_2EB6
ENCODING 11958
SWIDTH 1000 0
DWIDTH 13 0
BBX 12 12 0 -1
BITMAP
1040
0880
FFF0
0200
7FE0
0400
FFF0
0800
1000
2000
C000
0000
ENDCHAR
STARTCHAR U_2EB7
ENCODING 11959
SWIDTH 1000 0
DWIDTH 13 0
BBX 12 12 0 -1
BITMAP
2020
1040
0880
7FF0
0200
0200
3FE0
0200
0200
FFF8
0000
0000
ENDCHAR
STARTCHAR U_2EB8
ENCODING 11960
SWIDTH 1000 0
DWIDTH 13 0
BBX 12 13 1 -1
BITMAP
1100
1100
F1E0
1100
1100
0000
FFE0
0400
0400
7FC0
0400
0400
0400
ENDCHAR
STARTCHAR U_2EB9
ENCODING 11961
SWIDTH 1000 0
DWIDTH 13 0
BBX 12 12 0 -1
BITMAP
0800
0820
7FC0
0880
0900
FFE0
0400
0800
1000
2000
C000
0000
ENDCHAR
STARTCHAR U_2EBA
ENCODING 11962
SWIDTH 1000 0
DWIDTH 13 0
BBX 12 12 0 -1
BITMAP
0400
0400
3FC0
0440
FFF0
0440
3FC0
0400
0400
0400
0400
0400
ENDCHAR
STARTCHAR U_2EBB
ENCODING 11963
SWIDTH 1000 0
DWIDTH 13 0
BBX 12 12 0 -1
BITMAP
0200
3FC0
0240
FFF0
0240
3FC0
0200
FFF0
0000
0000
0000
0000
ENDCHAR
STARTCHAR U_2EBC
ENCODING 11964
SWIDTH 1000 0
DWIDTH 13 0
BBX 12 12 1 -1
BITMAP
3F80
2080
2880
2480
2280
2080
2280
2480
2880
4080
4280
8100
ENDCHAR
STARTCHAR U_2EBD
ENCODING 11965
SWIDTH 1000 0
DWIDTH 13 0
BBX 12 12 1 -1
BITMAP
0800
1000
E3C0
8040
8040
8040
F3C0
8040
8040
8040
F3C0
8040
ENDCHAR
STARTCHAR U_2EBF
ENCODING 11967
SWIDTH 1000 0
DWIDTH 13 0
BBX 12 12 0 -1
BITMAP
1040
1040
FDF0
1040
1040
0000
0000
0000
0000
0000
0000
0000
ENDCHAR
STARTCHAR U_2EC7
ENCODING 11975
SWIDTH 1000 0
DWIDTH 13 0
BBX 12 12 1 -1
BITMAP
1000
1F80
2100
7FC0
C440
4A40
5140
4440
4A40
5140
4040
41C0
ENDCHAR
STARTCHAR U_2ECA
ENCODING 11978
SWIDTH 1000 0
DWIDTH 13 0
BBX 12 12 0 -1
BITMAP
7C00
4400
4400
4400
7C00
1000
1000
5C00
5000
5000
5C00
E000
ENDCHAR
STARTCHAR U_2ECD
ENCODING 11981
SWIDTH 1000 0
DWIDTH 13 0
BBX 12 12 0 -1
BITMAP
4000
2000
0000
4000
2000
0000
E000
2000
2000
2000
5000
8FF0
ENDCHAR
STARTCHAR U_2ECE
ENCODING 11982
SWIDTH 1000 0
DWIDTH 13 0
BBX 12 12 0 -1
BITMAP
4000
2000
0000
F000
1000
2000
7000
1000
1000
2000
5000
8FF0
ENDCHAR
STARTCHAR U_2ED6
ENCODING 11990
SWIDTH 1000 0
DWIDTH 13 0
BBX 12 12 0 -1
BITMAP
F000
9000
A000
C000
A000
9000
9000
9000
E000
8000
8000
8000
ENDCHAR
STARTCHAR U_2ED7
ENCODING 11991
SWIDTH 1000 0
DWIDTH 13 0
BBX 12 12 0 -1
BITMAP
7FC0
0400
FFE0
A4A0
1500
64C0
0000
0000
0000
0000
0000
0000
ENDCHAR
STARTCHAR U_2ED8
ENCODING 11992
SWIDTH 1000 0
DWIDTH 13 0
BBX 12 12 0 -1
BITMAP
0400
7FC0
0400
7FC0
0400
FFE0
2080
3F80
2080
3F80
2080
2180
ENDCHAR
STARTCHAR U_2ED9
ENCODING 11993
SWIDTH 1000 0
DWIDTH 13 0
BBX 12 12 1 -1
BITMAP
0000
0800
FF80
0800
7F00
0800
0800
FFC0
0840
0840
0980
0800
ENDCHAR
STARTCHAR U_2EE3
ENCODING 12003
SWIDTH 1000 0
DWIDTH 13 0
BBX 12 12 0 -1
BITMAP
3FC0
2040
3E40
2240
FFF0
8010
BFD0
2040
3FC0
2040
3F40
20C0
ENDCHAR
STARTCHAR U_2EF2
ENCODING 12018
SWIDTH 1000 0
DWIDTH 13 0
BBX 12 12 0 -1
BITMAP
1000
3F00
C200
7FC0
4440
7FC0
4440
FFE0
8420
FFE0
0410
07F0
ENDCHAR
STARTCHAR U_31C0
ENCODING 12736
SWIDTH 1000 0
DWIDTH 13 0
BBX 12 12 1 -1
BITMAP
0000
0000
0000
0000
0600
1800
E000
4000
0000
0000
0000
0000
ENDCHAR
STARTCHAR U_31C1
ENCODING 12737
SWIDTH 1000 0
DWIDTH 13 0
BBX 12 12 4 -1
BITMAP
8000
4000
2000
2000
2000
2000
2000
2000
2000
2000
A000
4000
ENDCHAR
STARTCHAR U_31C2
ENCODING 12738
SWIDTH 1000 0
DWIDTH 13 0
BBX 12 12 1 -1
BITMAP
8000
8000
4000
4000
2000
2000
1000
1000
0800
0800
0500
0200
ENDCHAR
STARTCHAR U_31C3
ENCODING 12739
SWIDTH 1000 0
DWIDTH 13 0
BBX 12 12 0 -1
BITMAP
0000
0000
0000
0000
8000
4000
2000
1820
0620
01E0
0000
0000
ENDCHAR
STARTCHAR U_31C4
ENCODING 12740
SWIDTH 1000 0
DWIDTH 13 0
BBX 12 12 2 -1
BITMAP
0000
8000
8000
8000
8000
8000
8000
8000
8000
8000
FE00
0000
ENDCHAR
STARTCHAR U_31C5
ENCODING 12741
SWIDTH 1000 0
DWIDTH 13 0
BBX 12 12 2 -1
BITMAP
0000
F000
1000
1000
1000
1000
1000
1000
1000
1000
1E00
0000
ENDCHAR
STARTCHAR U_31C6
ENCODING 12742
SWIDTH 1000 0
DWIDTH 13 0
BBX 12 12 2 -1
BITMAP
0000
0000
FF00
0100
0100
0100
0100
0100
0100
0100
0500
0200
ENDCHAR
STARTCHAR U_31C7
ENCODING 12743
SWIDTH 1000 0
DWIDTH 13 0
BBX 12 12 2 -1
BITMAP
0000
0000
FF00
0100
0100
0200
0200
0400
0400
0800
1000
2000
ENDCHAR
STARTCHAR U_31C8
ENCODING 12744
SWIDTH 1000 0
DWIDTH 13 0
BBX 12 12 0 -1
BITMAP
0000
FC00
0400
0400
0400
0400
0400
0400
0400
0420
0420
03E0
ENDCHAR
STARTCHAR U_31C9
ENCODING 12745
SWIDTH 1000 0
DWIDTH 13 0
BBX 12 12 2 -1
BITMAP
8000
8000
8000
8000
8000
FF80
0080
0080
0080
0100
0500
0200
ENDCHAR
STARTCHAR U_31CA
ENCODING 12746
SWIDTH 1000 0
DWIDTH 13 0
BBX 12 12 1 -1
BITMAP
0000
0000
F000
1000
1000
1000
1000
1200
1400
1800
1000
0000
ENDCHAR
STARTCHAR U_31CB
ENCODING 12747
SWIDTH 1000 0
DWIDTH 13 0
BBX 12 12 1 -1
BITMAP
0000
FF80
0100
0200
0780
0080
0080
0100
0100
0200
0400
1800
ENDCHAR
STARTCHAR U_31CC
ENCODING 12748
SWIDTH 1000 0
DWIDTH 13 0
BBX 12 12 3 -1
BITMAP
0000
F800
0800
1000
2000
2000
1000
0800
0800
0800
0800
3000
ENDCHAR
STARTCHAR U_31CD
ENCODING 12749
SWIDTH 1000 0
DWIDTH 13 0
BBX 12 12 0 -1
BITMAP
0000
0000
FC00
0400
0400
0400
0400
0400
0400
03E0
0000
0000
ENDCHAR
STARTCHAR U_31CE
ENCODING 12750
SWIDTH 1000 0
DWIDTH 13 0
BBX 12 12 0 -1
BITMAP
0000
FC00
0400
0400
0400
0780
0080
0080
0080
0080
0080
0080
ENDCHAR
STARTCHAR U_31CF
ENCODING 12751
SWIDTH 1000 0
DWIDTH 13 0
BBX 12 12 2 -1
BITMAP
8000
8000
4000
4000
2000
2000
1000
1000
0800
0400
0200
0180
ENDCHAR
STARTCHAR U_31D0
ENCODING 12752
SWIDTH 1000 0
DWIDTH 13 0
BBX 12 12 1 -1
BITMAP
0000
0000
0000
0000
0000
FFC0
0000
0000
0000
0000
0000
0000
ENDCHAR
STARTCHAR U_31D1
ENCODING 12753
SWIDTH 1000 0
DWIDTH 13 0
BBX 12 12 6 -1
BITMAP
8000
8000
8000
8000
8000
8000
8000
8000
8000
8000
8000
8000
ENDCHAR
STARTCHAR U_31D2
ENCODING 12754
SWIDTH 1000 0
DWIDTH 13 0
BBX 12 12 1 -1
BITMAP
0000
0000
0080
0080
0100
0200
0400
0800
3000
C000
0000
0000
ENDCHAR
STARTCHAR U_31D3
ENCODING 12755
SWIDTH 1000 0
DWIDTH 13 0
BBX 12 12 3 -1
BITMAP
1000
1000
1000
1000
1000
1000
1000
1000
2000
2000
4000
8000
ENDCHAR
STARTCHAR U_31D4
ENCODING 12756
SWIDTH 1000 0
DWIDTH 13 0
BBX 12 12 4 -1
BITMAP
0000
0000
0000
8000
4000
2000
1000
1000
0000
0000
0000
0000
ENDCHAR
STARTCHAR U_31D5
ENCODING 12757
SWIDTH 1000 0
DWIDTH 13 0
BBX 12 12 2 -1
BITMAP
0000
0000
FE00
0200
0200
0200
0200
0200
0200
0200
0000
0000
ENDCHAR
STARTCHAR U_31D6
ENCODING 12758
SWIDTH 1000 0
DWIDTH 13 0
BBX 12 12 1 -1
BITMAP
0000
0000
0000
FFC0
0080
0100
0000
0000
0000
0000
0000
0000
ENDCHAR
STARTCHAR U_31D7
ENCODING 12759
SWIDTH 1000 0
DWIDTH 13 0
BBX 12 12 2 -1
BITMAP
0000
8000
8000
8000
8000
8000
8000
8000
8000
FF00
0000
0000
ENDCHAR
STARTCHAR U_31D8
ENCODING 12760
SWIDTH 1000 0
DWIDTH 13 0
BBX 12 12 2 -1
BITMAP
0000
0100
0100
0100
0100
0100
0100
0100
0100
FF00
0000
0000
ENDCHAR
STARTCHAR U_31D9
ENCODING 12761
SWIDTH 1000 0
DWIDTH 13 0
BBX 12 12 5 -1
BITMAP
8000
8000
8000
8000
8000
8000
8000
8000
A000
C000
8000
0000
ENDCHAR
STARTCHAR U_31DA
ENCODING 12762
SWIDTH 1000 0
DWIDTH 13 0
BBX 12 12 4 -1
BITMAP
2000
2000
2000
2000
2000
2000
2000
2000
2000
2000
A000
4000
ENDCHAR
STARTCHAR U_31DB
ENCODING 12763
SWIDTH 1000 0
DWIDTH 13 0
BBX 12 12 3 -1
BITMAP
0000
0800
0800
1000
2000
4000
8000
4000
2000
1000
0800
0000
ENDCHAR
STARTCHAR U_31DC
ENCODING 12764
SWIDTH 1000 0
DWIDTH 13 0
BBX 12 12 1 -1
BITMAP
0000
0400
0400
0800
0800
1000
2000
4000
FFC0
0000
0000
0000
ENDCHAR
STARTCHAR U_31DD
ENCODING 12765
SWIDTH 1000 0
DWIDTH 13 0
BBX 12 12 0 -1
BITMAP
0000
2000
2000
5000
9000
0800
0800
0400
0200
0100
0080
0060
ENDCHAR
STARTCHAR U_31DE
ENCODING 12766
SWIDTH 1000 0
DWIDTH 13 0
BBX 12 12 2 -1
BITMAP
0000
8000
8000
8000
8000
8000
FF00
0100
0100
0100
0100
0000
ENDCHAR
STARTCHAR U_31DF
ENCODING 12767
SWIDTH 1000 0
DWIDTH 13 0
BBX 12 12 3 -1
BITMAP
8000
8000
8000
8000
8000
8000
8000
8000
8000
8200
8200
7E00
ENDCHAR
STARTCHAR U_31E0
ENCODING 12768
SWIDTH 1000 0
DWIDTH 13 0
BBX 12 12 0 -1
BITMAP
0000
0000
FFC0
0100
0200
0400
0800
1000
2000
4010
4010
3FF0
ENDCHAR
STARTCHAR U_31E1
ENCODING 12769
SWIDTH 1000 0
DWIDTH 13 0
BBX 12 12 1 -1
BITMAP
0000
FF80
0100
0200
07C0
0040
0040
0040
0040
0040
0280
0100
ENDCHAR
STARTCHAR U_31E2
ENCODING 12770
SWIDTH 1000 0
DWIDTH 13 0
BBX 12 12 1 -1
BITMAP
0000
0080
0080
0080
0100
0100
0200
0200
0400
8800
5000
2000
ENDCHAR
STARTCHAR U_31E3
ENCODING 12771
SWIDTH 1000 0
DWIDTH 13 0
BBX 12 12 1 -1
BITMAP
0000
0000
0000
3F00
4080
8040
8040
8040
4080
3F00
0000
0000
ENDCHAR
STARTCHAR U_3201
ENCODING 12801
SWIDTH 1000 0
DWIDTH 13 0
BBX 12 12 0 -1
BITMAP
0000
2040
4020
9010
9010
9010
9010
9010
9F90
4020
2040
0000
ENDCHAR
STARTCHAR U_3300
ENCODING 13056
SWIDTH 1000 0
DWIDTH 13 0
BBX 12 12 0 -1
BITMAP
F830
0810
3280
2240
2420
4820
8080
0080
00C0
FCA0
0080
0080
ENDCHAR
STARTCHAR U_3374
ENCODING 13172
SWIDTH 1000 0
DWIDTH 13 0
BBX 12 12 0 -1
BITMAP
8000
8000
8000
8000
8000
CCB0
A2C0
A680
AA80
AA80
AA80
C680
ENDCHAR
STARTCHAR U_3390
ENCODING 13200
SWIDTH 1000 0
DWIDTH 13 0
BBX 12 12 0 -1
BITMAP
8400
8400
8400
8400
8400
FDF0
8410
8420
8440
8480
8500
85F0
ENDCHAR
STARTCHAR U_3400
ENCODING 13312
SWIDTH 1000 0
DWIDTH 13 0
BBX 12 12 0 -1
BITMAP 
0000
0900
0900
0900
0900
F9F0
0900
0900
0900
0900
0900
FFF0
ENDCHAR
STARTCHAR U_3401
ENCODING 13313
SWIDTH 1000 0
DWIDTH 13 0
BBX 12 12 0 -1
BITMAP 
0000
FFF0
0400
0400
7FE0
4420
4620
4920
5120
4020
7FE0
4020
ENDCHAR
STARTCHAR U_3402
ENCODING 13314
SWIDTH 1000 0
DWIDTH 13 0
BBX 12 12 0 -1
BITMAP 
0400
07E0
7C00
0410
03F0
2080
2080
3CF0
E380
2880
3090
2070
ENDCHAR
STARTCHAR U_3403
ENCODING 13315
SWIDTH 1000 0
DWIDTH 13 0
BBX 12 12 0 -1
BITMAP 
0400
0A00
1100
2080
4040
FFE0
0400
0400
0400
0400
0400
0400
ENDCHAR
STARTCHAR U_3404
ENCODING 13316
SWIDTH 1000 0
DWIDTH 13 0
BBX 12 12 0 -1
BITMAP 
0200
0200
0200
3FE0
0200
2200
4200
FFF0
0200
0200
0200
0200
ENDCHAR
STARTCHAR U_3405
ENCODING 13317
SWIDTH 1000 0
DWIDTH 13 0
BBX 12 12 0 -1
BITMAP 
0000
0020
1020
0840
0440
0280
0100
0280
0440
1820
6020
0000
ENDCHAR
STARTCHAR U_3406
ENCODING 13318
SWIDTH 1000 0
DWIDTH 13 0
BBX 12 12 0 -1
BITMAP 
01C0
1E00
1000
1FC0
1040
1FC0
1040
1FC0
1000
1FE0
2020
40C0
ENDCHAR
STARTCHAR U_3407
ENCODING 13319
SWIDTH 1000 0
DWIDTH 13 0
BBX 12 12 0 -1
BITMAP 
0800
0800
7F80
1090
2090
C070
7F80
0300
0C00
3020
4020
3FE0
ENDCHAR
STARTCHAR U_3408
ENCODING 13320
SWIDTH 1000 0
DWIDTH 13 0
BBX 12 12 0 -1
BITMAP 
1800
0400
0A00
1100
20C0
C030
3FC0
0180
0600
1820
2020
1FE0
ENDCHAR
STARTCHAR U_3409
ENCODING 13321
SWIDTH 1000 0
DWIDTH 13 0
BBX 12 12 0 -1
BITMAP 
0000
FFF0
0200
0200
0A00
0400
7FE0
0080
0700
1810
2010
1FF0
ENDCHAR
STARTCHAR U_340A
ENCODING 13322
SWIDTH 1000 0
DWIDTH 13 0
BBX 12 12 0 -1
BITMAP 
0400
0400
FFE0
0400
0400
3F80
0000
7FC0
0300
3C20
4020
3FE0
ENDCHAR
STARTCHAR U_340B
ENCODING 13323
SWIDTH 1000 0
DWIDTH 13 0
BBX 12 12 0 -1
BITMAP 
0400
3FC0
0400
0400
FFF0
0000
7FC0
0180
0E00
3010
4010
3FF0
ENDCHAR
STARTCHAR U_340C
ENCODING 13324
SWIDTH 1000 0
DWIDTH 13 0
BBX 12 12 0 -1
BITMAP 
2000
3FE0
4000
4400
A5C0
3E40
E440
2540
2480
2010
2010
1FF0
ENDCHAR
STARTCHAR U_340D
ENCODING 13325
SWIDTH 1000 0
DWIDTH 13 0
BBX 12 12 0 -1
BITMAP 
00C0
0F00
7440
2240
1280
0000
7FC0
0100
0600
1810
2010
1FF0
ENDCHAR
STARTCHAR U_340E
ENCODING 13326
SWIDTH 1000 0
DWIDTH 13 0
BBX 12 12 0 -1
BITMAP 
0400
FFF0
1080
0900
0600
1980
E070
3F80
0300
1C10
6010
3FF0
ENDCHAR
STARTCHAR U_340F
ENCODING 13327
SWIDTH 1000 0
DWIDTH 13 0
BBX 12 12 0 -1
BITMAP 
7FE0
0400
3FC0
0840
FFF0
0000
7FC0
0180
0E00
3010
4010
3FF0
ENDCHAR
STARTCHAR U_3410
ENCODING 13328
SWIDTH 1000 0
DWIDTH 13 0
BBX 12 12 0 -1
BITMAP 
2000
FFC0
4A40
4A40
3180
CA60
0000
7F80
0200
3C20
4020
3FE0
ENDCHAR
STARTCHAR U_3411
ENCODING 13329
SWIDTH 1000 0
DWIDTH 13 0
BBX 12 12 0 -1
BITMAP 
0800
0FC0
1880
2700
18C0
E230
0D00
0200
1F80
0400
1820
1FE0
ENDCHAR
STARTCHAR U_3412
ENCODING 13330
SWIDTH 1000 0
DWIDTH 13 0
BBX 12 12 0 -1
BITMAP 
7FE0
0820
10A0
6040
3FC0
2040
3FC0
0000
7F80
1810
2010
3FF0
ENDCHAR
STARTCHAR U_3413
ENCODING 13331
SWIDTH 1000 0
DWIDTH 13 0
BBX 12 12 0 -1
BITMAP 
FFE0
0080
3C80
2480
2480
3C80
0080
FFC0
0180
0E20
1020
1FE0
ENDCHAR
STARTCHAR U_3414
ENCODING 13332
SWIDTH 1000 0
DWIDTH 13 0
BBX 12 12 0 -1
BITMAP 
0400
7FC0
0000
1F00
1100
1F00
0000
7F00
0200
0C40
1040
1FC0
ENDCHAR
STARTCHAR U_3415
ENCODING 13333
SWIDTH 1000 0
DWIDTH 13 0
BBX 12 12 0 -1
BITMAP 
0400
7FC0
4440
7FC0
4440
7FC0
0000
7F80
0200
0C20
3020
1FE0
ENDCHAR
STARTCHAR U_3416
ENCODING 13334
SWIDTH 1000 0
DWIDTH 13 0
BBX 12 12 0 -1
BITMAP 
1100
1100
FD00
1100
1100
7D00
0100
7D00
4500
4510
7D10
44F0
ENDCHAR
STARTCHAR U_3417
ENCODING 13335
SWIDTH 1000 0
DWIDTH 13 0
BBX 12 12 0 -1
BITMAP 
0400
3F40
0480
7FF0
1900
2A40
CFC0
0000
7FC0
0C10
3010
1FF0
ENDCHAR
STARTCHAR U_3418
ENCODING 13336
SWIDTH 1000 0
DWIDTH 13 0
BBX 12 12 0 -1
BITMAP 
2480
1500
FFE0
0D00
1480
6470
8400
3FC0
0300
1C00
6020
3FE0
ENDCHAR
STARTCHAR U_3419
ENCODING 13337
SWIDTH 1000 0
DWIDTH 13 0
BBX 12 12 0 -1
BITMAP 
7FE0
0000
3FC0
2040
3FC0
1080
FFF0
0000
3FC0
0700
1820
1FE0
ENDCHAR
STARTCHAR U_341A
ENCODING 13338
SWIDTH 1000 0
DWIDTH 13 0
BBX 12 12 0 -1
BITMAP 
7FE0
0400
3F80
0880
FFF0
1080
1080
7FE0
0300
1C10
2010
1FF0
ENDCHAR
STARTCHAR U_341B
ENCODING 13339
SWIDTH 1000 0
DWIDTH 13 0
BBX 12 12 0 -1
BITMAP 
1100
2FF0
6200
A7E0
2A20
23E0
0000
7FE0
0180
0600
3820
3FE0
ENDCHAR
STARTCHAR U_341C
ENCODING 13340
SWIDTH 1000 0
DWIDTH 13 0
BBX 12 12 0 -1
BITMAP 
2900
2100
FBC0
2140
A940
7140
2140
7140
A940
2240
2250
6420
ENDCHAR
STARTCHAR U_341D
ENCODING 13341
SWIDTH 1000 0
DWIDTH 13 0
BBX 12 12 0 -1
BITMAP 
2200
F7F0
2410
2BD0
F250
23D0
6030
3FC0
0180
0E00
3020
3FE0
ENDCHAR
STARTCHAR U_341E
ENCODING 13342
SWIDTH 1000 0
DWIDTH 13 0
BBX 12 12 0 -1
BITMAP 
1080
7FE0
1080
1F80
1080
FFF0
2040
5FA0
8110
0600
1840
1FC0
ENDCHAR
STARTCHAR U_341F
ENCODING 13343
SWIDTH 1000 0
DWIDTH 13 0
BBX 12 12 0 -1
BITMAP 
0900
79E0
0900
39C0
0900
F9F0
0900
3FC0
0100
1E20
2020
1FE0
ENDCHAR
STARTCHAR U_3420
ENCODING 13344
SWIDTH 1000 0
DWIDTH 13 0
BBX 12 12 0 -1
BITMAP 
FF00
5500
FD00
0900
7D00
1110
30F0
7FC0
0380
1C00
6020
3FE0
ENDCHAR
STARTCHAR U_3421
ENCODING 13345
SWIDTH 1000 0
DWIDTH 13 0
BBX 12 12 0 -1
BITMAP 
47F0
4080
F7F0
5550
5550
5410
5080
57F0
5080
5140
5630
8FF0
ENDCHAR
STARTCHAR U_3422
ENCODING 13346
SWIDTH 1000 0
DWIDTH 13 0
BBX 12 12 0 -1
BITMAP 
8FE0
4540
8FC0
6080
2FF0
C100
4100
FFC0
0300
3C00
4010
3FF0
ENDCHAR
STARTCHAR U_3423
ENCODING 13347
SWIDTH 1000 0
DWIDTH 13 0
BBX 12 12 0 -1
BITMAP 
0200
7FF0
5240
5FC0
5240
7FF0
4200
4FC0
4180
4E00
5010
8FF0
ENDCHAR
STARTCHAR U_3424
ENCODING 13348
SWIDTH 1000 0
DWIDTH 13 0
BBX 12 12 0 -1
BITMAP 
2080
23E0
F880
2BE0
2AA0
2B60
2AA0
2B60
2FF0
2940
4A20
8FF0
ENDCHAR
STARTCHAR U_3425
ENCODING 13349
SWIDTH 1000 0
DWIDTH 13 0
BBX 12 12 0 -1
BITMAP 
2740
5540
FFF0
2550
7750
AD50
FFA0
0000
7FC0
0710
3810
1FF0
ENDCHAR
STARTCHAR U_3426
ENCODING 13350
SWIDTH 1000 0
DWIDTH 13 0
BBX 12 12 0 -1
BITMAP 
3760
2420
3760
2520
FFF0
1240
6FB0
0200
7FC0
0610
1810
3FF0
ENDCHAR
STARTCHAR U_3427
ENCODING 13351
SWIDTH 1000 0
DWIDTH 13 0
BBX 12 12 0 -1
BITMAP 
2100
1900
0900
0100
FFF0
0520
0540
0900
1100
2100
C500
0200
ENDCHAR
STARTCHAR U_3428
ENCODING 13352
SWIDTH 1000 0
DWIDTH 13 0
BBX 12 12 0 -1
BITMAP 
FBF0
0820
9240
5180
2080
FBF0
2890
2080
2080
2080
2080
6180
ENDCHAR
STARTCHAR U_3429
ENCODING 13353
SWIDTH 1000 0
DWIDTH 13 0
BBX 12 12 0 -1
BITMAP 
28A0
28A0
FDF0
28A0
28A0
28A0
FDF0
28A0
28A0
28A0
2920
4A20
ENDCHAR
STARTCHAR U_342A
ENCODING 13354
SWIDTH 1000 0
DWIDTH 13 0
BBX 12 12 0 -1
BITMAP 
0400
FFF0
0400
4420
4420
4420
7FE0
0400
0400
0B00
30C0
C030
ENDCHAR
STARTCHAR U_342B
ENCODING 13355
SWIDTH 1000 0
DWIDTH 13 0
BBX 12 12 0 -1
BITMAP 
0400
0200
FFF0
0000
50A0
48A0
4520
4220
4520
58A0
4020
7FE0
ENDCHAR
STARTCHAR U_342C
ENCODING 13356
SWIDTH 1000 0
DWIDTH 13 0
BBX 12 12 0 -1
BITMAP 
0400
FFF0
1000
2080
4040
3FA0
0000
2480
2480
2480
2490
C470
ENDCHAR
STARTCHAR U_342D
ENCODING 13357
SWIDTH 1000 0
DWIDTH 13 0
BBX 12 12 0 -1
BITMAP 
0400
FFF0
0000
7FE0
4020
5FA0
50A0
50A0
50A0
5FA0
4020
7FE0
ENDCHAR
STARTCHAR U_342E
ENCODING 13358
SWIDTH 1000 0
DWIDTH 13 0
BBX 12 12 0 -1
BITMAP 
0400
FFF0
2940
7FE0
8910
1F80
0900
7FE0
1440
7280
9180
1870
ENDCHAR
STARTCHAR U_342F
ENCODING 13359
SWIDTH 1000 0
DWIDTH 13 0
BBX 12 12 0 -1
BITMAP 
0400
FFF0
1080
3FC0
2040
3FC0
0400
FFF0
2440
5FA0
1080
1F80
ENDCHAR
STARTCHAR U_3430
ENCODING 13360
SWIDTH 1000 0
DWIDTH 13 0
BBX 12 12 0 -1
BITMAP 
1000
1000
27E0
2420
6420
A420
2420
2420
2420
27E0
2420
2000
ENDCHAR
STARTCHAR U_3431
ENCODING 13361
SWIDTH 1000 0
DWIDTH 13 0
BBX 12 12 0 -1
BITMAP 
0400
0400
0A00
1100
2280
C470
0900
3200
0480
3900
0200
7C00
ENDCHAR
STARTCHAR U_3432
ENCODING 13362
SWIDTH 1000 0
DWIDTH 13 0
BBX 12 12 0 -1
BITMAP 
1100
1100
2100
2100
6FF0
A100
2100
2280
2280
2440
2420
2810
ENDCHAR
STARTCHAR U_3433
ENCODING 13363
SWIDTH 1000 0
DWIDTH 13 0
BBX 12 12 0 -1
BITMAP 
1000
1FF0
2280
2280
6280
A280
2280
2280
2490
2490
2490
2870
ENDCHAR
STARTCHAR U_3434
ENCODING 13364
SWIDTH 1000 0
DWIDTH 13 0
BBX 12 12 0 -1
BITMAP 
0200
1200
13E0
2420
6420
AA20
2120
20A0
2040
2040
2080
0700
ENDCHAR
STARTCHAR U_3435
ENCODING 13365
SWIDTH 1000 0
DWIDTH 13 0
BBX 12 12 0 -1
BITMAP 
17E0
1080
2080
6080
AFF0
2080
2080
2080
2080
2080
2280
2100
ENDCHAR
STARTCHAR U_3436
ENCODING 13366
SWIDTH 1000 0
DWIDTH 13 0
BBX 12 12 0 -1
BITMAP 
1000
17E0
2420
6420
A420
27E0
2400
2400
2400
2410
2410
23F0
ENDCHAR
STARTCHAR U_3437
ENCODING 13367
SWIDTH 1000 0
DWIDTH 13 0
BBX 12 12 0 -1
BITMAP 
17E0
1020
2420
6420
A420
27F0
2010
2010
2FD0
2010
2050
2020
ENDCHAR
STARTCHAR U_3438
ENCODING 13368
SWIDTH 1000 0
DWIDTH 13 0
BBX 12 12 0 -1
BITMAP 
1400
1400
27F0
6490
A890
2080
2080
2140
2140
2220
2420
2810
ENDCHAR
STARTCHAR U_3439
ENCODING 13369
SWIDTH 1000 0
DWIDTH 13 0
BBX 12 12 0 -1
BITMAP 
1400
1400
27E0
6400
ABC0
2000
2FC0
2040
2040
2040
2050
2030
ENDCHAR
STARTCHAR U_343A
ENCODING 13370
SWIDTH 1000 0
DWIDTH 13 0
BBX 12 12 0 -1
BITMAP 
2440
2440
4840
D840
4840
4840
48A0
48A0
48A0
4910
4910
4A10
ENDCHAR
STARTCHAR U_343B
ENCODING 13371
SWIDTH 1000 0
DWIDTH 13 0
BBX 12 12 0 -1
BITMAP 
1100
1100
2100
6FF0
A910
2910
2910
2A90
2C50
2810
2850
2820
ENDCHAR
STARTCHAR U_343C
ENCODING 13372
SWIDTH 1000 0
DWIDTH 13 0
BBX 12 12 0 -1
BITMAP 
1140
1640
2240
6240
A240
2FF0
2240
2240
2240
2240
2440
2840
ENDCHAR
STARTCHAR U_343D
ENCODING 13373
SWIDTH 1000 0
DWIDTH 13 0
BBX 12 12 0 -1
BITMAP 
1FE0
1820
2820
6C60
AAA0
2920
2AA0
2C60
2820
2820
2830
3010
ENDCHAR
STARTCHAR U_343E
ENCODING 13374
SWIDTH 1000 0
DWIDTH 13 0
BBX 12 12 0 -1
BITMAP 
1000
17E0
2000
6000
AFF0
2280
2280
2280
2280
2290
2490
2870
ENDCHAR
STARTCHAR U_343F
ENCODING 13375
SWIDTH 1000 0
DWIDTH 13 0
BBX 12 12 0 -1
BITMAP 
10E0
1780
2080
6080
A7E0
2080
2080
2FF0
2080
2080
2280
2100
ENDCHAR
STARTCHAR U_3440
ENCODING 13376
SWIDTH 1000 0
DWIDTH 13 0
BBX 12 12 0 -1
BITMAP 
1100
1100
2100
2100
6FE0
A100
2100
2280
2240
2440
2920
3090
ENDCHAR
STARTCHAR U_3441
ENCODING 13377
SWIDTH 1000 0
DWIDTH 13 0
BBX 12 12 0 -1
BITMAP 
1080
1080
1490
2490
6490
A7F0
2080
2080
2490
2490
2490
27F0
ENDCHAR
STARTCHAR U_3442
ENCODING 13378
SWIDTH 1000 0
DWIDTH 13 0
BBX 12 12 0 -1
BITMAP 
17F0
1080
2080
67F0
A490
2490
2550
2530
2610
2410
2410
2430
ENDCHAR
STARTCHAR U_3443
ENCODING 13379
SWIDTH 1000 0
DWIDTH 13 0
BBX 12 12 0 -1
BITMAP 
1440
1440
29F0
6B50
AE50
2250
2450
2950
3350
2D50
2490
2130
ENDCHAR
STARTCHAR U_3444
ENCODING 13380
SWIDTH 1000 0
DWIDTH 13 0
BBX 12 12 0 -1
BITMAP 
17E0
1420
2520
64A0
AFF0
2420
2520
28A0
2FF0
2020
20A0
2040
ENDCHAR
STARTCHAR U_3445
ENCODING 13381
SWIDTH 1000 0
DWIDTH 13 0
BBX 12 12 0 -1
BITMAP 
1400
17F0
2500
2900
6100
A100
21E0
2100
2100
2100
2100
2FF0
ENDCHAR
STARTCHAR U_3446
ENCODING 13382
SWIDTH 1000 0
DWIDTH 13 0
BBX 12 12 0 -1
BITMAP 
17E0
1420
2420
2420
67E0
A240
2240
2240
2240
2250
2450
2870
ENDCHAR
STARTCHAR U_3447
ENCODING 13383
SWIDTH 1000 0
DWIDTH 13 0
BBX 12 12 0 -1
BITMAP 
1100
13E0
2420
6040
A7F0
2010
2010
23F0
2010
2010
2010
27F0
ENDCHAR
STARTCHAR U_3448
ENCODING 13384
SWIDTH 1000 0
DWIDTH 13 0
BBX 12 12 0 -1
BITMAP 
1100
1100
2FF0
6200
A480
2480
2880
2FF0
2080
24A0
2890
2180
ENDCHAR
STARTCHAR U_3449
ENCODING 13385
SWIDTH 1000 0
DWIDTH 13 0
BBX 12 12 0 -1
BITMAP 
17E0
1420
27E0
6520
A5E0
2560
2760
2560
24A0
24A0
2930
3220
ENDCHAR
STARTCHAR U_344A
ENCODING 13386
SWIDTH 1000 0
DWIDTH 13 0
BBX 12 12 0 -1
BITMAP 
1100
2080
2FF0
6240
A240
2A60
2A50
3250
2240
2440
2440
28C0
ENDCHAR
STARTCHAR U_344B
ENCODING 13387
SWIDTH 1000 0
DWIDTH 13 0
BBX 12 12 0 -1
BITMAP 
1280
1280
2280
6FE0
AAA0
2AA0
2AA0
2FE0
2AA0
2AA0
2AA0
2FE0
ENDCHAR
STARTCHAR U_344C
ENCODING 13388
SWIDTH 1000 0
DWIDTH 13 0
BBX 12 12 0 -1
BITMAP 
17F0
1400
25F0
6440
A440
25F0
2440
2440
2440
25F0
2400
27F0
ENDCHAR
STARTCHAR U_344D
ENCODING 13389
SWIDTH 1000 0
DWIDTH 13 0
BBX 12 12 0 -1
BITMAP 
1080
17F0
2080
63E0
A080
2FF0
2080
21C0
22A0
2490
2890
2080
ENDCHAR
STARTCHAR U_344E
ENCODING 13390
SWIDTH 1000 0
DWIDTH 13 0
BBX 12 12 0 -1
BITMAP 
12A0
12A0
2540
6A80
A540
2540
2000
2100
2920
2920
2920
2FE0
ENDCHAR
STARTCHAR U_344F
ENCODING 13391
SWIDTH 1000 0
DWIDTH 13 0
BBX 12 12 0 -1
BITMAP 
1100
1FF0
2810
6040
A040
2FF0
2040
2440
2240
2040
2040
20C0
ENDCHAR
STARTCHAR U_3450
ENCODING 13392
SWIDTH 1000 0
DWIDTH 13 0
BBX 12 12 0 -1
BITMAP 
1100
1100
21E0
6100
A100
2FF0
2100
2540
2520
2920
2100
2300
ENDCHAR
STARTCHAR U_3451
ENCODING 13393
SWIDTH 1000 0
DWIDTH 13 0
BBX 12 12 0 -1
BITMAP 
1100
1200
2FF0
6810
A810
2FF0
2810
2810
2FF0
2810
2810
2FF0
ENDCHAR
STARTCHAR U_3452
ENCODING 13394
SWIDTH 1000 0
DWIDTH 13 0
BBX 12 12 0 -1
BITMAP 
0400
1B00
60E0
9F90
0400
3FC0
2440
3FC0
0400
0A00
3180
C070
ENDCHAR
STARTCHAR U_3453
ENCODING 13395
SWIDTH 1000 0
DWIDTH 13 0
BBX 12 12 0 -1
BITMAP 
1100
1200
2420
2FD0
6200
AFF0
2200
23E0
2520
2540
2880
2B70
ENDCHAR
STARTCHAR U_3454
ENCODING 13396
SWIDTH 1000 0
DWIDTH 13 0
BBX 12 12 0 -1
BITMAP 
1FE0
1100
2200
6FE0
A820
2920
2920
2920
2920
2200
2240
2C20
ENDCHAR
STARTCHAR U_3455
ENCODING 13397
SWIDTH 1000 0
DWIDTH 13 0
BBX 12 12 0 -1
BITMAP 
1100
1100
2920
6920
AFE0
2200
23E0
2420
2A20
2140
2080
2700
ENDCHAR
STARTCHAR U_3456
ENCODING 13398
SWIDTH 1000 0
DWIDTH 13 0
BBX 12 12 0 -1
BITMAP 
1240
1240
2440
6DF0
B550
2550
2550
25F0
2440
2440
2440
2440
ENDCHAR
STARTCHAR U_3457
ENCODING 13399
SWIDTH 1000 0
DWIDTH 13 0
BBX 12 12 0 -1
BITMAP 
1080
1100
27E0
6420
A7E0
2420
27E0
2430
27E0
2C60
21A0
2E60
ENDCHAR
STARTCHAR U_3458
ENCODING 13400
SWIDTH 1000 0
DWIDTH 13 0
BBX 12 12 0 -1
BITMAP 
1050
1040
2FF0
2040
6540
A550
2FD0
2550
2560
2940
20D0
2330
ENDCHAR
STARTCHAR U_3459
ENCODING 13401
SWIDTH 1000 0
DWIDTH 13 0
BBX 12 12 0 -1
BITMAP 
1000
1FF0
2900
6F40
A940
2F40
2940
2940
2F40
3940
2150
2170
ENDCHAR
STARTCHAR U_345A
ENCODING 13402
SWIDTH 1000 0
DWIDTH 13 0
BBX 12 12 0 -1
BITMAP 
2F70
2550
6550
AF50
2550
2560
2F50
2550
2550
2570
2940
3340
ENDCHAR
STARTCHAR U_345B
ENCODING 13403
SWIDTH 1000 0
DWIDTH 13 0
BBX 12 12 0 -1
BITMAP 
1100
1FF0
2100
6FE0
A920
2FE0
2100
2380
2540
2540
2930
2100
ENDCHAR
STARTCHAR U_345C
ENCODING 13404
SWIDTH 1000 0
DWIDTH 13 0
BBX 12 12 0 -1
BITMAP 
1430
14C0
2480
6E80
A4F0
24A0
24A0
26A0
2CA0
24A0
24A0
2D20
ENDCHAR
STARTCHAR U_345D
ENCODING 13405
SWIDTH 1000 0
DWIDTH 13 0
BBX 12 12 0 -1
BITMAP 
17F0
1080
27F0
6080
AFF0
2000
2220
27F0
2220
2220
2220
2420
ENDCHAR
STARTCHAR U_345E
ENCODING 13406
SWIDTH 1000 0
DWIDTH 13 0
BBX 12 12 0 -1
BITMAP 
1080
1490
22A0
2080
61C0
AE30
2000
2240
2FF0
2240
2240
2440
ENDCHAR
STARTCHAR U_345F
ENCODING 13407
SWIDTH 1000 0
DWIDTH 13 0
BBX 12 12 0 -1
BITMAP 
10E0
1700
2400
6400
A7E0
2480
2480
2FF0
2000
2240
2420
2820
ENDCHAR
STARTCHAR U_3460
ENCODING 13408
SWIDTH 1000 0
DWIDTH 13 0
BBX 12 12 0 -1
BITMAP 
1200
1AF0
2A90
6A60
AA50
2290
2000
2100
27C0
2100
2100
2FF0
ENDCHAR
STARTCHAR U_3461
ENCODING 13409
SWIDTH 1000 0
DWIDTH 13 0
BBX 12 12 0 -1
BITMAP 
2F70
2950
6950
AF50
2950
2950
2F70
2850
2A40
2940
2AC0
2C40
ENDCHAR
STARTCHAR U_3462
ENCODING 13410
SWIDTH 1000 0
DWIDTH 13 0
BBX 12 12 0 -1
BITMAP 
24F0
2490
5F90
4490
C490
4490
7F90
48D0
48B0
5280
5280
5D80
ENDCHAR
STARTCHAR U_3463
ENCODING 13411
SWIDTH 1000 0
DWIDTH 13 0
BBX 12 12 0 -1
BITMAP 
1440
2440
7FF0
A440
2CC0
2EE0
2CE0
3550
2650
2440
2440
2440
ENDCHAR
STARTCHAR U_3464
ENCODING 13412
SWIDTH 1000 0
DWIDTH 13 0
BBX 12 12 0 -1
BITMAP 
1140
17F0
2140
2000
67F0
A490
2490
2490
27F0
2490
2490
27F0
ENDCHAR
STARTCHAR U_3465
ENCODING 13413
SWIDTH 1000 0
DWIDTH 13 0
BBX 12 12 0 -1
BITMAP 
13E0
1220
23E0
2220
63E0
A400
27F0
2950
2150
2250
2C90
2330
ENDCHAR
STARTCHAR U_3466
ENCODING 13414
SWIDTH 1000 0
DWIDTH 13 0
BBX 12 12 0 -1
BITMAP 
10E0
1700
2400
67F0
A410
27F0
2480
24A0
27F0
2480
2940
2A30
ENDCHAR
STARTCHAR U_3467
ENCODING 13415
SWIDTH 1000 0
DWIDTH 13 0
BBX 12 12 0 -1
BITMAP 
1060
1780
2080
2FF0
62A0
AC90
23E0
2040
27F0
2080
2280
2100
ENDCHAR
STARTCHAR U_3468
ENCODING 13416
SWIDTH 1000 0
DWIDTH 13 0
BBX 12 12 0 -1
BITMAP 
17E0
1420
2420
67E0
A000
2400
27E0
2880
2080
2FF0
2140
2E30
ENDCHAR
STARTCHAR U_3469
ENCODING 13417
SWIDTH 1000 0
DWIDTH 13 0
BBX 12 12 0 -1
BITMAP 
17F0
1550
2550
27F0
6100
A3E0
2220
2520
20C0
2080
2300
2C00
ENDCHAR
STARTCHAR U_346A
ENCODING 13418
SWIDTH 1000 0
DWIDTH 13 0
BBX 12 12 0 -1
BITMAP 
1080
17F0
2220
6140
A080
2360
2E30
23E0
2220
23E0
2220
2420
ENDCHAR
STARTCHAR U_346B
ENCODING 13419
SWIDTH 1000 0
DWIDTH 13 0
BBX 12 12 0 -1
BITMAP 
0200
1300
1480
2A40
6130
A7C0
2080
2200
2120
2A10
29E0
0000
ENDCHAR
STARTCHAR U_346C
ENCODING 13420
SWIDTH 1000 0
DWIDTH 13 0
BBX 12 12 0 -1
BITMAP 
2040
2840
2840
49F0
FE40
4A40
52F0
5490
4890
5490
5290
60F0
ENDCHAR
STARTCHAR U_346D
ENCODING 13421
SWIDTH 1000 0
DWIDTH 13 0
BBX 12 12 0 -1
BITMAP 
17F0
1490
27F0
2490
67F0
A000
2FF0
2220
2220
2220
2420
2820
ENDCHAR
STARTCHAR U_346E
ENCODING 13422
SWIDTH 1000 0
DWIDTH 13 0
BBX 12 12 0 -1
BITMAP 
17F0
1410
2080
67F0
A080
23E0
22A0
23E0
22A0
27F0
2080
2080
ENDCHAR
STARTCHAR U_346F
ENCODING 13423
SWIDTH 1000 0
DWIDTH 13 0
BBX 12 12 0 -1
BITMAP 
17F0
1100
27E0
6420
A7E0
2420
27E0
2420
27E0
2000
2240
2C30
ENDCHAR
STARTCHAR U_3470
ENCODING 13424
SWIDTH 1000 0
DWIDTH 13 0
BBX 12 12 0 -1
BITMAP 
0400
27E0
2820
4FC0
C040
5FF0
4220
4D20
42C0
5DA0
42A0
4D10
ENDCHAR
STARTCHAR U_3471
ENCODING 13425
SWIDTH 1000 0
DWIDTH 13 0
BBX 12 12 0 -1
BITMAP 
17E0
1040
2280
6FF0
A2A0
2480
2980
2100
2FF0
2100
2540
2920
ENDCHAR
STARTCHAR U_3472
ENCODING 13426
SWIDTH 1000 0
DWIDTH 13 0
BBX 12 12 0 -1
BITMAP 
2100
2FE0
4100
DFF0
5450
5290
57D0
5110
5FF0
5110
5110
5030
ENDCHAR
STARTCHAR U_3473
ENCODING 13427
SWIDTH 1000 0
DWIDTH 13 0
BBX 12 12 0 -1
BITMAP 
2800
2FF0
5550
C7D0
4110
4630
4800
4FF0
5550
47D0
4110
4630
ENDCHAR
STARTCHAR U_3474
ENCODING 13428
SWIDTH 1000 0
DWIDTH 13 0
BBX 12 12 0 -1
BITMAP 
17C0
1040
2FF0
2040
6FF0
A910
27E0
2520
2FE0
2440
2380
3C70
ENDCHAR
STARTCHAR U_3475
ENCODING 13429
SWIDTH 1000 0
DWIDTH 13 0
BBX 12 12 0 -1
BITMAP 
1080
17F0
2400
3500
6DF0
A640
2C40
37F0
2440
24A0
2910
3210
ENDCHAR
STARTCHAR U_3476
ENCODING 13430
SWIDTH 1000 0
DWIDTH 13 0
BBX 12 12 0 -1
BITMAP 
2800
2FF0
5000
C7E0
4000
5FE0
4220
4AA0
5FE0
4220
4AA0
5270
ENDCHAR
STARTCHAR U_3477
ENCODING 13431
SWIDTH 1000 0
DWIDTH 13 0
BBX 12 12 0 -1
BITMAP 
2440
2940
5F70
C040
4F70
4900
4F40
4940
4F70
4940
4950
5370
ENDCHAR
STARTCHAR U_3478
ENCODING 13432
SWIDTH 1000 0
DWIDTH 13 0
BBX 12 12 0 -1
BITMAP 
1100
1FF0
2100
67C0
A440
27C0
3FF0
2020
27A0
24A0
27A0
2060
ENDCHAR
STARTCHAR U_3479
ENCODING 13433
SWIDTH 1000 0
DWIDTH 13 0
BBX 12 12 0 -1
BITMAP 
0600
1980
FFF0
2220
3FE0
2220
3FE0
1FC0
1040
1FC0
1040
1FC0
ENDCHAR
STARTCHAR U_347A
ENCODING 13434
SWIDTH 1000 0
DWIDTH 13 0
BBX 12 12 0 -1
BITMAP 
1240
15F0
2C40
65F0
A440
25F0
2440
2FF0
2220
2270
2410
2870
ENDCHAR
STARTCHAR U_347B
ENCODING 13435
SWIDTH 1000 0
DWIDTH 13 0
BBX 12 12 0 -1
BITMAP 
2100
2FF0
2A10
4540
D490
4550
43C0
4C00
4100
4910
4910
4FF0
ENDCHAR
STARTCHAR U_347C
ENCODING 13436
SWIDTH 1000 0
DWIDTH 13 0
BBX 12 12 0 -1
BITMAP 
2080
20F0
4110
DFA0
5540
55B0
5F00
55E0
55A0
5FA0
40A0
40E0
ENDCHAR
STARTCHAR U_347D
ENCODING 13437
SWIDTH 1000 0
DWIDTH 13 0
BBX 12 12 0 -1
BITMAP 
1080
12A0
27F0
6410
A3E0
2220
23E0
2080
23E0
2080
2080
27F0
ENDCHAR
STARTCHAR U_347E
ENCODING 13438
SWIDTH 1000 0
DWIDTH 13 0
BBX 12 12 0 -1
BITMAP 
2200
27E0
2A40
5580
4200
DFF0
4000
4FE0
4000
4FE0
4820
4FE0
ENDCHAR
STARTCHAR U_347F
ENCODING 13439
SWIDTH 1000 0
DWIDTH 13 0
BBX 12 12 0 -1
BITMAP 
2490
2920
2490
4FF0
4890
CFF0
4890
4FF0
4080
4FF0
41C0
4EB0
ENDCHAR
STARTCHAR U_3480
ENCODING 13440
SWIDTH 1000 0
DWIDTH 13 0
BBX 12 12 0 -1
BITMAP 
1080
17F0
2220
6140
A7F0
2490
27F0
2490
25D0
2550
25D0
2430
ENDCHAR
STARTCHAR U_3481
ENCODING 13441
SWIDTH 1000 0
DWIDTH 13 0
BBX 12 12 0 -1
BITMAP 
17F0
1490
27F0
6490
A7F0
2550
27F0
2490
27F0
2490
2490
27F0
ENDCHAR
STARTCHAR U_3482
ENCODING 13442
SWIDTH 1000 0
DWIDTH 13 0
BBX 12 12 0 -1
BITMAP 
1220
1770
2220
2090
67F0
A0A0
2FF0
23E0
2620
2BE0
2220
23E0
ENDCHAR
STARTCHAR U_3483
ENCODING 13443
SWIDTH 1000 0
DWIDTH 13 0
BBX 12 12 0 -1
BITMAP 
10A0
17F0
2080
2F80
6040
AF40
2940
2F40
2940
2F40
2550
28A0
ENDCHAR
STARTCHAR U_3484
ENCODING 13444
SWIDTH 1000 0
DWIDTH 13 0
BBX 12 12 0 -1
BITMAP 
2840
2850
4E40
D3F0
6A40
5640
4CA0
4910
5210
4000
4AA0
5150
ENDCHAR
STARTCHAR U_3485
ENCODING 13445
SWIDTH 1000 0
DWIDTH 13 0
BBX 12 12 0 -1
BITMAP 
1080
1FF0
2100
2660
6980
A660
2980
2600
2A90
2660
2B20
3210
ENDCHAR
STARTCHAR U_3486
ENCODING 13446
SWIDTH 1000 0
DWIDTH 13 0
BBX 12 12 0 -1
BITMAP 
2300
2CE0
5FD0
C840
4FC0
4000
5EF0
4210
5290
4A50
5290
4630
ENDCHAR
STARTCHAR U_3487
ENCODING 13447
SWIDTH 1000 0
DWIDTH 13 0
BBX 12 12 0 -1
BITMAP 
2800
2FF0
5AA0
CAA0
5FF0
4AA0
4AA0
5FF0
4000
4AA0
4A90
5150
ENDCHAR
STARTCHAR U_3488
ENCODING 13448
SWIDTH 1000 0
DWIDTH 13 0
BBX 12 12 0 -1
BITMAP
2080
3E80
44F0
7EA0
CBA0
4EA0
4AA0
4E40
4B40
7E40
42A0
4310
ENDCHAR
STARTCHAR U_3489
ENCODING 13449
SWIDTH 1000 0
DWIDTH 13 0
BBX 12 12 0 -1
BITMAP 
1490
12A0
2FF0
2810
63E0
A220
23E0
2080
2FF0
2080
22A0
2490
ENDCHAR
STARTCHAR U_348A
ENCODING 13450
SWIDTH 1000 0
DWIDTH 13 0
BBX 12 12 0 -1
BITMAP 
3EF0
2A50
4A50
DAD0
4A50
56B0
4000
4420
56B0
54A0
56A0
7DF0
ENDCHAR
STARTCHAR U_348B
ENCODING 13451
SWIDTH 1000 0
DWIDTH 13 0
BBX 12 12 0 -1
BITMAP 
2A30
2AC0
5F80
CA80
4EF0
4AA0
4EA0
4AA0
5FA0
40A0
4AA0
5120
ENDCHAR
STARTCHAR U_348C
ENCODING 13452
SWIDTH 1000 0
DWIDTH 13 0
BBX 12 12 0 -1
BITMAP 
2440
3550
4EE0
C440
4AA0
5110
5FF0
5010
47C0
4440
4450
5870
ENDCHAR
STARTCHAR U_348D
ENCODING 13453
SWIDTH 1000 0
DWIDTH 13 0
BBX 12 12 0 -1
BITMAP
1200
1440
2FE0
2440
6AA0
BFF0
2440
2D80
2220
2FF0
2920
3310
ENDCHAR
STARTCHAR U_348E
ENCODING 13454
SWIDTH 1000 0
DWIDTH 13 0
BBX 12 12 0 -1
BITMAP 
17C0
1100
27E0
6240
AC30
2280
2EE0
2280
2EE0
2280
2EE0
2280
ENDCHAR
STARTCHAR U_348F
ENCODING 13455
SWIDTH 1000 0
DWIDTH 13 0
BBX 12 12 0 -1
BITMAP 
2100
3FF0
5290
CFE0
4280
4FE0
4280
5FF0
4820
5390
4040
4780
ENDCHAR
STARTCHAR U_3490
ENCODING 13456
SWIDTH 1000 0
DWIDTH 13 0
BBX 12 12 0 -1
BITMAP
1440
1770
2AA0
6400
A7F0
2810
23D0
2250
23D0
2250
23D0
2020
ENDCHAR
STARTCHAR U_3491
ENCODING 13457
SWIDTH 1000 0
DWIDTH 13 0
BBX 12 12 0 -1
BITMAP 
3FF0
3100
5A40
D7F0
5240
5BF0
5640
53F0
5640
5BF0
5A00
5FF0
ENDCHAR
STARTCHAR U_3492
ENCODING 13458
SWIDTH 1000 0
DWIDTH 13 0
BBX 12 12 0 -1
BITMAP 
2280
3290
4AA0
DFF0
4440
5FF0
4100
4FE0
4100
5FF0
4920
5110
ENDCHAR
STARTCHAR U_3493
ENCODING 13459
SWIDTH 1000 0
DWIDTH 13 0
BBX 12 12 0 -1
BITMAP 
2080
2BE0
4080
DFF0
4940
4BE0
5080
5BE0
4880
4BE0
4880
57F0
ENDCHAR
STARTCHAR U_3494
ENCODING 13460
SWIDTH 1000 0
DWIDTH 13 0
BBX 12 12 0 -1
BITMAP 
2FE0
2AA0
4FE0
C400
4FF0
5110
47D0
4550
47D0
4150
4FD0
4030
ENDCHAR
STARTCHAR U_3495
ENCODING 13461
SWIDTH 1000 0
DWIDTH 13 0
BBX 12 12 0 -1
BITMAP 
2100
3FF0
4880
C940
53F0
5540
49F0
5140
55F0
4940
49F0
5100
ENDCHAR
STARTCHAR U_3496
ENCODING 13462
SWIDTH 1000 0
DWIDTH 13 0
BBX 12 12 0 -1
BITMAP 
2440
2FE0
4440
CFE0
4920
4FE0
4920
5FF0
5110
5150
57D0
5030
ENDCHAR
STARTCHAR U_3497
ENCODING 13463
SWIDTH 1000 0
DWIDTH 13 0
BBX 12 12 0 -1
BITMAP 
2440
2FE0
4440
C7C0
4440
5FF0
5450
4FE0
4100
4FE0
4100
5FF0
ENDCHAR
STARTCHAR U_3498
ENCODING 13464
SWIDTH 1000 0
DWIDTH 13 0
BBX 12 12 0 -1
BITMAP 
2F70
2A50
4F50
C920
4F20
4A50
4F90
4100
4FE0
4100
4100
5FF0
ENDCHAR
STARTCHAR U_3499
ENCODING 13465
SWIDTH 1000 0
DWIDTH 13 0
BBX 12 12 0 -1
BITMAP 
2880
29F0
5510
D9F0
4910
49F0
5440
5DF0
4150
5550
5570
4040
ENDCHAR
STARTCHAR U_349A
ENCODING 13466
SWIDTH 1000 0
DWIDTH 13 0
BBX 12 12 0 -1
BITMAP 
2FE0
2540
4FE0
C100
5FF0
4020
5FF0
4020
4FE0
4100
5450
67D0
ENDCHAR
STARTCHAR U_349B
ENCODING 13467
SWIDTH 1000 0
DWIDTH 13 0
BBX 12 12 0 -1
BITMAP 
3EF0
2210
5290
CA50
5290
47F0
4880
5FF0
4880
4FE0
4880
4FF0
ENDCHAR
STARTCHAR U_349C
ENCODING 13468
SWIDTH 1000 0
DWIDTH 13 0
BBX 12 12 0 -1
BITMAP 
2A60
33A0
5220
DBE0
50A0
52A0
5AE0
54A0
55A0
7FF0
4840
5020
ENDCHAR
STARTCHAR U_349D
ENCODING 13469
SWIDTH 1000 0
DWIDTH 13 0
BBX 12 12 0 -1
BITMAP 
2280
2FE0
4280
CFE0
4AA0
4FE0
40A0
4FF0
48A0
4A40
48D0
5320
ENDCHAR
STARTCHAR U_349E
ENCODING 13470
SWIDTH 1000 0
DWIDTH 13 0
BBX 12 12 0 -1
BITMAP 
2920
2FE0
4480
CFE0
5880
4FE0
4880
4FF0
4000
5EF0
5390
5030
ENDCHAR
STARTCHAR U_349F
ENCODING 13471
SWIDTH 1000 0
DWIDTH 13 0
BBX 12 12 0 -1
BITMAP 
2100
3FF0
4900
CFE0
4900
4FF0
5550
5570
4420
4940
5880
4C70
ENDCHAR
STARTCHAR U_34A0
ENCODING 13472
SWIDTH 1000 0
DWIDTH 13 0
BBX 12 12 0 -1
BITMAP 
1400
16F0
2490
2F50
6960
BA90
2640
2A70
3240
2E70
2240
2FF0
ENDCHAR
STARTCHAR U_34A1
ENCODING 13473
SWIDTH 1000 0
DWIDTH 13 0
BBX 12 12 0 -1
BITMAP 
2720
3840
5550
4A20
D040
5F70
6420
4420
5F70
44A0
5520
5F60
ENDCHAR
STARTCHAR U_34A2
ENCODING 13474
SWIDTH 1000 0
DWIDTH 13 0
BBX 12 12 0 -1
BITMAP 
1380
2440
6FE0
7AB0
AFE0
2000
2FE0
2AA0
2FE0
2AA0
2AA0
2860
ENDCHAR
STARTCHAR U_34A3
ENCODING 13475
SWIDTH 1000 0
DWIDTH 13 0
BBX 12 12 0 -1
BITMAP 
1100
2FF0
2AA0
6FF0
6AA0
AAF0
2AA0
2AF0
2880
2B50
2D20
31E0
ENDCHAR
STARTCHAR U_34A4
ENCODING 13476
SWIDTH 1000 0
DWIDTH 13 0
BBX 12 12 0 -1
BITMAP 
2FE0
2440
27C0
6440
6FE0
A040
3FF0
2AA0
2EE0
2AA0
2FF0
3220
ENDCHAR
STARTCHAR U_34A5
ENCODING 13477
SWIDTH 1000 0
DWIDTH 13 0
BBX 12 12 0 -1
BITMAP 
2540
2540
27C0
6540
6FE0
A000
27C0
2440
27C0
2440
2280
2FE0
ENDCHAR
STARTCHAR U_34A6
ENCODING 13478
SWIDTH 1000 0
DWIDTH 13 0
BBX 12 12 0 -1
BITMAP 
27C0
2540
47C0
5D70
D7D0
5FF0
5550
5FF0
4100
4FE0
4100
5FF0
ENDCHAR
STARTCHAR U_34A7
ENCODING 13479
SWIDTH 1000 0
DWIDTH 13 0
BBX 12 12 0 -1
BITMAP 
1440
2EA0
2480
6BF0
6EA0
A4A0
2EF0
2AA0
2AF0
2EA0
2AF0
2A80
ENDCHAR
STARTCHAR U_34A8
ENCODING 13480
SWIDTH 1000 0
DWIDTH 13 0
BBX 12 12 0 -1
BITMAP 
1530
2BD0
2E70
6B50
6EF0
A100
2FF0
2220
27D0
2A40
2250
23F0
ENDCHAR
STARTCHAR U_34A9
ENCODING 13481
SWIDTH 1000 0
DWIDTH 13 0
BBX 12 12 0 -1
BITMAP 
1100
23E0
6440
6FF0
A2A0
2CC0
21B0
2440
2AA0
2EE0
2440
2EE0
ENDCHAR
STARTCHAR U_34AA
ENCODING 13482
SWIDTH 1000 0
DWIDTH 13 0
BBX 12 12 0 -1
BITMAP 
0200
0D80
3070
FDE0
2940
3DE0
0000
13E0
5880
5350
5D60
E0D0
ENDCHAR
STARTCHAR U_34AB
ENCODING 13483
SWIDTH 1000 0
DWIDTH 13 0
BBX 12 12 0 -1
BITMAP 
0000
3FC0
2000
3F80
2000
2000
FFF0
1100
1100
2100
4110
80F0
ENDCHAR
STARTCHAR U_34AC
ENCODING 13484
SWIDTH 1000 0
DWIDTH 13 0
BBX 12 12 0 -1
BITMAP 
0000
73E0
0080
0080
FBE0
5080
5080
5080
57F0
5000
8810
87F0
ENDCHAR
STARTCHAR U_34AD
ENCODING 13485
SWIDTH 1000 0
DWIDTH 13 0
BBX 12 12 0 -1
BITMAP 
0000
FBE0
8A20
8A20
FBE0
5140
5140
5140
5540
5A40
9250
8470
ENDCHAR
STARTCHAR U_34AE
ENCODING 13486
SWIDTH 1000 0
DWIDTH 13 0
BBX 12 12 0 -1
BITMAP 
07E0
7100
0280
04D0
F960
5240
54F0
5150
5240
50C0
8810
87F0
ENDCHAR
STARTCHAR U_34AF
ENCODING 13487
SWIDTH 1000 0
DWIDTH 13 0
BBX 12 12 0 -1
BITMAP 
2220
AF70
7A20
27F0
FAA0
57F0
52A0
57F0
5080
5BE0
5080
8080
ENDCHAR
STARTCHAR U_34B0
ENCODING 13488
SWIDTH 1000 0
DWIDTH 13 0
BBX 12 12 0 -1
BITMAP 
0C00
0200
0500
0880
3040
C030
1FC0
0200
0200
0200
0200
7FF0
ENDCHAR
STARTCHAR U_34B1
ENCODING 13489
SWIDTH 1000 0
DWIDTH 13 0
BBX 12 12 0 -1
BITMAP 
3800
0600
1900
20C0
C430
0800
1FC0
2040
4880
0500
0600
1800
ENDCHAR
STARTCHAR U_34B2
ENCODING 13490
SWIDTH 1000 0
DWIDTH 13 0
BBX 12 12 0 -1
BITMAP 
1800
0400
0A00
1100
20C0
C030
3F80
2080
3F80
2080
3F80
2080
ENDCHAR
STARTCHAR U_34B3
ENCODING 13491
SWIDTH 1000 0
DWIDTH 13 0
BBX 12 12 0 -1
BITMAP 
FFF0
8410
8410
C510
A490
A490
A490
D550
CE30
8410
8450
8020
ENDCHAR
STARTCHAR U_34B4
ENCODING 13492
SWIDTH 1000 0
DWIDTH 13 0
BBX 12 12 0 -1
BITMAP 
0C00
0200
0500
0880
3240
C230
1240
1FC0
0200
2220
2220
3FE0
ENDCHAR
STARTCHAR U_34B5
ENCODING 13493
SWIDTH 1000 0
DWIDTH 13 0
BBX 12 12 0 -1
BITMAP 
0400
0800
3FC0
2040
3FC0
2040
2040
3FC0
0000
1080
2060
4020
ENDCHAR
STARTCHAR U_34B6
ENCODING 13494
SWIDTH 1000 0
DWIDTH 13 0
BBX 12 12 0 -1
BITMAP 
0200
1100
1100
2080
4840
9030
3FC0
2040
3FC0
2040
3FC0
2040
ENDCHAR
STARTCHAR U_34B7
ENCODING 13495
SWIDTH 1000 0
DWIDTH 13 0
BBX 12 12 0 -1
BITMAP 
3FC0
2240
2240
2240
2540
2940
2040
FFF0
0000
1080
2040
4040
ENDCHAR
STARTCHAR U_34B8
ENCODING 13496
SWIDTH 1000 0
DWIDTH 13 0
BBX 12 12 0 -1
BITMAP 
1080
0900
FFF0
0400
0840
7480
0B00
7280
0640
FA30
0200
0C00
ENDCHAR
STARTCHAR U_34B9
ENCODING 13497
SWIDTH 1000 0
DWIDTH 13 0
BBX 12 12 0 -1
BITMAP
1080
FFF0
1080
7DE0
4520
7DE0
4520
7DE0
4520
FFF0
4920
8610
ENDCHAR
STARTCHAR U_34BA
ENCODING 13498
SWIDTH 1000 0
DWIDTH 13 0
BBX 12 12 0 -1
BITMAP 
FFF0
9090
8910
FFF0
8010
A210
A210
AD90
A010
BFD0
8050
8020
ENDCHAR
STARTCHAR U_34BB
ENCODING 13499
SWIDTH 1000 0
DWIDTH 13 0
BBX 12 12 0 -1
BITMAP 
7FE0
4020
5FA0
4020
3FC0
2040
3FC0
2040
3FC0
2040
3FD0
70F0
ENDCHAR
STARTCHAR U_34BC
ENCODING 13500
SWIDTH 1000 0
DWIDTH 13 0
BBX 12 12 0 -1
BITMAP 
1100
FFE0
1100
1F00
0400
7FC0
4440
6640
5540
6EC0
4440
44C0
ENDCHAR
STARTCHAR U_34BD
ENCODING 13501
SWIDTH 1000 0
DWIDTH 13 0
BBX 12 12 0 -1
BITMAP 
7FE0
4020
5FA0
0A80
3FE0
0400
7FF0
1040
EFB0
0880
09A0
07E0
ENDCHAR
STARTCHAR U_34BE
ENCODING 13502
SWIDTH 1000 0
DWIDTH 13 0
BBX 12 12 0 -1
BITMAP 
7FE0
4020
5FA0
2200
FBF0
4680
7FF0
4A90
4AB0
4A80
4A10
91F0
ENDCHAR
STARTCHAR U_34BF
ENCODING 13503
SWIDTH 1000 0
DWIDTH 13 0
BBX 12 12 0 -1
BITMAP 
3FC0
2040
2F40
1080
FEA0
55F0
7F20
11F0
FF20
93F0
BB20
87F0
ENDCHAR
STARTCHAR U_34C0
ENCODING 13504
SWIDTH 1000 0
DWIDTH 13 0
BBX 12 12 0 -1
BITMAP 
7FF0
4010
8420
0400
0400
0600
0500
0480
0480
0400
0400
0400
ENDCHAR
STARTCHAR U_34C1
ENCODING 13505
SWIDTH 1000 0
DWIDTH 13 0
BBX 12 12 0 -1
BITMAP 
0000
7FF0
4020
8900
0880
1060
2020
0000
0000
0000
0000
0000
ENDCHAR
STARTCHAR U_34C2
ENCODING 13506
SWIDTH 1000 0
DWIDTH 13 0
BBX 12 12 0 -1
BITMAP 
FFF0
8010
F910
07E0
F940
5240
5440
5280
5100
5280
9450
8FF0
ENDCHAR
STARTCHAR U_34C3
ENCODING 13507
SWIDTH 1000 0
DWIDTH 13 0
BBX 12 12 0 -1
BITMAP 
7FF0
4020
9000
7860
0380
7880
00E0
7B80
0080
7890
4890
7870
ENDCHAR
STARTCHAR U_34C4
ENCODING 13508
SWIDTH 1000 0
DWIDTH 13 0
BBX 12 12 0 -1
BITMAP 
1080
2880
7FF0
4A90
EE80
1080
28C0
C4C0
1940
6140
1A50
6470
ENDCHAR
STARTCHAR U_34C5
ENCODING 13509
SWIDTH 1000 0
DWIDTH 13 0
BBX 12 12 0 -1
BITMAP 
0020
4FF0
2080
1080
0080
0080
1080
2080
C080
4080
4080
4180
ENDCHAR
STARTCHAR U_34C6
ENCODING 13510
SWIDTH 1000 0
DWIDTH 13 0
BBX 12 12 0 -1
BITMAP 
4100
2280
2440
1830
0200
1220
2240
C380
4200
4200
4210
41F0
ENDCHAR
STARTCHAR U_34C7
ENCODING 13511
SWIDTH 1000 0
DWIDTH 13 0
BBX 12 12 0 -1
BITMAP 
0000
40E0
2F00
0100
0100
0FF0
2100
2280
4280
4440
8820
1010
ENDCHAR
STARTCHAR U_34C8
ENCODING 13512
SWIDTH 1000 0
DWIDTH 13 0
BBX 12 12 0 -1
BITMAP 
0020
9FF0
4200
2200
0400
0400
2FE0
3420
4420
4420
87E0
0000
ENDCHAR
STARTCHAR U_34C9
ENCODING 13513
SWIDTH 1000 0
DWIDTH 13 0
BBX 12 12 0 -1
BITMAP 
0060
8F80
4100
0100
1FF0
0100
2100
2FE0
4820
4820
8FE0
0800
ENDCHAR
STARTCHAR U_34CA
ENCODING 13514
SWIDTH 1000 0
DWIDTH 13 0
BBX 12 12 0 -1
BITMAP 
8FF0
4810
2BD0
2810
0BD0
0A50
2A50
CA50
4BD0
4810
4810
4830
ENDCHAR
STARTCHAR U_34CB
ENCODING 13515
SWIDTH 1000 0
DWIDTH 13 0
BBX 12 12 0 -1
BITMAP 
8480
4480
2480
3FE0
0480
0480
1480
3FF0
C000
4480
4840
5020
ENDCHAR
STARTCHAR U_34CC
ENCODING 13516
SWIDTH 1000 0
DWIDTH 13 0
BBX 12 12 0 -1
BITMAP 
8100
4100
2280
0440
1830
07C0
1100
2100
C7C0
4100
4100
5FF0
ENDCHAR
STARTCHAR U_34CD
ENCODING 13517
SWIDTH 1000 0
DWIDTH 13 0
BBX 12 12 0 -1
BITMAP 
8200
4100
2FF0
2200
0440
0460
0FA0
2280
C280
4280
4490
5870
ENDCHAR
STARTCHAR U_34CE
ENCODING 13518
SWIDTH 1000 0
DWIDTH 13 0
BBX 12 12 0 -1
BITMAP 
87C0
4040
2FF0
2040
07C0
0000
1FF0
3010
C7C0
4440
4380
5C70
ENDCHAR
STARTCHAR U_34CF
ENCODING 13519
SWIDTH 1000 0
DWIDTH 13 0
BBX 12 12 0 -1
BITMAP 
9FF0
5010
5290
1450
1830
1010
17D0
3450
D450
57D0
5010
5030
ENDCHAR
STARTCHAR U_34D0
ENCODING 13520
SWIDTH 1000 0
DWIDTH 13 0
BBX 12 12 0 -1
BITMAP 
0100
4FE0
2100
1FF0
0440
0440
1970
2100
C7C0
4100
4100
5FF0
ENDCHAR
STARTCHAR U_34D1
ENCODING 13521
SWIDTH 1000 0
DWIDTH 13 0
BBX 12 12 0 -1
BITMAP 
8100
4FE0
2100
2100
1FF0
0440
0FE0
2100
DFF0
4100
4100
4100
ENDCHAR
STARTCHAR U_34D2
ENCODING 13522
SWIDTH 1000 0
DWIDTH 13 0
BBX 12 12 0 -1
BITMAP 
4200
2270
0F80
2200
C110
44F0
1B00
E0F0
0400
2520
4490
0C00
ENDCHAR
STARTCHAR U_34D3
ENCODING 13523
SWIDTH 1000 0
DWIDTH 13 0
BBX 12 12 0 -1
BITMAP 
8100
5FF0
2100
0100
1FF0
1450
3290
5FF0
D110
5FF0
5110
5130
ENDCHAR
STARTCHAR U_34D4
ENCODING 13524
SWIDTH 1000 0
DWIDTH 13 0
BBX 12 12 0 -1
BITMAP 
4220
4420
2F20
29F0
0F20
09A0
0F60
2920
DF20
4520
4920
5360
ENDCHAR
STARTCHAR U_34D5
ENCODING 13525
SWIDTH 1000 0
DWIDTH 13 0
BBX 12 12 0 -1
BITMAP 
40A0
2FF0
2880
0F80
0AC0
0AD0
2F50
CA60
4A40
4D60
50B0
5310
ENDCHAR
STARTCHAR U_34D6
ENCODING 13526
SWIDTH 1000 0
DWIDTH 13 0
BBX 12 12 0 -1
BITMAP 
8FE0
4920
2FE0
2920
0FE0
0540
1FF0
2540
CFE0
4100
47C0
4100
ENDCHAR
STARTCHAR U_34D7
ENCODING 13527
SWIDTH 1000 0
DWIDTH 13 0
BBX 12 12 0 -1
BITMAP 
04F0
4F50
2450
2F50
0450
1F50
05B0
2240
C780
4220
5FD0
4940
ENDCHAR
STARTCHAR U_34D8
ENCODING 13528
SWIDTH 1000 0
DWIDTH 13 0
BBX 12 12 0 -1
BITMAP 
7FE0
4020
5FA0
4420
4FE0
74A0
4B20
5FA0
4220
5FA0
8230
BFD0
ENDCHAR
STARTCHAR U_34D9
ENCODING 13529
SWIDTH 1000 0
DWIDTH 13 0
BBX 12 12 0 -1
BITMAP 
0400
8210
BFD0
9090
8910
8910
8610
8610
8910
B0D0
8010
FFF0
ENDCHAR
STARTCHAR U_34DA
ENCODING 13530
SWIDTH 1000 0
DWIDTH 13 0
BBX 12 12 0 -1
BITMAP 
0010
7E10
1090
1090
1090
1090
1090
1290
1C90
F010
4050
0020
ENDCHAR
STARTCHAR U_34DB
ENCODING 13531
SWIDTH 1000 0
DWIDTH 13 0
BBX 12 12 0 -1
BITMAP 
0000
03F0
7C90
1090
1090
1090
1090
1090
1510
7910
2250
0C20
ENDCHAR
STARTCHAR U_34DC
ENCODING 13532
SWIDTH 1000 0
DWIDTH 13 0
BBX 12 12 0 -1
BITMAP 
1000
17F0
2090
4890
8890
F090
2090
2090
4110
9910
EA50
0C20
ENDCHAR
STARTCHAR U_34DD
ENCODING 13533
SWIDTH 1000 0
DWIDTH 13 0
BBX 12 12 0 -1
BITMAP 
2410
2410
7E90
2490
2490
2490
FE90
2490
2410
2410
4450
8420
ENDCHAR
STARTCHAR U_34DE
ENCODING 13534
SWIDTH 1000 0
DWIDTH 13 0
BBX 12 12 0 -1
BITMAP 
13F0
1C90
F090
1090
1C90
F090
1090
1C90
F090
1110
1250
1420
ENDCHAR
STARTCHAR U_34DF
ENCODING 13535
SWIDTH 1000 0
DWIDTH 13 0
BBX 12 12 0 -1
BITMAP 
0810
7E10
4A90
4890
7E90
6290
5490
4890
5490
5210
A250
8020
ENDCHAR
STARTCHAR U_34E0
ENCODING 13536
SWIDTH 1000 0
DWIDTH 13 0
BBX 12 12 0 -1
BITMAP 
1010
1010
1E90
1090
1090
1090
FE90
8290
8290
8210
FEF0
8220
ENDCHAR
STARTCHAR U_34E1
ENCODING 13537
SWIDTH 1000 0
DWIDTH 13 0
BBX 12 12 0 -1
BITMAP 
2010
2010
4090
7C90
9090
1090
FE90
1090
9290
9210
92F0
FE20
ENDCHAR
STARTCHAR U_34E2
ENCODING 13538
SWIDTH 1000 0
DWIDTH 13 0
BBX 12 12 0 -1
BITMAP 
1010
2010
3F10
4290
A490
1890
2C90
C290
0290
7C10
44F0
7C20
ENDCHAR
STARTCHAR U_34E3
ENCODING 13539
SWIDTH 1000 0
DWIDTH 13 0
BBX 12 12 0 -1
BITMAP 
1010
1010
2810
4690
8290
0090
7C90
0090
7C90
4410
44D0
7C20
ENDCHAR
STARTCHAR U_34E4
ENCODING 13540
SWIDTH 1000 0
DWIDTH 13 0
BBX 12 12 0 -1
BITMAP 
1010
1010
1090
FE90
1090
7C90
0090
7C90
4490
4410
7CF0
4420
ENDCHAR
STARTCHAR U_34E5
ENCODING 13541
SWIDTH 1000 0
DWIDTH 13 0
BBX 12 12 0 -1
BITMAP 
1010
9210
5690
3890
1090
FE90
0290
0290
FE90
0210
02F0
FE20
ENDCHAR
STARTCHAR U_34E6
ENCODING 13542
SWIDTH 1000 0
DWIDTH 13 0
BBX 12 12 0 -1
BITMAP 
0010
FC10
2010
2090
4090
FC90
8490
8490
FC90
8410
84D0
FC20
ENDCHAR
STARTCHAR U_34E7
ENCODING 13543
SWIDTH 1000 0
DWIDTH 13 0
BBX 12 12 0 -1
BITMAP 
1010
1010
2890
5690
8A90
7C90
0890
1090
7C90
4410
4450
7C20
ENDCHAR
STARTCHAR U_34E8
ENCODING 13544
SWIDTH 1000 0
DWIDTH 13 0
BBX 12 12 0 -1
BITMAP 
1010
1010
FE10
1090
5490
5490
BA90
9290
2890
2410
42F0
8220
ENDCHAR
STARTCHAR U_34E9
ENCODING 13545
SWIDTH 1000 0
DWIDTH 13 0
BBX 12 12 0 -1
BITMAP 
1010
1E10
6450
8850
7F50
4950
7F50
4950
7F50
4910
4910
8B30
ENDCHAR
STARTCHAR U_34EA
ENCODING 13546
SWIDTH 1000 0
DWIDTH 13 0
BBX 12 12 0 -1
BITMAP 
2000
13F0
FC90
8490
FC90
8490
FC90
8090
9090
9910
A950
C620
ENDCHAR
STARTCHAR U_34EB
ENCODING 13547
SWIDTH 1000 0
DWIDTH 13 0
BBX 12 12 0 -1
BITMAP 
1010
1010
FF50
2850
4450
8250
7E50
2450
FF50
2410
2410
4430
ENDCHAR
STARTCHAR U_34EC
ENCODING 13548
SWIDTH 1000 0
DWIDTH 13 0
BBX 12 12 0 -1
BITMAP 
4910
2A10
7F50
0850
FF50
2450
4250
FF50
1250
1250
2210
C630
ENDCHAR
STARTCHAR U_34ED
ENCODING 13549
SWIDTH 1000 0
DWIDTH 13 0
BBX 12 12 0 -1
BITMAP 
7E10
4210
7E50
4250
7E50
2050
7F50
8950
5550
6510
7F10
0330
ENDCHAR
STARTCHAR U_34EE
ENCODING 13550
SWIDTH 1000 0
DWIDTH 13 0
BBX 12 12 0 -1
BITMAP 
7F10
4910
5D50
4950
7F50
4150
5D50
5550
5550
5D10
4110
8730
ENDCHAR
STARTCHAR U_34EF
ENCODING 13551
SWIDTH 1000 0
DWIDTH 13 0
BBX 12 12 0 -1
BITMAP 
1510
1510
2A50
5450
2A50
2A50
0050
7F50
4950
7F10
4910
7F30
ENDCHAR
STARTCHAR U_34F0
ENCODING 13552
SWIDTH 1000 0
DWIDTH 13 0
BBX 12 12 0 -1
BITMAP 
FF90
0810
0850
BED0
AAD0
AAD0
BED0
AAD0
AAD0
BE90
8090
FFB0
ENDCHAR
STARTCHAR U_34F1
ENCODING 13553
SWIDTH 1000 0
DWIDTH 13 0
BBX 12 12 0 -1
BITMAP 
0810
3410
4250
BD50
0050
7150
5550
7550
5550
7510
5110
B330
ENDCHAR
STARTCHAR U_34F2
ENCODING 13554
SWIDTH 1000 0
DWIDTH 13 0
BBX 12 12 0 -1
BITMAP 
0710
7810
4050
7F50
4150
7F50
4050
7F50
6950
7F10
6950
AB20
ENDCHAR
STARTCHAR U_34F3
ENCODING 13555
SWIDTH 1000 0
DWIDTH 13 0
BBX 12 12 0 -1
BITMAP 
7E10
4210
7E90
4290
7E90
0090
FE90
1090
5C10
5010
7050
9F20
ENDCHAR
STARTCHAR U_34F4
ENCODING 13556
SWIDTH 1000 0
DWIDTH 13 0
BBX 12 12 0 -1
BITMAP 
FE10
2010
FE90
AA90
AA90
AA90
1090
FE90
1010
2010
4450
8220
ENDCHAR
STARTCHAR U_34F5
ENCODING 13557
SWIDTH 1000 0
DWIDTH 13 0
BBX 12 12 0 -1
BITMAP 
7710
5510
7750
0050
7E50
0050
FF50
1050
3E50
0210
0210
0630
ENDCHAR
STARTCHAR U_34F6
ENCODING 13558
SWIDTH 1000 0
DWIDTH 13 0
BBX 12 12 0 -1
BITMAP 
4F10
F510
4550
E550
4550
E950
4B50
1050
FE50
2810
4410
8230
ENDCHAR
STARTCHAR U_34F7
ENCODING 13559
SWIDTH 1000 0
DWIDTH 13 0
BBX 12 12 0 -1
BITMAP 
1010
7F10
4110
7F50
4150
7F50
4150
7F50
0850
FF90
2A10
4930
ENDCHAR
STARTCHAR U_34F8
ENCODING 13560
SWIDTH 1000 0
DWIDTH 13 0
BBX 12 12 0 -1
BITMAP 
F710
9510
9550
F750
1450
F750
8150
8150
F750
1410
1410
FF30
ENDCHAR
STARTCHAR U_34F9
ENCODING 13561
SWIDTH 1000 0
DWIDTH 13 0
BBX 12 12 0 -1
BITMAP 
7F90
4410
5550
4E50
4450
5A50
6550
5550
4E50
4410
4A10
B1B0
ENDCHAR
STARTCHAR U_34FA
ENCODING 13562
SWIDTH 1000 0
DWIDTH 13 0
BBX 12 12 0 -1
BITMAP 
0E10
0810
7F50
4950
7E50
4950
4750
4850
7F50
5210
4C10
B330
ENDCHAR
STARTCHAR U_34FB
ENCODING 13563
SWIDTH 1000 0
DWIDTH 13 0
BBX 12 12 0 -1
BITMAP 
7F10
5510
5550
7F50
0050
FF50
0850
0F50
4850
4810
4F10
F830
ENDCHAR
STARTCHAR U_34FC
ENCODING 13564
SWIDTH 1000 0
DWIDTH 13 0
BBX 12 12 0 -1
BITMAP 
0810
FF90
1C50
2A50
C9D0
0850
3650
C9D0
4950
2A10
4910
98B0
ENDCHAR
STARTCHAR U_34FD
ENCODING 13565
SWIDTH 1000 0
DWIDTH 13 0
BBX 12 12 0 -1
BITMAP 
9210
9210
FE90
1090
FE90
8290
7C90
0090
FE10
1010
5450
9220
ENDCHAR
STARTCHAR U_34FE
ENCODING 13566
SWIDTH 1000 0
DWIDTH 13 0
BBX 12 12 0 -1
BITMAP 
7F20
4120
7F20
6AA0
5CA0
54A0
6AA0
58A0
7E20
4820
BF60
0820
ENDCHAR
STARTCHAR U_34FF
ENCODING 13567
SWIDTH 1000 0
DWIDTH 13 0
BBX 12 12 0 -1
BITMAP 
1C10
0810
7F10
1C50
2A50
4950
1450
2A50
6B10
1C10
2A50
5930
ENDCHAR
STARTCHAR U_3500
ENCODING 13568
SWIDTH 1000 0
DWIDTH 13 0
BBX 12 12 0 -1
BITMAP 
7F10
4110
7F50
0850
FFD0
7F50
4150
7F50
0850
2A10
4950
98B0
ENDCHAR
STARTCHAR U_3501
ENCODING 13569
SWIDTH 1000 0
DWIDTH 13 0
BBX 12 12 0 -1
BITMAP 
F480
1510
A290
4150
BED0
0050
7F50
4150
7F50
4150
2210
FFA0
ENDCHAR
STARTCHAR U_3502
ENCODING 13570
SWIDTH 1000 0
DWIDTH 13 0
BBX 12 12 0 -1
BITMAP 
5420
1020
FEA0
10A0
54A0
92A0
44A0
7EA0
9420
7E20
44E0
8440
ENDCHAR
STARTCHAR U_3503
ENCODING 13571
SWIDTH 1000 0
DWIDTH 13 0
BBX 12 12 0 -1
BITMAP 
43F0
8890
FB30
43F0
8A50
FBF0
0200
A9F0
0000
FFF0
0410
7830
ENDCHAR
STARTCHAR U_3504
ENCODING 13572
SWIDTH 1000 0
DWIDTH 13 0
BBX 12 12 0 -1
BITMAP 
FF10
2410
FF50
A550
FF50
1050
9250
5450
FF50
1010
5410
9230
ENDCHAR
STARTCHAR U_3505
ENCODING 13573
SWIDTH 1000 0
DWIDTH 13 0
BBX 12 12 0 -1
BITMAP 
0810
7F10
0950
FFD0
2950
6F50
4950
7F50
4950
6F10
A910
A930
ENDCHAR
STARTCHAR U_3506
ENCODING 13574
SWIDTH 1000 0
DWIDTH 13 0
BBX 12 12 0 -1
BITMAP 
7710
AA10
FF50
2250
5550
9950
0050
7E50
4210
7E10
4250
7E20
ENDCHAR
STARTCHAR U_3507
ENCODING 13575
SWIDTH 1000 0
DWIDTH 13 0
BBX 12 12 0 -1
BITMAP 
7510
1690
A550
4250
B7D0
1550
7550
48D0
FF90
1510
9250
6D20
ENDCHAR
STARTCHAR U_3508
ENCODING 13576
SWIDTH 1000 0
DWIDTH 13 0
BBX 12 12 0 -1
BITMAP 
2410
FF10
2450
0050
2450
E750
2450
E750
2450
E710
2410
2430
ENDCHAR
STARTCHAR U_3509
ENCODING 13577
SWIDTH 1000 0
DWIDTH 13 0
BBX 12 12 0 -1
BITMAP 
3F10
2110
3F50
2E50
3F50
3550
5F50
4450
5F10
5510
9F50
9120
ENDCHAR
STARTCHAR U_350A
ENCODING 13578
SWIDTH 1000 0
DWIDTH 13 0
BBX 12 12 0 -1
BITMAP 
1010
FF10
0010
FF50
A550
BD50
8150
FF50
4250
7E10
4210
FF30
ENDCHAR
STARTCHAR U_350B
ENCODING 13579
SWIDTH 1000 0
DWIDTH 13 0
BBX 12 12 0 -1
BITMAP 
FA10
A390
FA10
8C50
F850
A7D0
F850
0050
7F50
5510
5510
FFB0
ENDCHAR
STARTCHAR U_350C
ENCODING 13580
SWIDTH 1000 0
DWIDTH 13 0
BBX 12 12 0 -1
BITMAP 
F110
AF10
E950
A550
E250
2D50
0150
FF50
2A10
2A10
5D50
8830
ENDCHAR
STARTCHAR U_350D
ENCODING 13581
SWIDTH 1000 0
DWIDTH 13 0
BBX 12 12 0 -1
BITMAP 
4410
7710
AA50
7E50
4250
7E50
4250
7E50
2410
FF10
2450
4420
ENDCHAR
STARTCHAR U_350E
ENCODING 13582
SWIDTH 1000 0
DWIDTH 13 0
BBX 12 12 0 -1
BITMAP 
A440
FDF0
40A0
FDF0
4440
7DF0
4440
7C40
0000
FFF0
0810
F060
ENDCHAR
STARTCHAR U_350F
ENCODING 13583
SWIDTH 1000 0
DWIDTH 13 0
BBX 12 12 0 -1
BITMAP 
FF90
2010
7E50
A250
3E50
0050
FFD0
2250
7710
DD10
5510
7730
ENDCHAR
STARTCHAR U_3510
ENCODING 13584
SWIDTH 1000 0
DWIDTH 13 0
BBX 12 12 0 -1
BITMAP 
4410
7F90
5510
8850
FF50
1450
7750
1450
7750
1410
1F50
F020
ENDCHAR
STARTCHAR U_3511
ENCODING 13585
SWIDTH 1000 0
DWIDTH 13 0
BBX 12 12 0 -1
BITMAP 
2100
FBF0
5140
FBF0
8920
FBF0
8880
FBF0
0080
FFF0
0810
7030
ENDCHAR
STARTCHAR U_3512
ENCODING 13586
SWIDTH 1000 0
DWIDTH 13 0
BBX 12 12 0 -1
BITMAP 
8910
FF10
2850
7F50
C850
7F50
4850
FFD0
A290
DD90
9490
9DB0
ENDCHAR
STARTCHAR U_3513
ENCODING 13587
SWIDTH 1000 0
DWIDTH 13 0
BBX 12 12 0 -1
BITMAP 
0E80
7080
13F0
1090
FE90
1090
1090
1090
1090
1110
1150
1620
ENDCHAR
STARTCHAR U_3514
ENCODING 13588
SWIDTH 1000 0
DWIDTH 13 0
BBX 12 12 0 -1
BITMAP 
1000
FEF0
1290
1290
2290
4A90
84F0
0000
3FC0
4020
4020
3FC0
ENDCHAR
STARTCHAR U_3515
ENCODING 13589
SWIDTH 1000 0
DWIDTH 13 0
BBX 12 12 0 -1
BITMAP 
4040
7C40
81F0
7C50
0050
F850
0850
0850
0890
0A90
0690
0330
ENDCHAR
STARTCHAR U_3516
ENCODING 13590
SWIDTH 1000 0
DWIDTH 13 0
BBX 12 12 0 -1
BITMAP 
1000
FEF0
1290
1290
1290
2290
C6F0
0000
FFF0
0010
0010
0060
ENDCHAR
STARTCHAR U_3517
ENCODING 13591
SWIDTH 1000 0
DWIDTH 13 0
BBX 12 12 0 -1
BITMAP 
2880
2880
FE80
2BF0
FE90
A890
FE90
2A90
2A90
2A90
4E90
8930
ENDCHAR
STARTCHAR U_3518
ENCODING 13592
SWIDTH 1000 0
DWIDTH 13 0
BBX 12 12 0 -1
BITMAP
2080
2080
A880
ABF0
F890
2090
A890
A910
A910
B910
CA50
0420
ENDCHAR
STARTCHAR U_3519
ENCODING 13593
SWIDTH 1000 0
DWIDTH 13 0
BBX 12 12 0 -1
BITMAP 
4440
2840
FE40
25F0
2450
FE50
2450
2450
2490
4490
8510
0620
ENDCHAR
STARTCHAR U_351A
ENCODING 13594
SWIDTH 1000 0
DWIDTH 13 0
BBX 12 12 0 -1
BITMAP 
0420
1840
7040
11E0
FC50
1090
10A0
7D20
4520
7940
42C0
0000
ENDCHAR
STARTCHAR U_351B
ENCODING 13595
SWIDTH 1000 0
DWIDTH 13 0
BBX 12 12 0 -1
BITMAP 
0400
FFF0
0400
7FE0
0000
3FC0
2040
3FC0
0400
7FF0
0810
7030
ENDCHAR
STARTCHAR U_351C
ENCODING 13596
SWIDTH 1000 0
DWIDTH 13 0
BBX 12 12 0 -1
BITMAP 
0E40
F040
9240
4BF0
0050
FE50
0850
1050
1E90
F090
1110
3630
ENDCHAR
STARTCHAR U_351D
ENCODING 13597
SWIDTH 1000 0
DWIDTH 13 0
BBX 12 12 0 -1
BITMAP 
FE40
1040
11F0
FE50
9250
9250
DA50
B650
DA50
9290
9290
9730
ENDCHAR
STARTCHAR U_351E
ENCODING 13598
SWIDTH 1000 0
DWIDTH 13 0
BBX 12 12 0 -1
BITMAP 
0C40
7040
11F0
FE50
1050
5450
D650
5450
9650
1090
1150
1020
ENDCHAR
STARTCHAR U_351F
ENCODING 13599
SWIDTH 1000 0
DWIDTH 13 0
BBX 12 12 0 -1
BITMAP 
5080
7DE0
90A0
7DA0
10E0
1D20
E230
0400
FFF0
0410
1890
E060
ENDCHAR
STARTCHAR U_3520
ENCODING 13600
SWIDTH 1000 0
DWIDTH 13 0
BBX 12 12 0 -1
BITMAP 
FC80
8480
FC80
87F0
FC90
4090
7C90
A490
A490
D510
F550
0A20
ENDCHAR
STARTCHAR U_3521
ENCODING 13601
SWIDTH 1000 0
DWIDTH 13 0
BBX 12 12 0 -1
BITMAP 
4040
FE40
AA40
92F0
AA50
FE50
0050
8890
EE90
8890
AB50
CD20
ENDCHAR
STARTCHAR U_3522
ENCODING 13602
SWIDTH 1000 0
DWIDTH 13 0
BBX 12 12 0 -1
BITMAP 
4100
93E0
6040
53E0
FAA0
03E0
AA10
03E0
0800
7FE0
1020
6060
ENDCHAR
STARTCHAR U_3523
ENCODING 13603
SWIDTH 1000 0
DWIDTH 13 0
BBX 12 12 0 -1
BITMAP 
7C40
5440
7C40
55F0
5450
7C50
0050
FE50
AA50
FE90
AAD0
FF20
ENDCHAR
STARTCHAR U_3524
ENCODING 13604
SWIDTH 1000 0
DWIDTH 13 0
BBX 12 12 0 -1
BITMAP 
1040
FF40
8240
7DF0
5450
FF50
5450
FE50
5490
7C90
5550
7E20
ENDCHAR
STARTCHAR U_3525
ENCODING 13605
SWIDTH 1000 0
DWIDTH 13 0
BBX 12 12 0 -1
BITMAP 
FE80
AA80
FE80
49F0
AE90
E890
AE90
E090
AA90
EC90
A950
AE20
ENDCHAR
STARTCHAR U_3526
ENCODING 13606
SWIDTH 1000 0
DWIDTH 13 0
BBX 12 12 0 -1
BITMAP 
4440
FE40
1040
FDF0
1050
FE50
4450
FE90
5490
7C90
5110
6A60
ENDCHAR
STARTCHAR U_3527
ENCODING 13607
SWIDTH 1000 0
DWIDTH 13 0
BBX 12 12 0 -1
BITMAP 
1E40
1040
FE40
95F0
9050
BE50
AA50
BE50
AA50
FE50
AA90
7F30
ENDCHAR
STARTCHAR U_3528
ENCODING 13608
SWIDTH 1000 0
DWIDTH 13 0
BBX 12 12 0 -1
BITMAP 
7FF0
4A10
BB90
0A10
7BD0
0010
1F10
1110
1D10
1110
1D10
2370
ENDCHAR
STARTCHAR U_3529
ENCODING 13609
SWIDTH 1000 0
DWIDTH 13 0
BBX 12 12 0 -1
BITMAP 
2000
3FF0
4410
9F10
0410
7FD0
1110
1F90
3F90
2A90
7FD0
0030
ENDCHAR
STARTCHAR U_352A
ENCODING 13610
SWIDTH 1000 0
DWIDTH 13 0
BBX 12 12 0 -1
BITMAP 
2000
3FF0
4410
8790
0410
7FD0
5550
4A50
64D0
4A50
5550
7FF0
ENDCHAR
STARTCHAR U_352B
ENCODING 13611
SWIDTH 1000 0
DWIDTH 13 0
BBX 12 12 0 -1
BITMAP 
0800
0800
0800
FFF0
0800
1000
1420
1440
2780
2400
4410
83F0
ENDCHAR
STARTCHAR U_352C
ENCODING 13612
SWIDTH 1000 0
DWIDTH 13 0
BBX 12 12 0 -1
BITMAP 
4060
7F80
4020
3FE0
2040
3FC0
2040
3FC0
0400
FFF0
0400
0400
ENDCHAR
STARTCHAR U_352D
ENCODING 13613
SWIDTH 1000 0
DWIDTH 13 0
BBX 12 12 0 -1
BITMAP 
07C0
8440
87C0
8440
F7C0
8000
9FF0
8100
95C0
E500
8B00
30F0
ENDCHAR
STARTCHAR U_352E
ENCODING 13614
SWIDTH 1000 0
DWIDTH 13 0
BBX 12 12 0 -1
BITMAP 
50A0
F930
52A0
FFE0
A830
FB80
22A0
FBB0
22A0
FBA0
52A0
8EB0
ENDCHAR
STARTCHAR U_352F
ENCODING 13615
SWIDTH 1000 0
DWIDTH 13 0
BBX 12 12 0 -1
BITMAP 
FFF0
8000
9FC0
9040
9040
A040
CFB0
8880
8880
8F80
8000
FFF0
ENDCHAR
STARTCHAR U_3530
ENCODING 13616
SWIDTH 1000 0
DWIDTH 13 0
BBX 12 12 0 -1
BITMAP 
FFE0
8880
8880
8E80
92C0
A2A0
D490
8880
9080
A080
8080
FFF0
ENDCHAR
STARTCHAR U_3531
ENCODING 13617
SWIDTH 1000 0
DWIDTH 13 0
BBX 12 12 0 -1
BITMAP 
FFF0
8A00
B2E0
A220
BAE0
A220
BFE0
8200
8580
8840
B020
FFF0
ENDCHAR
STARTCHAR U_3532
ENCODING 13618
SWIDTH 1000 0
DWIDTH 13 0
BBX 12 12 0 -1
BITMAP 
FFF0
9100
A900
D7C0
B940
A940
B940
A940
BD50
AA50
B430
FFF0
ENDCHAR
STARTCHAR U_3533
ENCODING 13619
SWIDTH 1000 0
DWIDTH 13 0
BBX 12 12 0 -1
BITMAP 
FFF0
9000
AEE0
D0A0
BCA0
A4A0
BCA0
A4A0
BCA0
AAB0
B500
FFF0
ENDCHAR
STARTCHAR U_3534
ENCODING 13620
SWIDTH 1000 0
DWIDTH 13 0
BBX 12 12 0 -1
BITMAP 
FFF0
A220
BFE0
A220
BFE0
8880
BFE0
8880
BFE0
9040
A020
FFF0
ENDCHAR
STARTCHAR U_3535
ENCODING 13621
SWIDTH 1000 0
DWIDTH 13 0
BBX 12 12 0 -1
BITMAP 
FFF0
A520
BDE0
A100
BDE0
8880
9FC0
8880
BFE0
8880
9040
FFF0
ENDCHAR
STARTCHAR U_3536
ENCODING 13622
SWIDTH 1000 0
DWIDTH 13 0
BBX 12 12 0 -1
BITMAP 
FFF0
9080
FD60
AAA0
FCC0
ABB0
B960
A9E0
9120
FDE0
9330
FFF0
ENDCHAR
STARTCHAR U_3537
ENCODING 13623
SWIDTH 1000 0
DWIDTH 13 0
BBX 12 12 0 -1
BITMAP 
FFF0
8000
BFE0
8200
BFE0
A220
A220
A520
A8A0
A060
8000
FFF0
ENDCHAR
STARTCHAR U_3538
ENCODING 13624
SWIDTH 1000 0
DWIDTH 13 0
BBX 12 12 0 -1
BITMAP 
FFF0
81E0
BF00
A1C0
A100
AFE0
A920
ABC0
A900
ABD0
D270
FFF0
ENDCHAR
STARTCHAR U_3539
ENCODING 13625
SWIDTH 1000 0
DWIDTH 13 0
BBX 12 12 0 -1
BITMAP 
2080
2080
27F0
F090
2090
2090
2110
2110
2110
2210
2250
2C20
ENDCHAR
STARTCHAR U_353A
ENCODING 13626
SWIDTH 1000 0
DWIDTH 13 0
BBX 12 12 0 -1
BITMAP 
0400
0400
FFF0
0400
2440
2040
F9F0
2040
2040
2040
2010
1FF0
ENDCHAR
STARTCHAR U_353B
ENCODING 13627
SWIDTH 1000 0
DWIDTH 13 0
BBX 12 12 0 -1
BITMAP 
FFF0
0200
0400
0D80
3440
C420
0400
0000
0400
FFF0
0400
0400
ENDCHAR
STARTCHAR U_353C
ENCODING 13628
SWIDTH 1000 0
DWIDTH 13 0
BBX 12 12 0 -1
BITMAP 
2480
27F0
FC80
27E0
3480
E7E0
2480
67F0
0400
FFF0
0400
0400
ENDCHAR
STARTCHAR U_353D
ENCODING 13629
SWIDTH 1000 0
DWIDTH 13 0
BBX 12 12 0 -1
BITMAP 
0400
07F0
0400
0400
FFF0
8010
9F90
9090
9090
9F90
8010
FFF0
ENDCHAR
STARTCHAR U_353E
ENCODING 13630
SWIDTH 1000 0
DWIDTH 13 0
BBX 12 12 0 -1
BITMAP 
7FC0
4040
4040
4040
4040
4040
4140
4080
4000
4010
4010
3FF0
ENDCHAR
STARTCHAR U_353F
ENCODING 13631
SWIDTH 1000 0
DWIDTH 13 0
BBX 12 12 0 -1
BITMAP 
FFF0
2040
2040
2040
2040
2040
2040
27C0
3840
0040
0040
0040
ENDCHAR
STARTCHAR U_3540
ENCODING 13632
SWIDTH 1000 0
DWIDTH 13 0
BBX 12 12 0 -1
BITMAP 
0400
7FE0
4420
7FE0
4420
7FE0
0000
3FC0
2040
21C0
2010
1FF0
ENDCHAR
STARTCHAR U_3541
ENCODING 13633
SWIDTH 1000 0
DWIDTH 13 0
BBX 12 12 0 -1
BITMAP 
C2F0
3490
0890
3490
C290
1090
FE90
2090
2890
52B0
A680
7A80
ENDCHAR
STARTCHAR U_3542
ENCODING 13634
SWIDTH 1000 0
DWIDTH 13 0
BBX 12 12 0 -1
BITMAP 
7FF0
4300
4480
4840
7230
4100
5FE0
4020
4040
4080
4100
8600
ENDCHAR
STARTCHAR U_3543
ENCODING 13635
SWIDTH 1000 0
DWIDTH 13 0
BBX 12 12 0 -1
BITMAP 
7FF0
4000
5FF0
4440
4440
4440
5FF0
4440
4440
4440
4840
9040
ENDCHAR
STARTCHAR U_3544
ENCODING 13636
SWIDTH 1000 0
DWIDTH 13 0
BBX 12 12 0 -1
BITMAP 
7FF0
4000
5FF0
4200
4420
4840
5F80
4100
4240
4C20
9FF0
9010
ENDCHAR
STARTCHAR U_3545
ENCODING 13637
SWIDTH 1000 0
DWIDTH 13 0
BBX 12 12 0 -1
BITMAP 
7FF0
4000
5FE0
5120
5FE0
5120
5FE0
5120
4100
4100
4100
8100
ENDCHAR
STARTCHAR U_3546
ENCODING 13638
SWIDTH 1000 0
DWIDTH 13 0
BBX 12 12 0 -1
BITMAP 
7FF0
4100
4100
4100
5FF0
4100
4100
4FE0
4820
4820
4820
8FE0
ENDCHAR
STARTCHAR U_3547
ENCODING 13639
SWIDTH 1000 0
DWIDTH 13 0
BBX 12 12 0 -1
BITMAP 
7FF0
4400
4200
7FF0
4840
4840
4880
4880
4480
4500
4500
BFF0
ENDCHAR
STARTCHAR U_3548
ENCODING 13640
SWIDTH 1000 0
DWIDTH 13 0
BBX 12 12 0 -1
BITMAP 
7FF0
4200
4100
7FF0
4400
4820
7A40
4980
4900
4880
4A40
8C30
ENDCHAR
STARTCHAR U_3549
ENCODING 13641
SWIDTH 1000 0
DWIDTH 13 0
BBX 12 12 0 -1
BITMAP 
7FF0
4200
4500
4880
7070
4000
4FC0
4000
5FE0
5020
9020
9FE0
ENDCHAR
STARTCHAR U_354A
ENCODING 13642
SWIDTH 1000 0
DWIDTH 13 0
BBX 12 12 0 -1
BITMAP 
7FF0
4140
4120
7FF0
4100
5FF0
5110
5FF0
5110
5FF0
5110
9130
ENDCHAR
STARTCHAR U_354B
ENCODING 13643
SWIDTH 1000 0
DWIDTH 13 0
BBX 12 12 0 -1
BITMAP 
7FF0
4300
4480
4840
7030
4FC0
4200
5FE0
4200
5220
8A40
BFF0
ENDCHAR
STARTCHAR U_354C
ENCODING 13644
SWIDTH 1000 0
DWIDTH 13 0
BBX 12 12 0 -1
BITMAP 
7FF0
4000
5FE0
5020
5FE0
5020
5FE0
4080
7FF0
4880
4480
8180
ENDCHAR
STARTCHAR U_354D
ENCODING 13645
SWIDTH 1000 0
DWIDTH 13 0
BBX 12 12 0 -1
BITMAP 
7FF0
4000
4C80
5880
6FF0
4880
4FF0
4880
4FF0
4880
8FF0
0000
ENDCHAR
STARTCHAR U_354E
ENCODING 13646
SWIDTH 1000 0
DWIDTH 13 0
BBX 12 12 0 -1
BITMAP 
7FE0
4200
4F80
4200
5FC0
4400
4880
5FC0
4000
5FC0
5540
BFE0
ENDCHAR
STARTCHAR U_354F
ENCODING 13647
SWIDTH 1000 0
DWIDTH 13 0
BBX 12 12 0 -1
BITMAP 
7FF0
4000
5E20
40A0
5E20
52A0
5E20
40F0
5220
4C20
4020
9E20
ENDCHAR
STARTCHAR U_3550
ENCODING 13648
SWIDTH 1000 0
DWIDTH 13 0
BBX 12 12 0 -1
BITMAP 
7FF0
4800
5CE0
5020
5CE0
5020
5CE0
5000
5FF0
6A90
5550
8030
ENDCHAR
STARTCHAR U_3551
ENCODING 13649
SWIDTH 1000 0
DWIDTH 13 0
BBX 12 12 0 -1
BITMAP 
7FE0
4000
4840
5C40
49E0
5C40
5440
5D40
4040
5440
48C0
9C40
ENDCHAR
STARTCHAR U_3552
ENCODING 13650
SWIDTH 1000 0
DWIDTH 13 0
BBX 12 12 0 -1
BITMAP 
7FE0
4880
5FC0
4200
5FC0
4920
5FC0
4900
4D40
5880
48A0
9B40
ENDCHAR
STARTCHAR U_3553
ENCODING 13651
SWIDTH 1000 0
DWIDTH 13 0
BBX 12 12 0 -1
BITMAP 
7FE0
5240
5FC0
5240
5FC0
4200
7FE0
5540
6220
5FC0
4200
BFE0
ENDCHAR
STARTCHAR U_3554
ENCODING 13652
SWIDTH 1000 0
DWIDTH 13 0
BBX 12 12 0 -1
BITMAP 
7FF0
5440
5DF0
5550
5DF0
5400
5DF0
7480
5D10
75A0
5650
A4A0
ENDCHAR
STARTCHAR U_3555
ENCODING 13653
SWIDTH 1000 0
DWIDTH 13 0
BBX 12 12 0 -1
BITMAP 
0400
0400
0880
1040
2020
7FF0
0410
0880
1040
2020
7FF0
0010
ENDCHAR
STARTCHAR U_3556
ENCODING 13654
SWIDTH 1000 0
DWIDTH 13 0
BBX 12 12 0 -1
BITMAP 
0400
0900
1F80
1080
2940
7DE0
0200
FFF0
0200
1240
2220
4210
ENDCHAR
STARTCHAR U_3557
ENCODING 13655
SWIDTH 1000 0
DWIDTH 13 0
BBX 12 12 0 -1
BITMAP 
2800
7C00
1040
7C40
1080
7C80
1120
19F0
2410
4800
1400
23F0
ENDCHAR
STARTCHAR U_3558
ENCODING 13656
SWIDTH 1000 0
DWIDTH 13 0
BBX 12 12 0 -1
BITMAP 
1880
2040
7FE0
2080
5120
FFF0
0600
0900
36C0
CB30
1A80
6640
ENDCHAR
STARTCHAR U_3559
ENCODING 13657
SWIDTH 1000 0
DWIDTH 13 0
BBX 12 12 0 -1
BITMAP 
2040
48E0
FD20
4A40
4BF0
8E90
2290
7FF0
C8C0
3160
3250
CC70
ENDCHAR
STARTCHAR U_355A
ENCODING 13658
SWIDTH 1000 0
DWIDTH 13 0
BBX 12 12 0 -1
BITMAP 
0000
7FC0
2840
2480
1480
9100
4A00
4400
0A00
1100
20C0
C030
ENDCHAR
STARTCHAR U_355B
ENCODING 13659
SWIDTH 1000 0
DWIDTH 13 0
BBX 12 12 0 -1
BITMAP 
7FE0
0040
3880
0700
18C0
E030
0000
7FC0
2040
1080
0F00
F0F0
ENDCHAR
STARTCHAR U_355C
ENCODING 13660
SWIDTH 1000 0
DWIDTH 13 0
BBX 12 12 0 -1
BITMAP 
0400
7FE0
4420
7FE0
0400
0400
7FE0
2040
1980
0600
1980
E070
ENDCHAR
STARTCHAR U_355D
ENCODING 13661
SWIDTH 1000 0
DWIDTH 13 0
BBX 12 12 0 -1
BITMAP 
0400
FFF0
0400
7FE0
4020
7FE0
0000
7FC0
2040
1080
0F00
F0F0
ENDCHAR
STARTCHAR U_355E
ENCODING 13662
SWIDTH 1000 0
DWIDTH 13 0
BBX 12 12 0 -1
BITMAP 
7E00
42F0
4290
7E90
4890
4890
7EA0
6A40
6A40
AA60
2EA0
0910
ENDCHAR
STARTCHAR U_355F
ENCODING 13663
SWIDTH 1000 0
DWIDTH 13 0
BBX 12 12 0 -1
BITMAP 
1000
1E00
11F0
1090
FE90
AA90
AA90
FE60
AA60
AA60
AA90
8710
ENDCHAR
STARTCHAR U_3560
ENCODING 13664
SWIDTH 1000 0
DWIDTH 13 0
BBX 12 12 0 -1
BITMAP 
C480
4FF0
3880
0FF0
2880
4FF0
C880
4FF0
7FC0
2080
1F00
E0F0
ENDCHAR
STARTCHAR U_3561
ENCODING 13665
SWIDTH 1000 0
DWIDTH 13 0
BBX 12 12 0 -1
BITMAP 
3000
23F0
FD10
8520
78A0
30C0
4840
30C0
CCA0
7920
4910
7A10
ENDCHAR
STARTCHAR U_3562
ENCODING 13666
SWIDTH 1000 0
DWIDTH 13 0
BBX 12 12 0 -1
BITMAP 
2000
3DF0
2110
FD10
8510
7890
48A0
78A0
4840
7840
48A0
8510
ENDCHAR
STARTCHAR U_3563
ENCODING 13667
SWIDTH 1000 0
DWIDTH 13 0
BBX 12 12 0 -1
BITMAP 
0900
0900
0900
1080
1080
2040
4020
BFD0
2040
2040
2040
3FC0
ENDCHAR
STARTCHAR U_3564
ENCODING 13668
SWIDTH 1000 0
DWIDTH 13 0
BBX 12 12 0 -1
BITMAP 
0200
0200
F200
9FC0
9240
9240
9240
9240
9240
F440
0450
1830
ENDCHAR
STARTCHAR U_3565
ENCODING 13669
SWIDTH 1000 0
DWIDTH 13 0
BBX 12 12 0 -1
BITMAP 
0100
0100
F100
9100
9100
9100
9100
9280
9280
F280
0440
1830
ENDCHAR
STARTCHAR U_3566
ENCODING 13670
SWIDTH 1000 0
DWIDTH 13 0
BBX 12 12 0 -1
BITMAP 
7FE0
4020
4020
4020
7FE0
0200
0200
FFF0
0400
0880
3040
C020
ENDCHAR
STARTCHAR U_3567
ENCODING 13671
SWIDTH 1000 0
DWIDTH 13 0
BBX 12 12 0 -1
BITMAP 
07F0
0410
F410
97F0
9400
9400
9400
9400
F400
0400
0800
3000
ENDCHAR
STARTCHAR U_3568
ENCODING 13672
SWIDTH 1000 0
DWIDTH 13 0
BBX 12 12 0 -1
BITMAP 
07C0
0440
F440
9440
9640
9540
9540
9440
9440
F440
0850
3030
ENDCHAR
STARTCHAR U_3569
ENCODING 13673
SWIDTH 1000 0
DWIDTH 13 0
BBX 12 12 0 -1
BITMAP 
0080
0080
F7F0
9080
9080
97F0
9080
9080
F7F0
0080
0080
0080
ENDCHAR
STARTCHAR U_356A
ENCODING 13674
SWIDTH 1000 0
DWIDTH 13 0
BBX 12 12 0 -1
BITMAP 
0080
0080
F7F0
9490
9490
9080
9080
9140
9140
F250
0450
1830
ENDCHAR
STARTCHAR U_356B
ENCODING 13675
SWIDTH 1000 0
DWIDTH 13 0
BBX 12 12 0 -1
BITMAP 
0100
F080
9FF0
9200
9200
93E0
9220
9220
9220
F420
04A0
1840
ENDCHAR
STARTCHAR U_356C
ENCODING 13676
SWIDTH 1000 0
DWIDTH 13 0
BBX 12 12 0 -1
BITMAP 
0100
0080
F240
9240
9420
9420
9910
9100
F280
0240
04A0
0720
ENDCHAR
STARTCHAR U_356D
ENCODING 13677
SWIDTH 1000 0
DWIDTH 13 0
BBX 12 12 0 -1
BITMAP 
0060
0180
F680
9080
9080
9FF0
9080
9140
9140
F220
0420
0810
ENDCHAR
STARTCHAR U_356E
ENCODING 13678
SWIDTH 1000 0
DWIDTH 13 0
BBX 12 12 0 -1
BITMAP 
0280
0240
F420
9A50
9240
9180
9180
9180
9240
F240
0420
0810
ENDCHAR
STARTCHAR U_356F
ENCODING 13679
SWIDTH 1000 0
DWIDTH 13 0
BBX 12 12 0 -1
BITMAP 
0800
0400
7FE0
4620
4920
50A0
7FE0
50A0
50A0
5FA0
40A0
4060
ENDCHAR
STARTCHAR U_3570
ENCODING 13680
SWIDTH 1000 0
DWIDTH 13 0
BBX 12 12 0 -1
BITMAP 
0060
0380
F080
9080
97F0
9080
9080
9FF0
F080
0080
0090
00F0
ENDCHAR
STARTCHAR U_3571
ENCODING 13681
SWIDTH 1000 0
DWIDTH 13 0
BBX 12 12 0 -1
BITMAP 
0140
F120
9FF0
9100
9100
9180
9280
9280
9280
F490
0490
1870
ENDCHAR
STARTCHAR U_3572
ENCODING 13682
SWIDTH 1000 0
DWIDTH 13 0
BBX 12 12 0 -1
BITMAP 
0100
0100
F100
9FF0
9100
9380
9380
9540
F540
0520
1910
0100
ENDCHAR
STARTCHAR U_3573
ENCODING 13683
SWIDTH 1000 0
DWIDTH 13 0
BBX 12 12 0 -1
BITMAP 
0010
0450
F550
9550
9550
9550
9490
9490
F490
0550
07F0
0010
ENDCHAR
STARTCHAR U_3574
ENCODING 13684
SWIDTH 1000 0
DWIDTH 13 0
BBX 12 12 0 -1
BITMAP 
0FF0
0810
FBD0
9240
9240
9240
9240
9240
F240
9240
0450
1830
ENDCHAR
STARTCHAR U_3575
ENCODING 13685
SWIDTH 1000 0
DWIDTH 13 0
BBX 12 12 0 -1
BITMAP 
0FE0
0100
F100
9100
9100
97C0
9100
9100
9100
F100
0100
1FF0
ENDCHAR
STARTCHAR U_3576
ENCODING 13686
SWIDTH 1000 0
DWIDTH 13 0
BBX 12 12 0 -1
BITMAP 
07E0
0100
F100
9100
97E0
9120
9120
9220
F220
9220
0220
0FF0
ENDCHAR
STARTCHAR U_3577
ENCODING 13687
SWIDTH 1000 0
DWIDTH 13 0
BBX 12 12 0 -1
BITMAP 
0080
0100
FBF0
8A10
8A10
8A10
8BF0
8A10
FA10
8A10
03F0
0210
ENDCHAR
STARTCHAR U_3578
ENCODING 13688
SWIDTH 1000 0
DWIDTH 13 0
BBX 12 12 0 -1
BITMAP 
0100
0080
F080
9FF0
9000
9420
9420
9220
F240
9240
0080
1FF0
ENDCHAR
STARTCHAR U_3579
ENCODING 13689
SWIDTH 1000 0
DWIDTH 13 0
BBX 12 12 0 -1
BITMAP 
0280
0240
F200
9FF0
9200
9220
9320
9540
9480
F480
0940
1630
ENDCHAR
STARTCHAR U_357A
ENCODING 13690
SWIDTH 1000 0
DWIDTH 13 0
BBX 12 12 0 -1
BITMAP 
79E0
4920
4920
79E0
0000
FFF0
1000
1000
3FC0
0040
0040
0180
ENDCHAR
STARTCHAR U_357B
ENCODING 13691
SWIDTH 1000 0
DWIDTH 13 0
BBX 12 12 0 -1
BITMAP 
0400
0200
FFF0
0200
0E40
3220
C210
0200
3FE0
2020
2020
3FE0
ENDCHAR
STARTCHAR U_357C
ENCODING 13692
SWIDTH 1000 0
DWIDTH 13 0
BBX 12 12 0 -1
BITMAP 
0200
F3F0
9410
9950
9490
9490
9490
9550
F410
97D0
0010
0030
ENDCHAR
STARTCHAR U_357D
ENCODING 13693
SWIDTH 1000 0
DWIDTH 13 0
BBX 12 12 0 -1
BITMAP 
0040
0840
E840
AC40
AA40
A840
A880
AA80
ECC0
0920
0110
0610
ENDCHAR
STARTCHAR U_357E
ENCODING 13694
SWIDTH 1000 0
DWIDTH 13 0
BBX 12 12 0 -1
BITMAP 
0400
0400
1500
24C0
C430
0400
0000
7D30
45C0
4500
7D10
45F0
ENDCHAR
STARTCHAR U_357F
ENCODING 13695
SWIDTH 1000 0
DWIDTH 13 0
BBX 12 12 0 -1
BITMAP 
03C0
7C00
0400
FFF0
0E00
1500
24C0
C430
3FC0
2040
2040
3FC0
ENDCHAR
STARTCHAR U_3580
ENCODING 13696
SWIDTH 1000 0
DWIDTH 13 0
BBX 12 12 0 -1
BITMAP 
0100
07E0
F120
9FF0
9120
97E0
9100
97E0
9100
F7F0
0100
0100
ENDCHAR
STARTCHAR U_3581
ENCODING 13697
SWIDTH 1000 0
DWIDTH 13 0
BBX 12 12 0 -1
BITMAP 
0610
01A0
F0C0
9320
9490
9080
97F0
9100
F240
9480
0920
03F0
ENDCHAR
STARTCHAR U_3582
ENCODING 13698
SWIDTH 1000 0
DWIDTH 13 0
BBX 12 12 0 -1
BITMAP 
0080
0080
F7F0
9490
97F0
9490
97F0
90A0
F040
90D0
0130
0610
ENDCHAR
STARTCHAR U_3583
ENCODING 13699
SWIDTH 1000 0
DWIDTH 13 0
BBX 12 12 0 -1
BITMAP 
0060
0780
F400
9400
97F0
9400
9400
95F0
F510
9510
05F0
0910
ENDCHAR
STARTCHAR U_3584
ENCODING 13700
SWIDTH 1000 0
DWIDTH 13 0
BBX 12 12 0 -1
BITMAP 
0410
0490
F490
9490
9490
9ED0
95B0
9490
F490
9490
0890
1010
ENDCHAR
STARTCHAR U_3585
ENCODING 13701
SWIDTH 1000 0
DWIDTH 13 0
BBX 12 12 0 -1
BITMAP 
0050
0040
F7F0
9440
9450
9750
9460
9440
F440
8850
08B0
1310
ENDCHAR
STARTCHAR U_3586
ENCODING 13702
SWIDTH 1000 0
DWIDTH 13 0
BBX 12 12 0 -1
BITMAP 
0140
0140
F7F0
9550
9550
9550
97F0
9550
F550
9550
07F0
0410
ENDCHAR
STARTCHAR U_3587
ENCODING 13703
SWIDTH 1000 0
DWIDTH 13 0
BBX 12 12 0 -1
BITMAP 
07F0
0080
0100
F7F0
9550
9550
9550
9550
9550
F550
0410
0430
ENDCHAR
STARTCHAR U_3588
ENCODING 13704
SWIDTH 1000 0
DWIDTH 13 0
BBX 12 12 0 -1
BITMAP 
0400
3FC0
0500
FFF0
0200
0CC0
3B00
4840
1FC0
1040
1040
1FC0
ENDCHAR
STARTCHAR U_3589
ENCODING 13705
SWIDTH 1000 0
DWIDTH 13 0
BBX 12 12 0 -1
BITMAP 
0100
0280
F440
9930
9100
9100
95E0
9500
F500
9500
0500
0FF0
ENDCHAR
STARTCHAR U_358A
ENCODING 13706
SWIDTH 1000 0
DWIDTH 13 0
BBX 12 12 0 -1
BITMAP 
0FC0
0040
E7C0
A040
AFC0
A080
BFF0
A080
E880
8480
0080
0180
ENDCHAR
STARTCHAR U_358B
ENCODING 13707
SWIDTH 1000 0
DWIDTH 13 0
BBX 12 12 0 -1
BITMAP 
0400
0A00
1100
31C0
D130
1100
2100
0000
7A60
4B80
4A10
79F0
ENDCHAR
STARTCHAR U_358C
ENCODING 13708
SWIDTH 1000 0
DWIDTH 13 0
BBX 12 12 0 -1
BITMAP 
1200
2FC0
6240
A240
2450
2830
0000
7D30
45C0
4500
7D10
44F0
ENDCHAR
STARTCHAR U_358D
ENCODING 13709
SWIDTH 1000 0
DWIDTH 13 0
BBX 12 12 0 -1
BITMAP 
1100
4900
2100
03F0
FD00
0100
0100
0000
7D30
45C0
4510
7CF0
ENDCHAR
STARTCHAR U_358E
ENCODING 13710
SWIDTH 1000 0
DWIDTH 13 0
BBX 12 12 0 -1
BITMAP 
7A40
4B80
4A20
79E0
0400
0A00
3180
C060
1100
1100
1100
2100
ENDCHAR
STARTCHAR U_358F
ENCODING 13711
SWIDTH 1000 0
DWIDTH 13 0
BBX 12 12 0 -1
BITMAP 
07E0
0420
F7E0
9420
9420
97E0
9000
9100
97E0
F100
0100
0FF0
ENDCHAR
STARTCHAR U_3590
ENCODING 13712
SWIDTH 1000 0
DWIDTH 13 0
BBX 12 12 0 -1
BITMAP 
79E0
4920
79E0
0000
3FC0
0440
FFF0
0440
3FC0
0400
0800
3000
ENDCHAR
STARTCHAR U_3591
ENCODING 13713
SWIDTH 1000 0
DWIDTH 13 0
BBX 12 12 0 -1
BITMAP 
0060
0050
EFF0
A040
A550
A550
AFD0
A560
E560
0950
10B0
0310
ENDCHAR
STARTCHAR U_3592
ENCODING 13714
SWIDTH 1000 0
DWIDTH 13 0
BBX 12 12 0 -1
BITMAP 
0440
0280
EFE0
A120
AFE0
A900
AFF0
A310
E310
A550
0920
1100
ENDCHAR
STARTCHAR U_3593
ENCODING 13715
SWIDTH 1000 0
DWIDTH 13 0
BBX 12 12 0 -1
BITMAP 
0100
03C0
E640
A980
B380
AD70
A7E0
B100
E7C0
A100
0FE0
0100
ENDCHAR
STARTCHAR U_3594
ENCODING 13716
SWIDTH 1000 0
DWIDTH 13 0
BBX 12 12 0 -1
BITMAP 
0000
07C0
E100
AFE0
A280
A440
A820
B7D0
E440
A440
07C0
0440
ENDCHAR
STARTCHAR U_3595
ENCODING 13717
SWIDTH 1000 0
DWIDTH 13 0
BBX 12 12 0 -1
BITMAP 
0100
0080
F7F0
9220
9120
9140
97F0
9080
F080
93E0
0080
0080
ENDCHAR
STARTCHAR U_3596
ENCODING 13718
SWIDTH 1000 0
DWIDTH 13 0
BBX 12 12 0 -1
BITMAP 
0400
7FE0
1080
0900
FFF0
0400
7FC0
0400
3FC0
2040
2040
3FC0
ENDCHAR
STARTCHAR U_3597
ENCODING 13719
SWIDTH 1000 0
DWIDTH 13 0
BBX 12 12 0 -1
BITMAP 
0100
0920
EFE0
A100
A280
A440
BBB0
A000
E7C0
A040
0080
0100
ENDCHAR
STARTCHAR U_3598
ENCODING 13720
SWIDTH 1000 0
DWIDTH 13 0
BBX 12 12 0 -1
BITMAP 
07F0
0400
E7E0
A400
A7F0
A540
A540
A550
E560
A940
09A0
1110
ENDCHAR
STARTCHAR U_3599
ENCODING 13721
SWIDTH 1000 0
DWIDTH 13 0
BBX 12 12 0 -1
BITMAP 
2000
FDF0
2510
2510
4510
8DF0
0000
FA20
8A40
8B80
8A10
FBF0
ENDCHAR
STARTCHAR U_359A
ENCODING 13722
SWIDTH 1000 0
DWIDTH 13 0
BBX 12 12 0 -1
BITMAP 
0840
13F0
3240
D140
1040
10C0
7D00
4520
4540
4580
7D10
45E0
ENDCHAR
STARTCHAR U_359B
ENCODING 13723
SWIDTH 1000 0
DWIDTH 13 0
BBX 12 12 0 -1
BITMAP 
0400
7FE0
0800
3FC0
2040
3FC0
0000
7D20
4540
4580
4510
7DF0
ENDCHAR
STARTCHAR U_359C
ENCODING 13724
SWIDTH 1000 0
DWIDTH 13 0
BBX 12 12 0 -1
BITMAP 
0400
0200
7FE0
0000
3FC0
2040
3FC0
0000
7D20
45C0
4510
7DF0
ENDCHAR
STARTCHAR U_359D
ENCODING 13725
SWIDTH 1000 0
DWIDTH 13 0
BBX 12 12 0 -1
BITMAP 
0400
3F80
0400
FFE0
0E00
3580
C470
7D20
4540
4580
7D10
45F0
ENDCHAR
STARTCHAR U_359E
ENCODING 13726
SWIDTH 1000 0
DWIDTH 13 0
BBX 12 12 0 -1
BITMAP 
07E0
0420
E420
A7E0
A100
A100
AFF0
A910
E990
AA50
0C50
0820
ENDCHAR
STARTCHAR U_359F
ENCODING 13727
SWIDTH 1000 0
DWIDTH 13 0
BBX 12 12 0 -1
BITMAP 
0040
0180
E620
A520
A2C0
AFF0
A810
B3E0
E140
A080
0140
0630
ENDCHAR
STARTCHAR U_35A0
ENCODING 13728
SWIDTH 1000 0
DWIDTH 13 0
BBX 12 12 0 -1
BITMAP 
0100
0100
EFE0
A280
A440
ABA0
A000
AFE0
E100
0540
0920
1310
ENDCHAR
STARTCHAR U_35A1
ENCODING 13729
SWIDTH 1000 0
DWIDTH 13 0
BBX 12 12 0 -1
BITMAP 
0100
EFF0
A480
A4E0
A920
B9A0
AA40
AD40
E880
A940
0A20
0C10
ENDCHAR
STARTCHAR U_35A2
ENCODING 13730
SWIDTH 1000 0
DWIDTH 13 0
BBX 12 12 0 -1
BITMAP 
0100
0080
EFF0
A940
A940
A940
A9D0
ED60
AB40
09C0
0B50
1270
ENDCHAR
STARTCHAR U_35A3
ENCODING 13731
SWIDTH 1000 0
DWIDTH 13 0
BBX 12 12 0 -1
BITMAP 
0200
0100
EFF0
A420
A240
AFF0
A000
A7E0
E420
A420
07E0
0420
ENDCHAR
STARTCHAR U_35A4
ENCODING 13732
SWIDTH 1000 0
DWIDTH 13 0
BBX 12 12 0 -1
BITMAP 
0000
07C0
E080
A920
AD60
ABA0
A920
EBA0
AD60
0920
0FE0
0000
ENDCHAR
STARTCHAR U_35A5
ENCODING 13733
SWIDTH 1000 0
DWIDTH 13 0
BBX 12 12 0 -1
BITMAP 
0000
0FE0
E860
AFA0
A920
AFE0
A920
ABA0
ED60
A920
0820
0FE0
ENDCHAR
STARTCHAR U_35A6
ENCODING 13734
SWIDTH 1000 0
DWIDTH 13 0
BBX 12 12 0 -1
BITMAP 
0100
E100
BFF0
A100
AFE0
A920
AFE0
E920
AFE0
0380
0D40
1130
ENDCHAR
STARTCHAR U_35A7
ENCODING 13735
SWIDTH 1000 0
DWIDTH 13 0
BBX 12 12 0 -1
BITMAP 
00E0
0F00
E880
AFE0
A880
AE60
A000
AFE0
E820
AFE0
0820
0FE0
ENDCHAR
STARTCHAR U_35A8
ENCODING 13736
SWIDTH 1000 0
DWIDTH 13 0
BBX 12 12 0 -1
BITMAP 
07E0
E020
A7E0
A020
AFF0
A100
A920
E540
A180
0540
0930
0300
ENDCHAR
STARTCHAR U_35A9
ENCODING 13737
SWIDTH 1000 0
DWIDTH 13 0
BBX 12 12 0 -1
BITMAP 
1F00
EAE0
AAA0
AEA0
AAA0
AEA0
AAA0
EA40
AE40
0AA0
12A0
0310
ENDCHAR
STARTCHAR U_35AA
ENCODING 13738
SWIDTH 1000 0
DWIDTH 13 0
BBX 12 12 0 -1
BITMAP 
0040
F050
9FF0
9040
9740
9550
9550
9760
F040
8350
0CB0
0310
ENDCHAR
STARTCHAR U_35AB
ENCODING 13739
SWIDTH 1000 0
DWIDTH 13 0
BBX 12 12 0 -1
BITMAP 
0100
07C0
E100
AFE0
A440
A920
B3D0
A440
EA80
A100
0280
0C60
ENDCHAR
STARTCHAR U_35AC
ENCODING 13740
SWIDTH 1000 0
DWIDTH 13 0
BBX 12 12 0 -1
BITMAP 
0100
0610
7410
5770
5410
57F0
5000
77F0
5220
0140
01C0
0630
ENDCHAR
STARTCHAR U_35AD
ENCODING 13741
SWIDTH 1000 0
DWIDTH 13 0
BBX 12 12 0 -1
BITMAP 
0000
07E0
E100
A100
AFF0
A240
A430
A900
E5A0
A550
0950
0300
ENDCHAR
STARTCHAR U_35AE
ENCODING 13742
SWIDTH 1000 0
DWIDTH 13 0
BBX 12 12 0 -1
BITMAP 
0080
0180
F240
9420
9BD0
9000
97F0
F550
97F0
0550
0550
0430
ENDCHAR
STARTCHAR U_35AF
ENCODING 13743
SWIDTH 1000 0
DWIDTH 13 0
BBX 12 12 0 -1
BITMAP 
7FE0
4020
5FA0
4920
4F20
4060
0100
7D20
4540
4580
7D20
45E0
ENDCHAR
STARTCHAR U_35B0
ENCODING 13744
SWIDTH 1000 0
DWIDTH 13 0
BBX 12 12 0 -1
BITMAP 
FD20
85C0
8510
FCF0
0000
FFF0
8010
BF90
8010
BF90
A090
BFB0
ENDCHAR
STARTCHAR U_35B1
ENCODING 13745
SWIDTH 1000 0
DWIDTH 13 0
BBX 12 12 0 -1
BITMAP 
0400
FFF0
1200
27E0
ED40
2480
2300
2CE0
0000
7FE0
4020
7FE0
ENDCHAR
STARTCHAR U_35B2
ENCODING 13746
SWIDTH 1000 0
DWIDTH 13 0
BBX 12 12 0 -1
BITMAP 
2000
21F0
FF10
2910
4910
31F0
CC00
0130
7DC0
4510
4510
7CF0
ENDCHAR
STARTCHAR U_35B3
ENCODING 13747
SWIDTH 1000 0
DWIDTH 13 0
BBX 12 12 0 -1
BITMAP 
4100
2100
8FF0
5240
2640
C180
4660
4130
7DC0
4510
4510
7CF0
ENDCHAR
STARTCHAR U_35B4
ENCODING 13748
SWIDTH 1000 0
DWIDTH 13 0
BBX 12 12 0 -1
BITMAP 
0240
0FF0
F240
9000
9200
93F0
9550
F950
9290
0490
0150
0620
ENDCHAR
STARTCHAR U_35B5
ENCODING 13749
SWIDTH 1000 0
DWIDTH 13 0
BBX 12 12 0 -1
BITMAP 
07E0
F420
97E0
9420
97E0
9420
97E0
9420
FFF0
0000
0240
0420
ENDCHAR
STARTCHAR U_35B6
ENCODING 13750
SWIDTH 1000 0
DWIDTH 13 0
BBX 12 12 0 -1
BITMAP 
0000
1FF0
0280
EFE0
AAA0
ACE0
A820
AFE0
E100
07C0
0100
1FF0
ENDCHAR
STARTCHAR U_35B7
ENCODING 13751
SWIDTH 1000 0
DWIDTH 13 0
BBX 12 12 0 -1
BITMAP 
03E0
0220
F3E0
9220
93E0
9000
9FF0
9080
F2E0
0280
0580
1870
ENDCHAR
STARTCHAR U_35B8
ENCODING 13752
SWIDTH 1000 0
DWIDTH 13 0
BBX 12 12 0 -1
BITMAP 
0080
00E0
F080
97F0
9480
97E0
9480
95E0
F500
97F0
0500
09E0
ENDCHAR
STARTCHAR U_35B9
ENCODING 13753
SWIDTH 1000 0
DWIDTH 13 0
BBX 12 12 0 -1
BITMAP 
0080
0280
E440
ABE0
B150
A240
A4C0
A800
EFE0
AAA0
0AA0
1FF0
ENDCHAR
STARTCHAR U_35BA
ENCODING 13754
SWIDTH 1000 0
DWIDTH 13 0
BBX 12 12 0 -1
BITMAP 
0100
07E0
E100
A7C0
A100
AFF0
A240
A7E0
FA50
A3C0
0240
03C0
ENDCHAR
STARTCHAR U_35BB
ENCODING 13755
SWIDTH 1000 0
DWIDTH 13 0
BBX 12 12 0 -1
BITMAP 
07C0
0280
E100
BFF0
A290
A480
AB80
A100
FFF0
A380
0540
0920
ENDCHAR
STARTCHAR U_35BC
ENCODING 13756
SWIDTH 1000 0
DWIDTH 13 0
BBX 12 12 0 -1
BITMAP 
0440
1FF0
E440
A7C0
A440
A7C0
A100
BFF0
E380
A540
0920
1110
ENDCHAR
STARTCHAR U_35BD
ENCODING 13757
SWIDTH 1000 0
DWIDTH 13 0
BBX 12 12 0 -1
BITMAP 
07F0
0100
F7F0
9410
97F0
9410
97F0
9410
F7F0
9000
0220
0410
ENDCHAR
STARTCHAR U_35BE
ENCODING 13758
SWIDTH 1000 0
DWIDTH 13 0
BBX 12 12 0 -1
BITMAP 
79E0
4920
79E0
2040
1080
FFF0
0400
2440
2440
3FC0
0800
3000
ENDCHAR
STARTCHAR U_35BF
ENCODING 13759
SWIDTH 1000 0
DWIDTH 13 0
BBX 12 12 0 -1
BITMAP 
0FF0
0550
F550
9760
9550
9750
B550
9550
FF70
9140
0140
0140
ENDCHAR
STARTCHAR U_35C0
ENCODING 13760
SWIDTH 1000 0
DWIDTH 13 0
BBX 12 12 0 -1
BITMAP 
0100
0100
EB50
AD50
ADB0
AFF0
AB50
AD90
EDB0
AFF0
0910
0FF0
ENDCHAR
STARTCHAR U_35C1
ENCODING 13761
SWIDTH 1000 0
DWIDTH 13 0
BBX 12 12 0 -1
BITMAP 
0770
0550
F770
9000
93E0
9000
97F0
9100
F3E0
9020
00A0
0040
ENDCHAR
STARTCHAR U_35C2
ENCODING 13762
SWIDTH 1000 0
DWIDTH 13 0
BBX 12 12 0 -1
BITMAP 
0540
0520
E510
A950
B180
A7E0
BA20
A3E0
E220
A3E0
0220
03E0
ENDCHAR
STARTCHAR U_35C3
ENCODING 13763
SWIDTH 1000 0
DWIDTH 13 0
BBX 12 12 0 -1
BITMAP 
0FE0
0820
EFE0
A880
AFF0
A880
AC50
A7E0
E440
A7C0
0440
07C0
ENDCHAR
STARTCHAR U_35C4
ENCODING 13764
SWIDTH 1000 0
DWIDTH 13 0
BBX 12 12 0 -1
BITMAP 
0FE0
0AA0
EFE0
A200
A100
AFF0
A200
A3E0
E220
A420
04A0
0840
ENDCHAR
STARTCHAR U_35C5
ENCODING 13765
SWIDTH 1000 0
DWIDTH 13 0
BBX 12 12 0 -1
BITMAP 
0400
04F0
E490
BF90
A4F0
A490
AE90
AAF0
EA90
AE90
0110
0230
ENDCHAR
STARTCHAR U_35C6
ENCODING 13766
SWIDTH 1000 0
DWIDTH 13 0
BBX 12 12 0 -1
BITMAP 
0440
0FE0
E440
A7C0
A100
AFE0
A920
AFE0
E100
BFF0
0100
0100
ENDCHAR
STARTCHAR U_35C7
ENCODING 13767
SWIDTH 1000 0
DWIDTH 13 0
BBX 12 12 0 -1
BITMAP 
0F70
E910
A910
AF70
A800
A870
AF50
A850
A820
EF20
0850
0890
ENDCHAR
STARTCHAR U_35C8
ENCODING 13768
SWIDTH 1000 0
DWIDTH 13 0
BBX 12 12 0 -1
BITMAP 
0FE0
0140
E080
AFF0
A910
AFF0
A910
AFF0
E910
BFF0
0210
0C60
ENDCHAR
STARTCHAR U_35C9
ENCODING 13769
SWIDTH 1000 0
DWIDTH 13 0
BBX 12 12 0 -1
BITMAP 
2000
F9F0
2090
7490
2790
F8A0
2900
0600
1980
FFF0
1080
1F80
ENDCHAR
STARTCHAR U_35CA
ENCODING 13770
SWIDTH 1000 0
DWIDTH 13 0
BBX 12 12 0 -1
BITMAP 
0000
FBE0
8A20
8A20
FBE0
8A20
0000
FBE0
8A20
8A20
FBE0
8A20
ENDCHAR
STARTCHAR U_35CB
ENCODING 13771
SWIDTH 1000 0
DWIDTH 13 0
BBX 12 12 0 -1
BITMAP 
0080
01E0
F240
97F0
9500
95F0
9640
9440
F7F0
04C0
0920
1210
ENDCHAR
STARTCHAR U_35CC
ENCODING 13772
SWIDTH 1000 0
DWIDTH 13 0
BBX 12 12 0 -1
BITMAP 
0100
0080
F7F0
9410
93E0
9100
9220
97F0
F080
93E0
0080
07F0
ENDCHAR
STARTCHAR U_35CD
ENCODING 13773
SWIDTH 1000 0
DWIDTH 13 0
BBX 12 12 0 -1
BITMAP 
0060
0780
F080
97F0
91C0
92A0
9C90
93E0
F220
93E0
0220
03E0
ENDCHAR
STARTCHAR U_35CE
ENCODING 13774
SWIDTH 1000 0
DWIDTH 13 0
BBX 12 12 0 -1
BITMAP 
0400
EF70
A550
A550
A550
AB70
A080
AFF0
E1C0
A2A0
0C90
0080
ENDCHAR
STARTCHAR U_35CF
ENCODING 13775
SWIDTH 1000 0
DWIDTH 13 0
BBX 12 12 0 -1
BITMAP 
07F0
0080
F180
92A0
9490
9080
97F0
9080
F2E0
9280
0280
0FF0
ENDCHAR
STARTCHAR U_35D0
ENCODING 13776
SWIDTH 1000 0
DWIDTH 13 0
BBX 12 12 0 -1
BITMAP 
0100
E100
AFE0
A280
A440
A920
B090
E000
AFE0
0AA0
0AA0
1FF0
ENDCHAR
STARTCHAR U_35D1
ENCODING 13777
SWIDTH 1000 0
DWIDTH 13 0
BBX 12 12 0 -1
BITMAP 
0600
19F0
E440
A4E0
AE40
A4E0
A640
EDF0
9440
0440
0840
1040
ENDCHAR
STARTCHAR U_35D2
ENCODING 13778
SWIDTH 1000 0
DWIDTH 13 0
BBX 12 12 0 -1
BITMAP 
0080
0FF0
F000
97E0
9420
97E0
9110
F2A0
9640
0A40
02A0
0310
ENDCHAR
STARTCHAR U_35D3
ENCODING 13779
SWIDTH 1000 0
DWIDTH 13 0
BBX 12 12 0 -1
BITMAP 
0040
0880
E5E0
A520
A1E0
BD00
A5F0
A510
E510
A5F0
0A00
11F0
ENDCHAR
STARTCHAR U_35D4
ENCODING 13780
SWIDTH 1000 0
DWIDTH 13 0
BBX 12 12 0 -1
BITMAP 
01E0
0100
77F0
5510
57E0
5500
55F0
5440
77F0
5520
04C0
0B30
ENDCHAR
STARTCHAR U_35D5
ENCODING 13781
SWIDTH 1000 0
DWIDTH 13 0
BBX 12 12 0 -1
BITMAP 
0440
1FE0
E440
AFE0
A440
BFF0
A920
EFE0
A920
1FF0
0820
0860
ENDCHAR
STARTCHAR U_35D6
ENCODING 13782
SWIDTH 1000 0
DWIDTH 13 0
BBX 12 12 0 -1
BITMAP 
0000
00E0
EF00
A520
A540
A000
AE70
A810
EE70
A810
0FF0
0810
ENDCHAR
STARTCHAR U_35D7
ENCODING 13783
SWIDTH 1000 0
DWIDTH 13 0
BBX 12 12 0 -1
BITMAP 
0200
F7E0
94A0
97E0
F520
47E0
F200
5480
5FF0
5080
5080
B080
ENDCHAR
STARTCHAR U_35D8
ENCODING 13784
SWIDTH 1000 0
DWIDTH 13 0
BBX 12 12 0 -1
BITMAP 
0140
0FF0
E520
A7E0
A520
A7E0
A540
BFF0
E440
A240
0040
01C0
ENDCHAR
STARTCHAR U_35D9
ENCODING 13785
SWIDTH 1000 0
DWIDTH 13 0
BBX 12 12 0 -1
BITMAP 
0400
07F0
E910
A550
A7D0
A220
A7F0
E810
B550
07D0
0110
0620
ENDCHAR
STARTCHAR U_35DA
ENCODING 13786
SWIDTH 1000 0
DWIDTH 13 0
BBX 12 12 0 -1
BITMAP 
0FE0
E280
AFE0
AAA0
AAA0
AFE0
A100
FFF0
A380
0540
0920
1110
ENDCHAR
STARTCHAR U_35DB
ENCODING 13787
SWIDTH 1000 0
DWIDTH 13 0
BBX 12 12 0 -1
BITMAP 
0440
E770
AAA0
B000
A0E0
A700
A100
EFF0
A100
0280
0440
1830
ENDCHAR
STARTCHAR U_35DC
ENCODING 13788
SWIDTH 1000 0
DWIDTH 13 0
BBX 12 12 0 -1
BITMAP 
0100
1FF0
E140
A680
A140
A7E0
A000
AFE0
E920
AFE0
0920
0FE0
ENDCHAR
STARTCHAR U_35DD
ENCODING 13789
SWIDTH 1000 0
DWIDTH 13 0
BBX 12 12 0 -1
BITMAP 
0440
0280
EFE0
A100
A100
A7C0
E100
AFE0
0000
0AA0
1150
0000
ENDCHAR
STARTCHAR U_35DE
ENCODING 13790
SWIDTH 1000 0
DWIDTH 13 0
BBX 12 12 0 -1
BITMAP 
0000
1C40
0BF0
EE50
BA40
ABF0
AB10
EAA0
AE40
0240
04A0
0910
ENDCHAR
STARTCHAR U_35DF
ENCODING 13791
SWIDTH 1000 0
DWIDTH 13 0
BBX 12 12 0 -1
BITMAP 
0100
6080
0FF0
6080
17E0
6080
2FF0
0120
7D40
4580
7D10
45F0
ENDCHAR
STARTCHAR U_35E0
ENCODING 13792
SWIDTH 1000 0
DWIDTH 13 0
BBX 12 12 0 -1
BITMAP 
1080
1120
FBF0
2800
2BF0
1210
6BF0
0000
3A70
2B80
3A00
2BF0
ENDCHAR
STARTCHAR U_35E1
ENCODING 13793
SWIDTH 1000 0
DWIDTH 13 0
BBX 12 12 0 -1
BITMAP 
1080
7FE0
0900
1780
3280
52E0
1420
1060
3D00
25C0
3D20
25E0
ENDCHAR
STARTCHAR U_35E2
ENCODING 13794
SWIDTH 1000 0
DWIDTH 13 0
BBX 12 12 0 -1
BITMAP 
1E40
0840
FF40
AAF0
BE50
AA50
BE50
A850
FE50
A890
0ED0
3920
ENDCHAR
STARTCHAR U_35E3
ENCODING 13795
SWIDTH 1000 0
DWIDTH 13 0
BBX 12 12 0 -1
BITMAP 
04A0
EFF0
A4A0
ABB0
A000
AFF0
A910
A7E0
E520
A520
0560
0100
ENDCHAR
STARTCHAR U_35E4
ENCODING 13796
SWIDTH 1000 0
DWIDTH 13 0
BBX 12 12 0 -1
BITMAP 
00A0
7FF0
4880
4EA0
48A0
7F40
4840
AAD0
5930
7FE0
4020
7FE0
ENDCHAR
STARTCHAR U_35E5
ENCODING 13797
SWIDTH 1000 0
DWIDTH 13 0
BBX 12 12 0 -1
BITMAP 
0200
0F70
E050
AF50
A960
AF50
A050
AF50
E250
1FE0
0440
0C40
ENDCHAR
STARTCHAR U_35E6
ENCODING 13798
SWIDTH 1000 0
DWIDTH 13 0
BBX 12 12 0 -1
BITMAP 
7C80
2B30
EA20
BAA0
AAA0
AAA0
BAA0
EBA0
AEB0
78A0
0920
0A20
ENDCHAR
STARTCHAR U_35E7
ENCODING 13799
SWIDTH 1000 0
DWIDTH 13 0
BBX 12 12 0 -1
BITMAP 
0100
0FF0
EA50
A420
AFF0
A200
A420
A7F0
E080
A7E0
0080
0FF0
ENDCHAR
STARTCHAR U_35E8
ENCODING 13800
SWIDTH 1000 0
DWIDTH 13 0
BBX 12 12 0 -1
BITMAP 
FDE0
A120
BD20
D230
BDE0
9120
A8C0
FD30
0000
7FE0
4020
7FE0
ENDCHAR
STARTCHAR U_35E9
ENCODING 13801
SWIDTH 1000 0
DWIDTH 13 0
BBX 12 12 0 -1
BITMAP 
0F70
0110
F550
9330
9550
9110
9080
97F0
F410
97F0
0410
07F0
ENDCHAR
STARTCHAR U_35EA
ENCODING 13802
SWIDTH 1000 0
DWIDTH 13 0
BBX 12 12 0 -1
BITMAP 
0150
E5E0
A540
A5D0
AF30
A240
A780
A120
EFF0
A080
04A0
0990
ENDCHAR
STARTCHAR U_35EB
ENCODING 13803
SWIDTH 1000 0
DWIDTH 13 0
BBX 12 12 0 -1
BITMAP 
0840
0F70
E950
B550
A620
AC50
B3C0
A000
EFF0
A080
04A0
0990
ENDCHAR
STARTCHAR U_35EC
ENCODING 13804
SWIDTH 1000 0
DWIDTH 13 0
BBX 12 12 0 -1
BITMAP 
1240
7FF0
5050
1FC0
0400
0F80
3300
0C80
73E0
0C40
0380
3C00
ENDCHAR
STARTCHAR U_35ED
ENCODING 13805
SWIDTH 1000 0
DWIDTH 13 0
BBX 12 12 0 -1
BITMAP 
00E0
0F00
E920
A540
AFF0
A380
A540
A930
E000
AA80
0A50
11D0
ENDCHAR
STARTCHAR U_35EE
ENCODING 13806
SWIDTH 1000 0
DWIDTH 13 0
BBX 12 12 0 -1
BITMAP 
4080
7BF0
8A80
4BE0
52A0
23F0
7AA0
CBE0
4A80
4A80
7D40
0630
ENDCHAR
STARTCHAR U_35EF
ENCODING 13807
SWIDTH 1000 0
DWIDTH 13 0
BBX 12 12 0 -1
BITMAP 
0220
3FC0
0280
FFF0
1040
3FC0
D040
1FC0
0020
7DC0
4510
7CF0
ENDCHAR
STARTCHAR U_35F0
ENCODING 13808
SWIDTH 1000 0
DWIDTH 13 0
BBX 12 12 0 -1
BITMAP 
02A0
04A0
EAA0
A550
AC00
A440
A540
A570
A540
E5C0
0540
0630
ENDCHAR
STARTCHAR U_35F1
ENCODING 13809
SWIDTH 1000 0
DWIDTH 13 0
BBX 12 12 0 -1
BITMAP 
0480
EBF0
B880
ABE0
A880
ABE0
A080
AFF0
E1C0
A2A0
0490
0890
ENDCHAR
STARTCHAR U_35F2
ENCODING 13810
SWIDTH 1000 0
DWIDTH 13 0
BBX 12 12 0 -1
BITMAP 
0100
07E0
E120
AFF0
A120
AFF0
A540
A7C0
E540
A7C0
0000
0FF0
ENDCHAR
STARTCHAR U_35F3
ENCODING 13811
SWIDTH 1000 0
DWIDTH 13 0
BBX 12 12 0 -1
BITMAP 
0840
0E70
F520
A180
A240
A420
BBD0
A000
E7E0
A420
3760
07E0
ENDCHAR
STARTCHAR U_35F4
ENCODING 13812
SWIDTH 1000 0
DWIDTH 13 0
BBX 12 12 0 -1
BITMAP 
0E70
0A50
EE70
AA50
AE70
ABD0
AA50
ABD0
EA50
ABD0
0E50
0830
ENDCHAR
STARTCHAR U_35F5
ENCODING 13813
SWIDTH 1000 0
DWIDTH 13 0
BBX 12 12 0 -1
BITMAP 
0480
1580
EEF0
A550
AA40
B240
A440
B540
EEA0
A4A0
0B10
1210
ENDCHAR
STARTCHAR U_35F6
ENCODING 13814
SWIDTH 1000 0
DWIDTH 13 0
BBX 12 12 0 -1
BITMAP 
0F20
0950
E6A0
A440
B830
AEE0
A2A0
AEA0
E9F0
AEA0
0240
07B0
ENDCHAR
STARTCHAR U_35F7
ENCODING 13815
SWIDTH 1000 0
DWIDTH 13 0
BBX 12 12 0 -1
BITMAP 
0100
0FE0
EAA0
A7C0
A280
A7C0
A280
BFF0
E540
A540
0280
0C60
ENDCHAR
STARTCHAR U_35F8
ENCODING 13816
SWIDTH 1000 0
DWIDTH 13 0
BBX 12 12 0 -1
BITMAP 
0800
0900
F270
AF80
AA70
BFA0
AA20
AA20
EAA0
AFA0
0820
0860
ENDCHAR
STARTCHAR U_35F9
ENCODING 13817
SWIDTH 1000 0
DWIDTH 13 0
BBX 12 12 0 -1
BITMAP 
0480
0FF0
F880
AFE0
A880
AFE0
A880
AFF0
EA20
A910
1650
11E0
ENDCHAR
STARTCHAR U_35FA
ENCODING 13818
SWIDTH 1000 0
DWIDTH 13 0
BBX 12 12 0 -1
BITMAP 
07C0
0100
EFE0
A180
A240
A420
BA90
AEE0
E280
AEE0
0280
0EE0
ENDCHAR
STARTCHAR U_35FB
ENCODING 13819
SWIDTH 1000 0
DWIDTH 13 0
BBX 12 12 0 -1
BITMAP 
09F0
0510
E170
BD50
A7F0
AA10
AAF0
A690
EAF0
BA10
0600
01F0
ENDCHAR
STARTCHAR U_35FC
ENCODING 13820
SWIDTH 1000 0
DWIDTH 13 0
BBX 12 12 0 -1
BITMAP 
0AA0
06C0
E280
BFF0
A440
AFE0
A100
A7C0
E100
BFF0
0380
0D60
ENDCHAR
STARTCHAR U_35FD
ENCODING 13821
SWIDTH 1000 0
DWIDTH 13 0
BBX 12 12 0 -1
BITMAP 
2400
4F70
E950
4F60
E950
2F70
4A40
8D40
3FC0
2040
2040
3FC0
ENDCHAR
STARTCHAR U_35FE
ENCODING 13822
SWIDTH 1000 0
DWIDTH 13 0
BBX 12 12 0 -1
BITMAP 
14A0
3EA0
F4A0
BDA0
A8B0
BEA0
AAE0
BEA0
E8A0
BEA0
08A0
08B0
ENDCHAR
STARTCHAR U_35FF
ENCODING 13823
SWIDTH 1000 0
DWIDTH 13 0
BBX 12 12 0 -1
BITMAP 
0E70
0A50
EE70
AA50
AE70
ABD0
A850
EBD0
AAD0
0BD0
0850
08F0
ENDCHAR
STARTCHAR U_3600
ENCODING 13824
SWIDTH 1000 0
DWIDTH 13 0
BBX 12 12 0 -1
BITMAP 
0200
0770
7410
5770
5410
5770
5490
52A0
57F0
71C0
02A0
0490
ENDCHAR
STARTCHAR U_3601
ENCODING 13825
SWIDTH 1000 0
DWIDTH 13 0
BBX 12 12 0 -1
BITMAP 
0FE0
0AA0
EFE0
A100
A7C0
A100
AFE0
A280
E7C0
0100
0FE0
0100
ENDCHAR
STARTCHAR U_3602
ENCODING 13826
SWIDTH 1000 0
DWIDTH 13 0
BBX 12 12 0 -1
BITMAP 
0420
0240
0FF0
E220
A440
AAA0
A540
A990
EEE0
0100
1450
27D0
ENDCHAR
STARTCHAR U_3603
ENCODING 13827
SWIDTH 1000 0
DWIDTH 13 0
BBX 12 12 0 -1
BITMAP 
0240
0FF0
E100
AFF0
A200
A7E0
AA20
F3E0
A100
04A0
0A50
0BD0
ENDCHAR
STARTCHAR U_3604
ENCODING 13828
SWIDTH 1000 0
DWIDTH 13 0
BBX 12 12 0 -1
BITMAP 
0BF0
0A90
3E90
EBF0
A880
AC40
BBF0
E880
28F0
0910
0950
0A20
ENDCHAR
STARTCHAR U_3605
ENCODING 13829
SWIDTH 1000 0
DWIDTH 13 0
BBX 12 12 0 -1
BITMAP 
0500
0AB0
F440
A780
A970
BFA0
A920
EDA0
8B20
09A0
0F20
0860
ENDCHAR
STARTCHAR U_3606
ENCODING 13830
SWIDTH 1000 0
DWIDTH 13 0
BBX 12 12 0 -1
BITMAP 
0100
0FE0
E100
A7C0
A440
AFE0
A820
A7C0
E100
07C0
0100
0FE0
ENDCHAR
STARTCHAR U_3607
ENCODING 13831
SWIDTH 1000 0
DWIDTH 13 0
BBX 12 12 0 -1
BITMAP 
1550
0EE0
E440
AAA0
B110
AFF0
B110
EFE0
8100
0540
0920
1110
ENDCHAR
STARTCHAR U_3608
ENCODING 13832
SWIDTH 1000 0
DWIDTH 13 0
BBX 12 12 0 -1
BITMAP 
08F0
0F20
E840
A7F0
A850
AF40
B440
AF70
E540
0740
09C0
1230
ENDCHAR
STARTCHAR U_3609
ENCODING 13833
SWIDTH 1000 0
DWIDTH 13 0
BBX 12 12 0 -1
BITMAP 
0440
0F70
F4A0
A000
AF70
A950
AF50
E950
0F50
0870
0A40
0D40
ENDCHAR
STARTCHAR U_360A
ENCODING 13834
SWIDTH 1000 0
DWIDTH 13 0
BBX 12 12 0 -1
BITMAP 
07E0
0080
EFF0
A890
A2A0
AFF0
A000
A7E0
E000
A7E0
0420
07E0
ENDCHAR
STARTCHAR U_360B
ENCODING 13835
SWIDTH 1000 0
DWIDTH 13 0
BBX 12 12 0 -1
BITMAP 
0FF0
0A90
EFA0
A960
AF50
AA90
AFE0
A420
E7E0
0420
07E0
0810
ENDCHAR
STARTCHAR U_360C
ENCODING 13836
SWIDTH 1000 0
DWIDTH 13 0
BBX 12 12 0 -1
BITMAP 
0E10
0810
FF50
AA50
BF50
A050
BF50
A450
ED50
3610
2B10
54B0
ENDCHAR
STARTCHAR U_360D
ENCODING 13837
SWIDTH 1000 0
DWIDTH 13 0
BBX 12 12 0 -1
BITMAP 
0440
0E60
F550
A6F0
BA40
AF40
AA50
AF50
EA60
0F20
0A60
0F90
ENDCHAR
STARTCHAR U_360E
ENCODING 13838
SWIDTH 1000 0
DWIDTH 13 0
BBX 12 12 0 -1
BITMAP 
27F0
1010
EE90
A2F0
BF90
AAB0
AE50
EA50
3FB0
2210
2070
2020
ENDCHAR
STARTCHAR U_360F
ENCODING 13839
SWIDTH 1000 0
DWIDTH 13 0
BBX 12 12 0 -1
BITMAP 
8480
5FE0
0200
CFC0
4A40
4940
4FC0
7000
8FF0
3A40
2A90
3BE0
ENDCHAR
STARTCHAR U_3610
ENCODING 13840
SWIDTH 1000 0
DWIDTH 13 0
BBX 12 12 0 -1
BITMAP 
0040
0F20
EAF0
AF20
AAD0
AF00
AA90
AF50
E120
0D20
3150
0290
ENDCHAR
STARTCHAR U_3611
ENCODING 13841
SWIDTH 1000 0
DWIDTH 13 0
BBX 12 12 0 -1
BITMAP 
0440
1FF0
0450
EEF0
B550
AEF0
A040
BF50
E4E0
0F50
1440
04C0
ENDCHAR
STARTCHAR U_3612
ENCODING 13842
SWIDTH 1000 0
DWIDTH 13 0
BBX 12 12 0 -1
BITMAP 
1860
E380
2080
FFF0
22A0
73E0
A880
27F0
FA40
8B80
8A10
F9F0
ENDCHAR
STARTCHAR U_3613
ENCODING 13843
SWIDTH 1000 0
DWIDTH 13 0
BBX 12 12 0 -1
BITMAP 
0EF0
0A90
0EF0
EA90
AEF0
A910
AFD0
AD50
EFD0
0B90
0D50
0930
ENDCHAR
STARTCHAR U_3614
ENCODING 13844
SWIDTH 1000 0
DWIDTH 13 0
BBX 12 12 0 -1
BITMAP 
0100
1FF0
1290
E7C0
A280
AFE0
A440
AFE0
F550
07C0
0280
0C60
ENDCHAR
STARTCHAR U_3615
ENCODING 13845
SWIDTH 1000 0
DWIDTH 13 0
BBX 12 12 0 -1
BITMAP 
0240
1FF0
E240
AF40
AA70
AF40
A960
AF90
E000
0FE0
0AA0
1FF0
ENDCHAR
STARTCHAR U_3616
ENCODING 13846
SWIDTH 1000 0
DWIDTH 13 0
BBX 12 12 0 -1
BITMAP 
0400
1FF0
EA40
A4F0
AA90
BFF0
B490
BAF0
B490
FAF0
1460
2890
ENDCHAR
STARTCHAR U_3617
ENCODING 13847
SWIDTH 1000 0
DWIDTH 13 0
BBX 12 12 0 -1
BITMAP 
0F70
0950
EF70
A950
AF70
A280
A440
EFF0
1440
07F0
0440
07F0
ENDCHAR
STARTCHAR U_3618
ENCODING 13848
SWIDTH 1000 0
DWIDTH 13 0
BBX 12 12 0 -1
BITMAP 
2420
4F40
F0F0
2F20
5050
FFF0
0000
5FA0
A950
3FC0
2040
3FC0
ENDCHAR
STARTCHAR U_3619
ENCODING 13849
SWIDTH 1000 0
DWIDTH 13 0
BBX 12 12 0 -1
BITMAP 
0EE0
0AA0
3FF0
E440
BF40
AAF0
AFA0
AAA0
EE40
2B40
3EA0
4310
ENDCHAR
STARTCHAR U_361A
ENCODING 13850
SWIDTH 1000 0
DWIDTH 13 0
BBX 12 12 0 -1
BITMAP 
3CF0
2490
FCF0
A490
BCF0
A490
BFF0
EA50
AF50
2A90
3F70
2210
ENDCHAR
STARTCHAR U_361B
ENCODING 13851
SWIDTH 1000 0
DWIDTH 13 0
BBX 12 12 0 -1
BITMAP 
03C0
0C30
E7E0
A420
AFC0
A570
AFD0
A570
E740
A570
0740
0970
ENDCHAR
STARTCHAR U_361C
ENCODING 13852
SWIDTH 1000 0
DWIDTH 13 0
BBX 12 12 0 -1
BITMAP 
6440
AFA0
F0F0
AFA0
F0F0
AEA0
FAF0
8A80
3FC0
2040
2040
3FC0
ENDCHAR
STARTCHAR U_361D
ENCODING 13853
SWIDTH 1000 0
DWIDTH 13 0
BBX 12 12 0 -1
BITMAP 
FFF0
8010
9F90
8090
8890
8510
8210
8510
88D0
B050
8010
FFF0
ENDCHAR
STARTCHAR U_361E
ENCODING 13854
SWIDTH 1000 0
DWIDTH 13 0
BBX 12 12 0 -1
BITMAP 
FFF0
8410
8410
BFD0
8450
8450
8450
8850
9150
A090
FFF0
8010
ENDCHAR
STARTCHAR U_361F
ENCODING 13855
SWIDTH 1000 0
DWIDTH 13 0
BBX 12 12 0 -1
BITMAP 
FFF0
8010
8910
8910
8910
BFD0
8910
8910
8910
9110
A110
FFF0
ENDCHAR
STARTCHAR U_3620
ENCODING 13856
SWIDTH 1000 0
DWIDTH 13 0
BBX 12 12 0 -1
BITMAP 
FFF0
8410
8250
8890
A950
CA30
8C30
9890
A790
8010
FFF0
8010
ENDCHAR
STARTCHAR U_3621
ENCODING 13857
SWIDTH 1000 0
DWIDTH 13 0
BBX 12 12 0 -1
BITMAP 
FFF0
8010
BF90
A490
A490
BF90
A490
A490
BF90
8410
8410
FFF0
ENDCHAR
STARTCHAR U_3622
ENCODING 13858
SWIDTH 1000 0
DWIDTH 13 0
BBX 12 12 0 -1
BITMAP 
FFF0
8410
9490
8D10
BFD0
8A10
8A10
8A50
B1D0
8010
FFF0
8010
ENDCHAR
STARTCHAR U_3623
ENCODING 13859
SWIDTH 1000 0
DWIDTH 13 0
BBX 12 12 0 -1
BITMAP 
FFF0
9090
9F90
8010
9F90
9090
9F90
9090
9F90
9090
9190
FFF0
ENDCHAR
STARTCHAR U_3624
ENCODING 13860
SWIDTH 1000 0
DWIDTH 13 0
BBX 12 12 0 -1
BITMAP 
FFF0
D550
B550
9DD0
D050
BFD0
9050
BDD0
F550
D550
A050
FFF0
ENDCHAR
STARTCHAR U_3625
ENCODING 13861
SWIDTH 1000 0
DWIDTH 13 0
BBX 12 12 0 -1
BITMAP 
FFF0
B050
EB90
D950
A290
F930
53D0
B890
D6B0
FDB0
FFF0
8010
ENDCHAR
STARTCHAR U_3626
ENCODING 13862
SWIDTH 1000 0
DWIDTH 13 0
BBX 12 12 0 -1
BITMAP 
2080
2080
2080
27F0
F890
2090
2090
2110
3910
E210
0450
0820
ENDCHAR
STARTCHAR U_3627
ENCODING 13863
SWIDTH 1000 0
DWIDTH 13 0
BBX 12 12 0 -1
BITMAP 
23E0
2020
2140
F880
27F0
2090
20A0
2080
3880
E080
0280
0180
ENDCHAR
STARTCHAR U_3628
ENCODING 13864
SWIDTH 1000 0
DWIDTH 13 0
BBX 12 12 0 -1
BITMAP 
2080
2080
27F0
FC90
2490
2550
2530
2E30
3410
C410
0410
0430
ENDCHAR
STARTCHAR U_3629
ENCODING 13865
SWIDTH 1000 0
DWIDTH 13 0
BBX 12 12 0 -1
BITMAP 
2040
2440
2440
2450
F760
2440
2440
2440
3440
C540
0650
0470
ENDCHAR
STARTCHAR U_362A
ENCODING 13866
SWIDTH 1000 0
DWIDTH 13 0
BBX 12 12 0 -1
BITMAP 
0060
2380
2080
F8E0
2380
2080
20F0
2780
3080
C090
0090
0070
ENDCHAR
STARTCHAR U_362B
ENCODING 13867
SWIDTH 1000 0
DWIDTH 13 0
BBX 12 12 0 -1
BITMAP 
2240
2240
2FF0
F240
2240
2240
2FF0
2240
3240
E240
0440
0840
ENDCHAR
STARTCHAR U_362C
ENCODING 13868
SWIDTH 1000 0
DWIDTH 13 0
BBX 12 12 0 -1
BITMAP 
2200
2200
27F0
F410
2910
2110
2210
2290
37D0
C050
0090
0060
ENDCHAR
STARTCHAR U_362D
ENCODING 13869
SWIDTH 1000 0
DWIDTH 13 0
BBX 12 12 0 -1
BITMAP 
2200
22F0
2410
F510
2910
2F10
2210
2210
3510
CF90
0090
0030
ENDCHAR
STARTCHAR U_362E
ENCODING 13870
SWIDTH 1000 0
DWIDTH 13 0
BBX 12 12 0 -1
BITMAP 
2000
27E0
2420
F420
2420
27E0
2500
2500
3480
C440
0820
1010
ENDCHAR
STARTCHAR U_362F
ENCODING 13871
SWIDTH 1000 0
DWIDTH 13 0
BBX 12 12 0 -1
BITMAP 
2400
2400
27F0
F500
2900
27F0
2110
2910
3210
E210
0450
0820
ENDCHAR
STARTCHAR U_3630
ENCODING 13872
SWIDTH 1000 0
DWIDTH 13 0
BBX 12 12 0 -1
BITMAP 
2240
2140
2140
F440
2240
2240
2070
27C0
3040
C040
0040
0040
ENDCHAR
STARTCHAR U_3631
ENCODING 13873
SWIDTH 1000 0
DWIDTH 13 0
BBX 12 12 0 -1
BITMAP 
2080
2080
23E0
22A0
FAA0
23E0
22A0
22A0
2FF0
3220
C220
0260
ENDCHAR
STARTCHAR U_3632
ENCODING 13874
SWIDTH 1000 0
DWIDTH 13 0
BBX 12 12 0 -1
BITMAP 
2FE0
2820
2820
2FE0
F900
2900
2FC0
2940
3940
E950
0A50
1430
ENDCHAR
STARTCHAR U_3633
ENCODING 13875
SWIDTH 1000 0
DWIDTH 13 0
BBX 12 12 0 -1
BITMAP 
0900
0910
F960
0980
0910
3910
CAF0
0200
7FE0
0200
0200
FFF0
ENDCHAR
STARTCHAR U_3634
ENCODING 13876
SWIDTH 1000 0
DWIDTH 13 0
BBX 12 12 0 -1
BITMAP 
0200
0240
7A40
4A40
4AA0
7B20
0200
7FE0
0200
0200
FFF0
0000
ENDCHAR
STARTCHAR U_3635
ENCODING 13877
SWIDTH 1000 0
DWIDTH 13 0
BBX 12 12 0 -1
BITMAP 
2100
2100
2FF0
2200
F480
2FF0
3490
2490
2490
3490
E4B0
0080
ENDCHAR
STARTCHAR U_3636
ENCODING 13878
SWIDTH 1000 0
DWIDTH 13 0
BBX 12 12 0 -1
BITMAP 
2040
3DF0
4440
A540
19F0
1040
E440
0400
3FC0
0400
0400
FFF0
ENDCHAR
STARTCHAR U_3637
ENCODING 13879
SWIDTH 1000 0
DWIDTH 13 0
BBX 12 12 0 -1
BITMAP 
2240
2240
2FF0
2240
F000
2420
2420
2240
2240
3180
C240
0C30
ENDCHAR
STARTCHAR U_3638
ENCODING 13880
SWIDTH 1000 0
DWIDTH 13 0
BBX 12 12 0 -1
BITMAP 
FFF0
2100
3960
4980
A910
1110
24F0
C400
3FC0
0400
0400
FFF0
ENDCHAR
STARTCHAR U_3639
ENCODING 13881
SWIDTH 1000 0
DWIDTH 13 0
BBX 12 12 0 -1
BITMAP 
1110
5120
5DC0
5100
5110
5CF0
E200
0200
3FE0
0200
0200
FFF0
ENDCHAR
STARTCHAR U_363A
ENCODING 13882
SWIDTH 1000 0
DWIDTH 13 0
BBX 12 12 0 -1
BITMAP 
2150
2150
2240
23F0
F640
2A50
2250
2260
2240
3A50
C2B0
0310
ENDCHAR
STARTCHAR U_363B
ENCODING 13883
SWIDTH 1000 0
DWIDTH 13 0
BBX 12 12 0 -1
BITMAP 
2000
27F0
2490
F490
27F0
2490
2490
2550
3530
C630
0410
07F0
ENDCHAR
STARTCHAR U_363C
ENCODING 13884
SWIDTH 1000 0
DWIDTH 13 0
BBX 12 12 0 -1
BITMAP 
2090
23D0
20A0
F7F0
2080
21F0
2280
2D00
21F0
3010
C010
0060
ENDCHAR
STARTCHAR U_363D
ENCODING 13885
SWIDTH 1000 0
DWIDTH 13 0
BBX 12 12 0 -1
BITMAP 
0880
08A0
7E90
0880
FFF0
0880
0890
7E90
08A0
0E50
78B0
0310
ENDCHAR
STARTCHAR U_363E
ENCODING 13886
SWIDTH 1000 0
DWIDTH 13 0
BBX 12 12 0 -1
BITMAP 
2100
2080
27F0
F410
23E0
2080
2080
27F0
2080
3080
E080
0180
ENDCHAR
STARTCHAR U_363F
ENCODING 13887
SWIDTH 1000 0
DWIDTH 13 0
BBX 12 12 0 -1
BITMAP 
23E0
2220
2220
FBE0
2220
2220
23E0
2080
23E0
3880
E080
07F0
ENDCHAR
STARTCHAR U_3640
ENCODING 13888
SWIDTH 1000 0
DWIDTH 13 0
BBX 12 12 0 -1
BITMAP 
0100
4080
47F0
F550
4140
4630
4100
43E0
4120
7120
8230
0430
ENDCHAR
STARTCHAR U_3641
ENCODING 13889
SWIDTH 1000 0
DWIDTH 13 0
BBX 12 12 0 -1
BITMAP 
2220
23F0
2400
FBE0
22A0
22A0
2FF0
24A0
34A0
E7F0
0020
00C0
ENDCHAR
STARTCHAR U_3642
ENCODING 13890
SWIDTH 1000 0
DWIDTH 13 0
BBX 12 12 0 -1
BITMAP
2420
2240
2000
F7E0
2420
2420
27E0
2280
3280
C290
0490
0870
ENDCHAR
STARTCHAR U_3643
ENCODING 13891
SWIDTH 1000 0
DWIDTH 13 0
BBX 12 12 0 -1
BITMAP 
0020
40C0
4700
F400
47E0
4440
4440
6FF0
C000
8240
0420
0830
ENDCHAR
STARTCHAR U_3644
ENCODING 13892
SWIDTH 1000 0
DWIDTH 13 0
BBX 12 12 0 -1
BITMAP 
0440
4770
4440
F540
4640
4470
4080
5080
63E0
8080
0080
07F0
ENDCHAR
STARTCHAR U_3645
ENCODING 13893
SWIDTH 1000 0
DWIDTH 13 0
BBX 12 12 0 -1
BITMAP 
27E0
2420
2420
F7E0
2100
2FF0
2100
3540
2520
C910
0100
0000
ENDCHAR
STARTCHAR U_3646
ENCODING 13894
SWIDTH 1000 0
DWIDTH 13 0
BBX 12 12 0 -1
BITMAP 
0100
2080
27F0
2410
F080
27F0
2080
2100
3140
C240
0490
09F0
ENDCHAR
STARTCHAR U_3647
ENCODING 13895
SWIDTH 1000 0
DWIDTH 13 0
BBX 12 12 0 -1
BITMAP 
0FE0
4100
4200
4D20
E6C0
4C80
43C0
42A0
6490
9880
0280
0100
ENDCHAR
STARTCHAR U_3648
ENCODING 13896
SWIDTH 1000 0
DWIDTH 13 0
BBX 12 12 0 -1
BITMAP 
0100
41E0
4100
4FF0
E910
4FC0
4900
48E0
6A80
8A80
1290
2470
ENDCHAR
STARTCHAR U_3649
ENCODING 13897
SWIDTH 1000 0
DWIDTH 13 0
BBX 12 12 0 -1
BITMAP 
0280
4280
4FE0
4AA0
EAA0
4FE0
4AA0
5FF0
4000
6440
8C20
1020
ENDCHAR
STARTCHAR U_364A
ENCODING 13898
SWIDTH 1000 0
DWIDTH 13 0
BBX 12 12 0 -1
BITMAP 
03E0
4200
43C0
F200
43C0
4200
4FF0
4500
7520
C4C0
0640
0430
ENDCHAR
STARTCHAR U_364B
ENCODING 13899
SWIDTH 1000 0
DWIDTH 13 0
BBX 12 12 0 -1
BITMAP 
0240
47E0
4240
F3C0
4240
43C0
4240
4FF0
4240
7220
8410
0810
ENDCHAR
STARTCHAR U_364C
ENCODING 13900
SWIDTH 1000 0
DWIDTH 13 0
BBX 12 12 0 -1
BITMAP 
0100
47E0
4120
EFF0
4120
47E0
4520
4520
67A0
C560
0520
0920
ENDCHAR
STARTCHAR U_364D
ENCODING 13901
SWIDTH 1000 0
DWIDTH 13 0
BBX 12 12 0 -1
BITMAP 
1FF0
4110
4AA0
E440
4AA0
5110
5FF0
4110
4990
6660
8660
1990
ENDCHAR
STARTCHAR U_364E
ENCODING 13902
SWIDTH 1000 0
DWIDTH 13 0
BBX 12 12 0 -1
BITMAP 
0050
4FF0
4840
EBC0
4940
4FE0
4AC0
4CD0
4B50
6B60
8CF0
1110
ENDCHAR
STARTCHAR U_364F
ENCODING 13903
SWIDTH 1000 0
DWIDTH 13 0
BBX 12 12 0 -1
BITMAP 
0400
47E0
5800
47E0
F420
47E0
4420
57E0
6420
8A40
0180
0E70
ENDCHAR
STARTCHAR U_3650
ENCODING 13904
SWIDTH 1000 0
DWIDTH 13 0
BBX 12 12 0 -1
BITMAP 
0080
2490
2490
F7F0
2000
2FF0
2100
27F0
3550
C550
0550
0430
ENDCHAR
STARTCHAR U_3651
ENCODING 13905
SWIDTH 1000 0
DWIDTH 13 0
BBX 12 12 0 -1
BITMAP 
1F80
0400
3FC0
2440
7FE0
4420
4520
5FA0
0400
3F80
0400
FFF0
ENDCHAR
STARTCHAR U_3652
ENCODING 13906
SWIDTH 1000 0
DWIDTH 13 0
BBX 12 12 0 -1
BITMAP 
03F0
F920
A8C0
AFF0
F850
A860
AB40
F8C0
0400
7FE0
0400
FFF0
ENDCHAR
STARTCHAR U_3653
ENCODING 13907
SWIDTH 1000 0
DWIDTH 13 0
BBX 12 12 0 -1
BITMAP 
0400
3FC0
0400
7FE0
2080
7BE0
2080
FBF0
0400
3FC0
0400
FFF0
ENDCHAR
STARTCHAR U_3654
ENCODING 13908
SWIDTH 1000 0
DWIDTH 13 0
BBX 12 12 0 -1
BITMAP 
0100
47C0
4240
EFF0
4420
47E0
4080
47E0
6480
8FF0
0080
0080
ENDCHAR
STARTCHAR U_3655
ENCODING 13909
SWIDTH 1000 0
DWIDTH 13 0
BBX 12 12 0 -1
BITMAP 
0FE0
4920
4FE0
E920
4FE0
4000
47C0
4440
67C0
8440
07C0
0840
ENDCHAR
STARTCHAR U_3656
ENCODING 13910
SWIDTH 1000 0
DWIDTH 13 0
BBX 12 12 0 -1
BITMAP 
00C0
4700
4100
E7E0
4520
47E0
4100
4FF0
6910
89D0
0A10
0830
ENDCHAR
STARTCHAR U_3657
ENCODING 13911
SWIDTH 1000 0
DWIDTH 13 0
BBX 12 12 0 -1
BITMAP 
07C0
4540
47C0
E540
47C0
4000
5FF0
4500
6520
84C0
0440
0630
ENDCHAR
STARTCHAR U_3658
ENCODING 13912
SWIDTH 1000 0
DWIDTH 13 0
BBX 12 12 0 -1
BITMAP 
07C0
4280
4FE0
EAA0
4AA0
4FE0
4100
5FF0
6240
8480
0300
0CE0
ENDCHAR
STARTCHAR U_3659
ENCODING 13913
SWIDTH 1000 0
DWIDTH 13 0
BBX 12 12 0 -1
BITMAP 
8880
5FE0
8A40
4B80
0A20
6AC0
9310
01F0
0400
3F80
0400
FFE0
ENDCHAR
STARTCHAR U_365A
ENCODING 13914
SWIDTH 1000 0
DWIDTH 13 0
BBX 12 12 0 -1
BITMAP 
0840
4480
4FE0
E100
47C0
4100
4FE0
4500
67C0
8900
1FE0
0100
ENDCHAR
STARTCHAR U_365B
ENCODING 13915
SWIDTH 1000 0
DWIDTH 13 0
BBX 12 12 0 -1
BITMAP 
0100
4FE0
4100
EFE0
4920
4FE0
4920
4FE0
6040
9FE0
0440
02C0
ENDCHAR
STARTCHAR U_365C
ENCODING 13916
SWIDTH 1000 0
DWIDTH 13 0
BBX 12 12 0 -1
BITMAP 
0400
FFE0
1100
1F00
0000
7FE0
5120
5F20
4460
1F00
0400
FFF0
ENDCHAR
STARTCHAR U_365D
ENCODING 13917
SWIDTH 1000 0
DWIDTH 13 0
BBX 12 12 0 -1
BITMAP
0100
47E0
4120
4A40
FFF0
4950
57F0
4420
67E0
8420
07E0
0420
ENDCHAR
STARTCHAR U_365E
ENCODING 13918
SWIDTH 1000 0
DWIDTH 13 0
BBX 12 12 0 -1
BITMAP 
0100
47C0
4440
F7C0
4440
47C0
4440
47C0
7100
8FE0
0540
0920
ENDCHAR
STARTCHAR U_365F
ENCODING 13919
SWIDTH 1000 0
DWIDTH 13 0
BBX 12 12 0 -1
BITMAP 
0400
4F70
4950
EF50
4970
4F50
4870
4A50
6950
8A50
0C90
0930
ENDCHAR
STARTCHAR U_3660
ENCODING 13920
SWIDTH 1000 0
DWIDTH 13 0
BBX 12 12 0 -1
BITMAP 
FDE0
A120
BA10
D1E0
FD20
A8A0
C440
FDB0
0200
3FC0
0200
FFF0
ENDCHAR
STARTCHAR U_3661
ENCODING 13921
SWIDTH 1000 0
DWIDTH 13 0
BBX 12 12 0 -1
BITMAP 
4520
4920
F520
4AD0
5A50
4C80
4840
6940
4970
8940
0AC0
0A70
ENDCHAR
STARTCHAR U_3662
ENCODING 13922
SWIDTH 1000 0
DWIDTH 13 0
BBX 12 12 0 -1
BITMAP 
4440
5FF0
4440
F7C0
4100
5FF0
5990
5550
7BB0
9110
1150
1120
ENDCHAR
STARTCHAR U_3663
ENCODING 13923
SWIDTH 1000 0
DWIDTH 13 0
BBX 12 12 0 -1
BITMAP 
4EF0
4280
42E0
EE80
48E0
5080
5FF0
42C0
42D0
62A0
8AA0
04D0
ENDCHAR
STARTCHAR U_3664
ENCODING 13924
SWIDTH 1000 0
DWIDTH 13 0
BBX 12 12 0 -1
BITMAP 
01C0
4100
4FF0
E950
4980
4BE0
4980
4AA0
69C0
8FF0
0880
1180
ENDCHAR
STARTCHAR U_3665
ENCODING 13925
SWIDTH 1000 0
DWIDTH 13 0
BBX 12 12 0 -1
BITMAP
2100
2FF0
2240
F520
2A50
27E0
2100
22A0
3640
CA20
0310
0200
ENDCHAR
STARTCHAR U_3666
ENCODING 13926
SWIDTH 1000 0
DWIDTH 13 0
BBX 12 12 0 -1
BITMAP 
1040
2940
7CC0
9340
7CC0
3BF0
5440
B440
0200
3FE0
0200
FFF0
ENDCHAR
STARTCHAR U_3667
ENCODING 13927
SWIDTH 1000 0
DWIDTH 13 0
BBX 12 12 0 -1
BITMAP 
1FF0
4280
4EE0
EAA0
4EE0
4280
4280
4FE0
6920
CFE0
0920
0FE0
ENDCHAR
STARTCHAR U_3668
ENCODING 13928
SWIDTH 1000 0
DWIDTH 13 0
BBX 12 12 0 -1
BITMAP 
4520
4940
5FF0
E520
4B50
5FF0
4920
5FF0
4900
6AA0
9440
21B0
ENDCHAR
STARTCHAR U_3669
ENCODING 13929
SWIDTH 1000 0
DWIDTH 13 0
BBX 12 12 0 -1
BITMAP 
4100
5FF0
4AA0
E440
5FF0
4440
47C0
4440
47C0
6540
8920
1320
ENDCHAR
STARTCHAR U_366A
ENCODING 13930
SWIDTH 1000 0
DWIDTH 13 0
BBX 12 12 0 -1
BITMAP 
4080
47F0
4080
F3E0
4000
47F0
4410
43E0
7220
C3E0
0140
07F0
ENDCHAR
STARTCHAR U_366B
ENCODING 13931
SWIDTH 1000 0
DWIDTH 13 0
BBX 12 12 0 -1
BITMAP 
0280
47F0
4C80
F7E0
4480
47E0
4480
47F0
72A0
C2A0
0490
0890
ENDCHAR
STARTCHAR U_366C
ENCODING 13932
SWIDTH 1000 0
DWIDTH 13 0
BBX 12 12 0 -1
BITMAP 
1060
FE50
35F0
5440
BA40
38C0
5520
9610
0200
3FE0
0200
FFF0
ENDCHAR
STARTCHAR U_366D
ENCODING 13933
SWIDTH 1000 0
DWIDTH 13 0
BBX 12 12 0 -1
BITMAP 
1FF0
5940
5670
FF90
5220
5AA0
5FA0
5220
5220
7220
9450
2890
ENDCHAR
STARTCHAR U_366E
ENCODING 13934
SWIDTH 1000 0
DWIDTH 13 0
BBX 12 12 0 -1
BITMAP 
0440
4770
4AA0
F100
4280
4440
4FE0
5010
47C0
7440
C440
07C0
ENDCHAR
STARTCHAR U_366F
ENCODING 13935
SWIDTH 1000 0
DWIDTH 13 0
BBX 12 12 0 -1
BITMAP 
1080
7DE0
10A0
FFA0
54A0
BB70
1000
7FE0
0000
FFF0
1080
3FC0
ENDCHAR
STARTCHAR U_3670
ENCODING 13936
SWIDTH 1000 0
DWIDTH 13 0
BBX 12 12 0 -1
BITMAP 
73F0
9090
FB30
A940
FBE0
A840
FBF0
8840
0200
3FC0
0200
FFF0
ENDCHAR
STARTCHAR U_3671
ENCODING 13937
SWIDTH 1000 0
DWIDTH 13 0
BBX 12 12 0 -1
BITMAP 
78E0
4880
FFF0
22C0
7BF0
0AA0
0AA0
35B0
0200
7FE0
0200
FFF0
ENDCHAR
STARTCHAR U_3672
ENCODING 13938
SWIDTH 1000 0
DWIDTH 13 0
BBX 12 12 0 -1
BITMAP 
0100
5FF0
4480
E940
53F0
5D40
49F0
5B40
47F0
6540
89F0
1100
ENDCHAR
STARTCHAR U_3673
ENCODING 13939
SWIDTH 1000 0
DWIDTH 13 0
BBX 12 12 0 -1
BITMAP 
4050
5FF0
5040
F740
5050
5760
5540
67A0
4210
9920
1450
2390
ENDCHAR
STARTCHAR U_3674
ENCODING 13940
SWIDTH 1000 0
DWIDTH 13 0
BBX 12 12 0 -1
BITMAP 
4380
4480
4FF0
E940
4AA0
4FF0
4800
4BE0
6800
4BE0
8A20
13E0
ENDCHAR
STARTCHAR U_3675
ENCODING 13941
SWIDTH 1000 0
DWIDTH 13 0
BBX 12 12 0 -1
BITMAP 
0100
4FF0
4240
4FF0
E810
4BD0
4A50
4BD0
4100
6FE0
C100
1FF0
ENDCHAR
STARTCHAR U_3676
ENCODING 13942
SWIDTH 1000 0
DWIDTH 13 0
BBX 12 12 0 -1
BITMAP 
0400
FFF0
2040
3FC0
1500
FFF0
A050
3FC0
0400
3FC0
0400
FFF0
ENDCHAR
STARTCHAR U_3677
ENCODING 13943
SWIDTH 1000 0
DWIDTH 13 0
BBX 12 12 0 -1
BITMAP 
0FF0
4810
4FF0
E810
4FF0
4220
4FF0
4220
4550
6FF0
C6A0
0950
ENDCHAR
STARTCHAR U_3678
ENCODING 13944
SWIDTH 1000 0
DWIDTH 13 0
BBX 12 12 0 -1
BITMAP 
0540
4B60
5940
EFF0
4940
4BE0
4880
49C0
6880
CFF0
4940
0A20
ENDCHAR
STARTCHAR U_3679
ENCODING 13945
SWIDTH 1000 0
DWIDTH 13 0
BBX 12 12 0 -1
BITMAP 
0280
5EF0
4280
EFE0
4AA0
5FF0
5210
45C0
6A40
4180
8300
1C00
ENDCHAR
STARTCHAR U_367A
ENCODING 13946
SWIDTH 1000 0
DWIDTH 13 0
BBX 12 12 0 -1
BITMAP 
0FF0
4880
4BE0
EAA0
4FF0
4A20
4BE0
4A20
6BE0
4940
8A20
0FF0
ENDCHAR
STARTCHAR U_367B
ENCODING 13947
SWIDTH 1000 0
DWIDTH 13 0
BBX 12 12 0 -1
BITMAP 
0080
4FF0
4AA0
EBE0
4AA0
4BE0
4880
4FF0
4AA0
6DD0
9080
27F0
ENDCHAR
STARTCHAR U_367C
ENCODING 13948
SWIDTH 1000 0
DWIDTH 13 0
BBX 12 12 0 -1
BITMAP 
07C0
4540
47C0
E540
47C0
4000
5FF0
5550
7FF0
5550
9FF0
1110
ENDCHAR
STARTCHAR U_367D
ENCODING 13949
SWIDTH 1000 0
DWIDTH 13 0
BBX 12 12 0 -1
BITMAP 
0100
4100
5FF0
E920
5D70
5550
5D70
7550
5D70
8280
0440
1830
ENDCHAR
STARTCHAR U_367E
ENCODING 13950
SWIDTH 1000 0
DWIDTH 13 0
BBX 12 12 0 -1
BITMAP 
06E0
4920
4EE0
E920
4AA0
5FF0
5010
47D0
6080
4FE0
8080
0180
ENDCHAR
STARTCHAR U_367F
ENCODING 13951
SWIDTH 1000 0
DWIDTH 13 0
BBX 12 12 0 -1
BITMAP 
0240
4FF0
4080
E7E0
4080
4FF0
44A0
5FF0
6E40
5550
8E20
1150
ENDCHAR
STARTCHAR U_3680
ENCODING 13952
SWIDTH 1000 0
DWIDTH 13 0
BBX 12 12 0 -1
BITMAP 
0320
4230
5FA0
F370
5FA0
5020
5FA0
54B0
57A0
74E0
9320
2F90
ENDCHAR
STARTCHAR U_3681
ENCODING 13953
SWIDTH 1000 0
DWIDTH 13 0
BBX 12 12 0 -1
BITMAP 
2040
79E0
2040
FBF0
5120
FBF0
5120
FBF0
0000
FBF0
50A0
9B30
ENDCHAR
STARTCHAR U_3682
ENCODING 13954
SWIDTH 1000 0
DWIDTH 13 0
BBX 12 12 0 -1
BITMAP 
0100
5FF0
4540
FFF0
5550
47C0
4440
4FE0
6440
9FF0
04A0
0670
ENDCHAR
STARTCHAR U_3683
ENCODING 13955
SWIDTH 1000 0
DWIDTH 13 0
BBX 12 12 0 -1
BITMAP 
0400
7FE0
0400
3FC0
0000
FFF0
8D10
2240
2D40
3FC0
1080
FFF0
ENDCHAR
STARTCHAR U_3684
ENCODING 13956
SWIDTH 1000 0
DWIDTH 13 0
BBX 12 12 0 -1
BITMAP 
0400
7FE0
0400
FFF0
A4A0
3F80
2480
7FE0
2440
3780
2C00
C3F0
ENDCHAR
STARTCHAR U_3685
ENCODING 13957
SWIDTH 1000 0
DWIDTH 13 0
BBX 12 12 0 -1
BITMAP 
0FC0
1880
6500
0F80
F070
0F80
1200
3FC0
4200
1FC0
0200
FFF0
ENDCHAR
STARTCHAR U_3686
ENCODING 13958
SWIDTH 1000 0
DWIDTH 13 0
BBX 12 12 0 -1
BITMAP 
0400
FFF0
0000
3FC0
2040
3FC0
2040
3FC0
3080
C900
0600
79F0
ENDCHAR
STARTCHAR U_3687
ENCODING 13959
SWIDTH 1000 0
DWIDTH 13 0
BBX 12 12 0 -1
BITMAP 
5940
4640
5940
7FC0
2080
2080
50F0
BF80
3080
4900
0600
F9F0
ENDCHAR
STARTCHAR U_3688
ENCODING 13960
SWIDTH 1000 0
DWIDTH 13 0
BBX 12 12 0 -1
BITMAP 
0040
2040
3C40
2440
45F0
A840
1840
1040
2040
4040
8040
0040
ENDCHAR
STARTCHAR U_3689
ENCODING 13961
SWIDTH 1000 0
DWIDTH 13 0
BBX 12 12 0 -1
BITMAP 
7FC0
2040
2870
4F10
9130
2A00
0500
3BC0
0440
1A80
0300
7C00
ENDCHAR
STARTCHAR U_368A
ENCODING 13962
SWIDTH 1000 0
DWIDTH 13 0
BBX 12 12 0 -1
BITMAP 
2080
7BF0
8880
5120
2220
C140
2090
7920
CA40
30A0
2110
C610
ENDCHAR
STARTCHAR U_368B
ENCODING 13963
SWIDTH 1000 0
DWIDTH 13 0
BBX 12 12 0 -1
BITMAP 
47F0
7490
95D0
6490
47F0
A410
75D0
9550
65D0
2410
4830
9010
ENDCHAR
STARTCHAR U_368C
ENCODING 13964
SWIDTH 1000 0
DWIDTH 13 0
BBX 12 12 0 -1
BITMAP 
43E0
7AA0
CBE0
32A0
23E0
C080
27F0
79C0
C9C0
32A0
24A0
C890
ENDCHAR
STARTCHAR U_368D
ENCODING 13965
SWIDTH 1000 0
DWIDTH 13 0
BBX 12 12 0 -1
BITMAP 
2080
7BE0
CAA0
37F0
2220
43E0
A220
7BE0
AA20
13E0
2220
C410
ENDCHAR
STARTCHAR U_368E
ENCODING 13966
SWIDTH 1000 0
DWIDTH 13 0
BBX 12 12 0 -1
BITMAP 
0400
0420
FFF0
0900
1080
2040
4020
A050
2040
2040
2040
3FC0
ENDCHAR
STARTCHAR U_368F
ENCODING 13967
SWIDTH 1000 0
DWIDTH 13 0
BBX 12 12 0 -1
BITMAP 
0400
0420
FFF0
0900
1080
2040
D0B0
10A0
FFF0
1080
1080
2080
ENDCHAR
STARTCHAR U_3690
ENCODING 13968
SWIDTH 1000 0
DWIDTH 13 0
BBX 12 12 0 -1
BITMAP 
0200
0200
7FF0
0480
1860
6030
0200
0200
7FF0
0500
18C0
6030
ENDCHAR
STARTCHAR U_3691
ENCODING 13969
SWIDTH 1000 0
DWIDTH 13 0
BBX 12 12 0 -1
BITMAP 
3FC0
0040
3FC0
0040
3FC0
0200
0400
FFF0
0900
1080
2040
C030
ENDCHAR
STARTCHAR U_3692
ENCODING 13970
SWIDTH 1000 0
DWIDTH 13 0
BBX 12 12 0 -1
BITMAP 
0200
0200
0200
7FF0
0200
2280
1240
2AA0
0500
0880
1040
6030
ENDCHAR
STARTCHAR U_3693
ENCODING 13971
SWIDTH 1000 0
DWIDTH 13 0
BBX 12 12 0 -1
BITMAP 
0200
0200
7FF0
0480
1860
6030
0200
0200
7FF0
0700
1AC0
6230
ENDCHAR
STARTCHAR U_3694
ENCODING 13972
SWIDTH 1000 0
DWIDTH 13 0
BBX 12 12 0 -1
BITMAP 
0200
0200
7FF0
0480
1860
68B0
0500
3FC0
0200
7FF0
0200
0200
ENDCHAR
STARTCHAR U_3695
ENCODING 13973
SWIDTH 1000 0
DWIDTH 13 0
BBX 12 12 0 -1
BITMAP 
0400
7FE0
0900
30C0
C930
3FC0
0940
3FC0
2900
3FE0
0920
1140
ENDCHAR
STARTCHAR U_3696
ENCODING 13974
SWIDTH 1000 0
DWIDTH 13 0
BBX 12 12 0 -1
BITMAP 
0400
3FC0
2040
3FC0
2040
3FC0
0400
0400
FFF0
0900
30C0
C030
ENDCHAR
STARTCHAR U_3697
ENCODING 13975
SWIDTH 1000 0
DWIDTH 13 0
BBX 12 12 0 -1
BITMAP 
0200
0400
FFF0
0900
1080
3FC0
D0B0
1F80
1080
1F80
1080
FFF0
ENDCHAR
STARTCHAR U_3698
ENCODING 13976
SWIDTH 1000 0
DWIDTH 13 0
BBX 12 12 0 -1
BITMAP 
1040
1040
1040
7DF0
1040
1040
7DF0
1040
3040
28A0
4510
8210
ENDCHAR
STARTCHAR U_3699
ENCODING 13977
SWIDTH 1000 0
DWIDTH 13 0
BBX 12 12 0 -1
BITMAP 
2000
2000
F9F0
2910
2910
4910
99F0
0400
FFF0
0900
3080
C070
ENDCHAR
STARTCHAR U_369A
ENCODING 13978
SWIDTH 1000 0
DWIDTH 13 0
BBX 12 12 0 -1
BITMAP 
0400
7FE0
1080
2440
CFB0
1080
2B00
0C00
3000
DFC0
1040
1FC0
ENDCHAR
STARTCHAR U_369B
ENCODING 13979
SWIDTH 1000 0
DWIDTH 13 0
BBX 12 12 0 -1
BITMAP 
0400
7FE0
1080
2040
D330
1C00
1040
1FC0
1040
1FC0
1040
1FC0
ENDCHAR
STARTCHAR U_369C
ENCODING 13980
SWIDTH 1000 0
DWIDTH 13 0
BBX 12 12 0 -1
BITMAP 
0400
FFF0
1080
2340
C2A0
7FF0
0240
7A40
4A80
7920
0DA0
F260
ENDCHAR
STARTCHAR U_369D
ENCODING 13981
SWIDTH 1000 0
DWIDTH 13 0
BBX 12 12 0 -1
BITMAP 
0400
FFF0
0900
30C0
D130
17C0
2100
6FE0
A100
27C0
2100
2FE0
ENDCHAR
STARTCHAR U_369E
ENCODING 13982
SWIDTH 1000 0
DWIDTH 13 0
BBX 12 12 0 -1
BITMAP 
0400
FFF0
0900
30C0
C030
1080
7FE0
1080
39C0
35A0
52A0
1080
ENDCHAR
STARTCHAR U_369F
ENCODING 13983
SWIDTH 1000 0
DWIDTH 13 0
BBX 12 12 0 -1
BITMAP 
1000
1F80
2200
7FC0
A040
3FC0
2210
39F0
0400
FFF0
1080
6070
ENDCHAR
STARTCHAR U_36A0
ENCODING 13984
SWIDTH 1000 0
DWIDTH 13 0
BBX 12 12 0 -1
BITMAP 
0200
7FF0
0880
3040
48B0
0500
3FE0
0200
1FC0
0200
7FF0
4490
ENDCHAR
STARTCHAR U_36A1
ENCODING 13985
SWIDTH 1000 0
DWIDTH 13 0
BBX 12 12 0 -1
BITMAP 
2080
2080
FBE0
5140
8A20
FFF0
0820
EBA0
AAA0
EBA0
0820
1860
ENDCHAR
STARTCHAR U_36A2
ENCODING 13986
SWIDTH 1000 0
DWIDTH 13 0
BBX 12 12 0 -1
BITMAP 
1100
1100
1100
2100
6FF0
A220
2220
2440
2340
2080
2360
2C10
ENDCHAR
STARTCHAR U_36A3
ENCODING 13987
SWIDTH 1000 0
DWIDTH 13 0
BBX 12 12 0 -1
BITMAP 
0400
FFF0
1100
0E00
0980
7440
0400
FFF0
0880
1900
0780
3870
ENDCHAR
STARTCHAR U_36A4
ENCODING 13988
SWIDTH 1000 0
DWIDTH 13 0
BBX 12 12 0 -1
BITMAP 
20A0
2090
2080
F8F0
4B80
5080
9080
5080
2040
3050
4830
8010
ENDCHAR
STARTCHAR U_36A5
ENCODING 13989
SWIDTH 1000 0
DWIDTH 13 0
BBX 12 12 0 -1
BITMAP 
2000
23F0
2040
F840
4840
53F0
9040
5040
2040
3040
4840
80C0
ENDCHAR
STARTCHAR U_36A6
ENCODING 13990
SWIDTH 1000 0
DWIDTH 13 0
BBX 12 12 0 -1
BITMAP 
2000
27F0
2140
F940
4940
5140
9140
5140
2240
3240
4A40
8440
ENDCHAR
STARTCHAR U_36A7
ENCODING 13991
SWIDTH 1000 0
DWIDTH 13 0
BBX 12 12 0 -1
BITMAP 
2080
2040
23F0
FA00
4A00
5200
9200
5200
2200
3200
4C00
8400
ENDCHAR
STARTCHAR U_36A8
ENCODING 13992
SWIDTH 1000 0
DWIDTH 13 0
BBX 12 12 0 -1
BITMAP 
2000
27C0
2240
FA40
4A40
5240
97C0
5240
2250
3250
4A30
8210
ENDCHAR
STARTCHAR U_36A9
ENCODING 13993
SWIDTH 1000 0
DWIDTH 13 0
BBX 12 12 0 -1
BITMAP 
2000
23E0
2220
FA20
4BF0
5220
9220
5220
27F0
3220
4A20
8220
ENDCHAR
STARTCHAR U_36AA
ENCODING 13994
SWIDTH 1000 0
DWIDTH 13 0
BBX 12 12 0 -1
BITMAP 
2070
2780
2080
F8E0
4B80
5080
90F0
5780
2080
3090
4890
80F0
ENDCHAR
STARTCHAR U_36AB
ENCODING 13995
SWIDTH 1000 0
DWIDTH 13 0
BBX 12 12 0 -1
BITMAP 
2000
27E0
2220
FA40
4A40
52F0
9210
5320
22A0
3440
4CA0
8910
ENDCHAR
STARTCHAR U_36AC
ENCODING 13996
SWIDTH 1000 0
DWIDTH 13 0
BBX 12 12 0 -1
BITMAP 
2200
2200
23F0
FA10
4C10
5510
9090
5010
20D0
3310
4810
8070
ENDCHAR
STARTCHAR U_36AD
ENCODING 13997
SWIDTH 1000 0
DWIDTH 13 0
BBX 12 12 0 -1
BITMAP 
2080
20A0
2090
F880
4BF0
5140
9140
5140
2240
3250
4A50
8470
ENDCHAR
STARTCHAR U_36AE
ENCODING 13998
SWIDTH 1000 0
DWIDTH 13 0
BBX 12 12 0 -1
BITMAP 
2000
27F0
2410
F800
4BC0
5240
9240
5240
2240
3250
4C50
8070
ENDCHAR
STARTCHAR U_36AF
ENCODING 13999
SWIDTH 1000 0
DWIDTH 13 0
BBX 12 12 0 -1
BITMAP 
23E0
2220
2260
FB60
4AA0
52A0
92A0
5360
2220
3230
4410
8810
ENDCHAR
STARTCHAR U_36B0
ENCODING 14000
SWIDTH 1000 0
DWIDTH 13 0
BBX 12 12 0 -1
BITMAP 
2000
27F0
2080
F880
4980
52A0
9090
5090
2080
3080
4800
87F0
ENDCHAR
STARTCHAR U_36B1
ENCODING 14001
SWIDTH 1000 0
DWIDTH 13 0
BBX 12 12 0 -1
BITMAP 
2060
2380
2200
FA00
4A00
53F0
9240
5240
2240
3240
4A40
87F0
ENDCHAR
STARTCHAR U_36B2
ENCODING 14002
SWIDTH 1000 0
DWIDTH 13 0
BBX 12 12 0 -1
BITMAP 
2080
2080
2080
F8F0
4880
5080
9080
53F0
2210
3210
4A10
83F0
ENDCHAR
STARTCHAR U_36B3
ENCODING 14003
SWIDTH 1000 0
DWIDTH 13 0
BBX 12 12 0 -1
BITMAP 
2400
2400
2F00
F570
5550
5550
9550
5550
2550
3570
4900
9300
ENDCHAR
STARTCHAR U_36B4
ENCODING 14004
SWIDTH 1000 0
DWIDTH 13 0
BBX 12 12 0 -1
BITMAP 
2080
2080
27F0
F900
4A40
53F0
9650
5250
2250
3270
4840
8040
ENDCHAR
STARTCHAR U_36B5
ENCODING 14005
SWIDTH 1000 0
DWIDTH 13 0
BBX 12 12 0 -1
BITMAP 
2100
2100
23E0
FA20
4B40
5480
9140
5230
2580
3040
4B00
80C0
ENDCHAR
STARTCHAR U_36B6
ENCODING 14006
SWIDTH 1000 0
DWIDTH 13 0
BBX 12 12 0 -1
BITMAP 
2000
23E0
2220
FA20
4BE0
5200
9200
53F0
2210
3210
4BF0
8210
ENDCHAR
STARTCHAR U_36B7
ENCODING 14007
SWIDTH 1000 0
DWIDTH 13 0
BBX 12 12 0 -1
BITMAP 
2080
2080
2140
F940
4A20
5490
9080
52A0
2490
3090
4880
8380
ENDCHAR
STARTCHAR U_36B8
ENCODING 14008
SWIDTH 1000 0
DWIDTH 13 0
BBX 12 12 0 -1
BITMAP 
2000
27F0
2010
FBD0
4810
53D0
9250
5250
23D0
3010
4810
8070
ENDCHAR
STARTCHAR U_36B9
ENCODING 14009
SWIDTH 1000 0
DWIDTH 13 0
BBX 12 12 0 -1
BITMAP 
2100
2670
2550
FD50
4D50
5550
9550
5550
2770
3140
4A40
8440
ENDCHAR
STARTCHAR U_36BA
ENCODING 14010
SWIDTH 1000 0
DWIDTH 13 0
BBX 12 12 0 -1
BITMAP 
2000
27C0
2240
FA70
4A10
55D0
9050
50A0
2080
33E0
4880
8180
ENDCHAR
STARTCHAR U_36BB
ENCODING 14011
SWIDTH 1000 0
DWIDTH 13 0
BBX 12 12 0 -1
BITMAP 
3FE0
2220
3FE0
2220
2220
3FE0
0400
FFF0
0880
1D00
0780
3870
ENDCHAR
STARTCHAR U_36BC
ENCODING 14012
SWIDTH 1000 0
DWIDTH 13 0
BBX 12 12 0 -1
BITMAP 
2000
2000
23F0
FA90
4A90
5290
93F0
5290
2290
3290
4BF0
8210
ENDCHAR
STARTCHAR U_36BD
ENCODING 14013
SWIDTH 1000 0
DWIDTH 13 0
BBX 12 12 0 -1
BITMAP 
FBF0
2040
2080
21F0
3810
C2D0
0420
FFF0
0880
1D00
0780
3870
ENDCHAR
STARTCHAR U_36BE
ENCODING 14014
SWIDTH 1000 0
DWIDTH 13 0
BBX 12 12 0 -1
BITMAP 
2000
23E0
2220
FA20
4A20
5220
93E0
5140
2140
3150
4A50
8470
ENDCHAR
STARTCHAR U_36BF
ENCODING 14015
SWIDTH 1000 0
DWIDTH 13 0
BBX 12 12 0 -1
BITMAP 
2100
2100
23E0
FA20
4BA0
56A0
92A0
53A0
2220
32C0
4A10
81F0
ENDCHAR
STARTCHAR U_36C0
ENCODING 14016
SWIDTH 1000 0
DWIDTH 13 0
BBX 12 12 0 -1
BITMAP 
2100
21F0
2220
FC40
4800
53F0
9010
5010
23F0
3010
4810
83F0
ENDCHAR
STARTCHAR U_36C1
ENCODING 14017
SWIDTH 1000 0
DWIDTH 13 0
BBX 12 12 0 -1
BITMAP 
2000
27E0
2080
FC90
4AA0
5080
97F0
5080
2080
3080
4880
8080
ENDCHAR
STARTCHAR U_36C2
ENCODING 14018
SWIDTH 1000 0
DWIDTH 13 0
BBX 12 12 0 -1
BITMAP 
2030
27C0
2400
F5F0
5550
5550
9550
55F0
2500
3510
4D10
80F0
ENDCHAR
STARTCHAR U_36C3
ENCODING 14019
SWIDTH 1000 0
DWIDTH 13 0
BBX 12 12 0 -1
BITMAP 
1000
7FE0
1120
7D20
1120
7D20
1240
FFF0
0880
1D00
0780
7870
ENDCHAR
STARTCHAR U_36C4
ENCODING 14020
SWIDTH 1000 0
DWIDTH 13 0
BBX 12 12 0 -1
BITMAP 
2100
2080
27F0
F900
4900
5290
96A0
5240
2240
3220
4B10
8200
ENDCHAR
STARTCHAR U_36C5
ENCODING 14021
SWIDTH 1000 0
DWIDTH 13 0
BBX 12 12 0 -1
BITMAP 
27F0
2220
2220
FBE0
4A20
5220
93E0
5220
2230
37E0
4820
8020
ENDCHAR
STARTCHAR U_36C6
ENCODING 14022
SWIDTH 1000 0
DWIDTH 13 0
BBX 12 12 0 -1
BITMAP 
27C0
2240
2270
FA10
4A10
54A0
9080
57F0
21C0
32A0
4AA0
8490
ENDCHAR
STARTCHAR U_36C7
ENCODING 14023
SWIDTH 1000 0
DWIDTH 13 0
BBX 12 12 0 -1
BITMAP 
2100
2080
23F0
FA00
4A40
5240
9240
52F0
2240
3240
4C40
85F0
ENDCHAR
STARTCHAR U_36C8
ENCODING 14024
SWIDTH 1000 0
DWIDTH 13 0
BBX 12 12 0 -1
BITMAP 
2080
23E0
2090
F8A0
4FF0
5080
93E0
5500
21F0
3010
4810
84E0
ENDCHAR
STARTCHAR U_36C9
ENCODING 14025
SWIDTH 1000 0
DWIDTH 13 0
BBX 12 12 0 -1
BITMAP 
2000
27F0
2140
F940
4FF0
5550
9550
5550
2670
3410
4C10
87F0
ENDCHAR
STARTCHAR U_36CA
ENCODING 14026
SWIDTH 1000 0
DWIDTH 13 0
BBX 12 12 0 -1
BITMAP 
2000
23E0
2220
FA20
5430
5080
9080
57F0
21C0
32A0
4C90
8080
ENDCHAR
STARTCHAR U_36CB
ENCODING 14027
SWIDTH 1000 0
DWIDTH 13 0
BBX 12 12 0 -1
BITMAP 
2100
2100
2280
FA40
4C30
5100
9100
5520
2590
3150
4940
8300
ENDCHAR
STARTCHAR U_36CC
ENCODING 14028
SWIDTH 1000 0
DWIDTH 13 0
BBX 12 12 0 -1
BITMAP 
2080
2080
2120
FBF0
4890
5280
93E0
5480
27F0
3080
4880
8080
ENDCHAR
STARTCHAR U_36CD
ENCODING 14029
SWIDTH 1000 0
DWIDTH 13 0
BBX 12 12 0 -1
BITMAP 
2080
2080
27F0
F880
4AA0
52A0
95D0
5490
2080
3140
4920
8610
ENDCHAR
STARTCHAR U_36CE
ENCODING 14030
SWIDTH 1000 0
DWIDTH 13 0
BBX 12 12 0 -1
BITMAP 
2000
23E0
2220
FA20
4BE0
5000
97F0
5410
2410
3410
4FF0
8410
ENDCHAR
STARTCHAR U_36CF
ENCODING 14031
SWIDTH 1000 0
DWIDTH 13 0
BBX 12 12 0 -1
BITMAP 
20A0
2090
27F0
F880
4890
52A0
91C0
52A0
24A0
3090
4880
8180
ENDCHAR
STARTCHAR U_36D0
ENCODING 14032
SWIDTH 1000 0
DWIDTH 13 0
BBX 12 12 0 -1
BITMAP 
47F0
4080
43E0
FAA0
4BE0
52A0
93E0
5080
2280
3100
4AC0
8430
ENDCHAR
STARTCHAR U_36D1
ENCODING 14033
SWIDTH 1000 0
DWIDTH 13 0
BBX 12 12 0 -1
BITMAP 
1000
1DF0
5090
BCA0
2440
F9B0
0400
FFF0
0880
1D00
0780
3870
ENDCHAR
STARTCHAR U_36D2
ENCODING 14034
SWIDTH 1000 0
DWIDTH 13 0
BBX 12 12 0 -1
BITMAP 
47F0
4000
4000
FBE0
4A20
5220
93E0
5000
2220
3120
4940
87F0
ENDCHAR
STARTCHAR U_36D3
ENCODING 14035
SWIDTH 1000 0
DWIDTH 13 0
BBX 12 12 0 -1
BITMAP 
4430
4340
4080
F370
5500
53F0
9280
57F0
2290
32B0
4880
8080
ENDCHAR
STARTCHAR U_36D4
ENCODING 14036
SWIDTH 1000 0
DWIDTH 13 0
BBX 12 12 0 -1
BITMAP 
4100
41E0
4320
F4C0
5120
5690
93E0
5080
23E0
3080
47F0
8080
ENDCHAR
STARTCHAR U_36D5
ENCODING 14037
SWIDTH 1000 0
DWIDTH 13 0
BBX 12 12 0 -1
BITMAP 
2000
23E0
2220
FBE0
4800
57E0
9520
5520
27E0
3410
4C10
83F0
ENDCHAR
STARTCHAR U_36D6
ENCODING 14038
SWIDTH 1000 0
DWIDTH 13 0
BBX 12 12 0 -1
BITMAP 
2100
2240
27E0
F820
4A40
5420
9200
53E0
2640
3240
4980
8660
ENDCHAR
STARTCHAR U_36D7
ENCODING 14039
SWIDTH 1000 0
DWIDTH 13 0
BBX 12 12 0 -1
BITMAP 
2080
2080
22A0
FAA0
4DD0
55D0
9080
5080
23E0
3080
4880
87F0
ENDCHAR
STARTCHAR U_36D8
ENCODING 14040
SWIDTH 1000 0
DWIDTH 13 0
BBX 12 12 0 -1
BITMAP 
2080
2080
23E0
F880
4BF0
4C10
93E0
5040
27F0
3080
4880
8380
ENDCHAR
STARTCHAR U_36D9
ENCODING 14041
SWIDTH 1000 0
DWIDTH 13 0
BBX 12 12 0 -1
BITMAP 
4100
4080
43E0
F800
5220
5140
97F0
5080
23E0
3080
4C80
8080
ENDCHAR
STARTCHAR U_36DA
ENCODING 14042
SWIDTH 1000 0
DWIDTH 13 0
BBX 12 12 0 -1
BITMAP 
47F0
4020
41C0
F040
57F0
5490
97F0
5490
27F0
3490
4C90
84B0
ENDCHAR
STARTCHAR U_36DB
ENCODING 14043
SWIDTH 1000 0
DWIDTH 13 0
BBX 12 12 0 -1
BITMAP 
2080
2100
23C0
FA40
4BC0
5240
93D0
5260
27C0
30C0
4940
86C0
ENDCHAR
STARTCHAR U_36DC
ENCODING 14044
SWIDTH 1000 0
DWIDTH 13 0
BBX 12 12 0 -1
BITMAP 
1100
2100
6BF0
AD20
28C0
2B30
0400
FFF0
0880
1900
0700
78F0
ENDCHAR
STARTCHAR U_36DD
ENCODING 14045
SWIDTH 1000 0
DWIDTH 13 0
BBX 12 12 0 -1
BITMAP 
2000
23E0
2220
FBE0
4A20
53E0
9220
5220
23E0
3000
4A20
8410
ENDCHAR
STARTCHAR U_36DE
ENCODING 14046
SWIDTH 1000 0
DWIDTH 13 0
BBX 12 12 0 -1
BITMAP 
2000
23E0
2080
FBE0
4880
4FF0
9000
5140
27F0
3140
4A40
8440
ENDCHAR
STARTCHAR U_36DF
ENCODING 14047
SWIDTH 1000 0
DWIDTH 13 0
BBX 12 12 0 -1
BITMAP 
2100
21E0
2220
F840
4BE0
52A0
92A0
52A0
27F0
3080
4940
8630
ENDCHAR
STARTCHAR U_36E0
ENCODING 14048
SWIDTH 1000 0
DWIDTH 13 0
BBX 12 12 0 -1
BITMAP 
2400
22F0
2410
FDD0
4D50
5550
95D0
5550
2550
35D0
4C10
8430
ENDCHAR
STARTCHAR U_36E1
ENCODING 14049
SWIDTH 1000 0
DWIDTH 13 0
BBX 12 12 0 -1
BITMAP 
2100
2080
27F0
FC10
4BE0
4800
97F0
5140
2140
3240
4A50
8430
ENDCHAR
STARTCHAR U_36E2
ENCODING 14050
SWIDTH 1000 0
DWIDTH 13 0
BBX 12 12 0 -1
BITMAP 
2060
2380
2080
FBF0
49C0
52A0
9490
53E0
2120
3130
4A10
8460
ENDCHAR
STARTCHAR U_36E3
ENCODING 14051
SWIDTH 1000 0
DWIDTH 13 0
BBX 12 12 0 -1
BITMAP 
43E0
4220
43E0
F800
53E0
5220
92A0
52A0
22A0
3080
4920
8610
ENDCHAR
STARTCHAR U_36E4
ENCODING 14052
SWIDTH 1000 0
DWIDTH 13 0
BBX 12 12 0 -1
BITMAP 
47F0
4000
4770
F550
5550
5550
5770
9550
6550
3550
4D50
8550
ENDCHAR
STARTCHAR U_36E5
ENCODING 14053
SWIDTH 1000 0
DWIDTH 13 0
BBX 12 12 0 -1
BITMAP 
2080
2080
27D0
F9A0
4A90
5480
9000
53F0
2210
33F0
4A10
83F0
ENDCHAR
STARTCHAR U_36E6
ENCODING 14054
SWIDTH 1000 0
DWIDTH 13 0
BBX 12 12 0 -1
BITMAP 
4240
4240
4240
F7F0
5240
5640
5360
92D0
6350
3240
4A40
8240
ENDCHAR
STARTCHAR U_36E7
ENCODING 14055
SWIDTH 1000 0
DWIDTH 13 0
BBX 12 12 0 -1
BITMAP 
2080
22A0
22A0
FBE0
4800
57F0
9100
53F0
2510
3110
49F0
8110
ENDCHAR
STARTCHAR U_36E8
ENCODING 14056
SWIDTH 1000 0
DWIDTH 13 0
BBX 12 12 0 -1
BITMAP 
2220
2140
27F0
F880
4BE0
5080
9080
57F0
2140
3150
4A50
8470
ENDCHAR
STARTCHAR U_36E9
ENCODING 14057
SWIDTH 1000 0
DWIDTH 13 0
BBX 12 12 0 -1
BITMAP 
4080
47F0
4120
F3E0
5010
53E0
9220
53E0
2220
33E0
4A20
8220
ENDCHAR
STARTCHAR U_36EA
ENCODING 14058
SWIDTH 1000 0
DWIDTH 13 0
BBX 12 12 0 -1
BITMAP 
4100
4FF0
4280
F460
5910
57E0
5520
97E0
6520
27E0
5110
80F0
ENDCHAR
STARTCHAR U_36EB
ENCODING 14059
SWIDTH 1000 0
DWIDTH 13 0
BBX 12 12 0 -1
BITMAP 
23E0
2220
23E0
FA20
4BE0
5100
97F0
5950
2250
3490
4110
8260
ENDCHAR
STARTCHAR U_36EC
ENCODING 14060
SWIDTH 1000 0
DWIDTH 13 0
BBX 12 12 0 -1
BITMAP 
2080
2080
23E0
F880
4FF0
5140
96B0
5080
23E0
3080
4880
87F0
ENDCHAR
STARTCHAR U_36ED
ENCODING 14061
SWIDTH 1000 0
DWIDTH 13 0
BBX 12 12 0 -1
BITMAP 
2140
2140
23E0
F940
4FF0
5000
93E0
5220
23E0
3220
4BE0
8220
ENDCHAR
STARTCHAR U_36EE
ENCODING 14062
SWIDTH 1000 0
DWIDTH 13 0
BBX 12 12 0 -1
BITMAP 
2080
27F0
2490
FAE0
4980
5080
9370
5000
23F0
3120
40C0
8730
ENDCHAR
STARTCHAR U_36EF
ENCODING 14063
SWIDTH 1000 0
DWIDTH 13 0
BBX 12 12 0 -1
BITMAP 
4840
5E40
44F0
FF50
B550
B550
B550
BF50
6A50
4A80
AA10
91F0
ENDCHAR
STARTCHAR U_36F0
ENCODING 14064
SWIDTH 1000 0
DWIDTH 13 0
BBX 12 12 0 -1
BITMAP 
27E0
2420
27E0
FC80
4FF0
5440
9430
53E0
2220
33E0
4A20
83E0
ENDCHAR
STARTCHAR U_36F1
ENCODING 14065
SWIDTH 1000 0
DWIDTH 13 0
BBX 12 12 0 -1
BITMAP 
27E0
2520
2520
FFE0
4D20
57E0
9000
57F0
2510
34A0
4D40
8630
ENDCHAR
STARTCHAR U_36F2
ENCODING 14066
SWIDTH 1000 0
DWIDTH 13 0
BBX 12 12 0 -1
BITMAP 
27F0
2080
23E0
FA20
4BE0
5220
93E0
5220
23E0
3000
4A20
8410
ENDCHAR
STARTCHAR U_36F3
ENCODING 14067
SWIDTH 1000 0
DWIDTH 13 0
BBX 12 12 0 -1
BITMAP 
0200
3FE0
1040
7FF0
4210
3FE0
2220
0800
FFF0
1880
0700
78F0
ENDCHAR
STARTCHAR U_36F4
ENCODING 14068
SWIDTH 1000 0
DWIDTH 13 0
BBX 12 12 0 -1
BITMAP 
2120
22F0
2520
FAA0
4AD0
5100
93F0
5370
2290
3350
4BF0
8210
ENDCHAR
STARTCHAR U_36F5
ENCODING 14069
SWIDTH 1000 0
DWIDTH 13 0
BBX 12 12 0 -1
BITMAP 
2030
27C0
2490
FA50
4880
53F0
9290
53F0
2290
33F0
4A90
82B0
ENDCHAR
STARTCHAR U_36F6
ENCODING 14070
SWIDTH 1000 0
DWIDTH 13 0
BBX 12 12 0 -1
BITMAP 
2080
2490
2490
FFF0
4A00
57F0
9240
5350
22E0
3440
4CA0
8110
ENDCHAR
STARTCHAR U_36F7
ENCODING 14071
SWIDTH 1000 0
DWIDTH 13 0
BBX 12 12 0 -1
BITMAP 
08A0
F090
13F0
FCC0
3950
5550
9230
0800
FFF0
1880
0700
78E0
ENDCHAR
STARTCHAR U_36F8
ENCODING 14072
SWIDTH 1000 0
DWIDTH 13 0
BBX 12 12 0 -1
BITMAP 
2080
2080
27F0
F880
4BE0
5000
93E0
5220
23E0
3220
4940
87F0
ENDCHAR
STARTCHAR U_36F9
ENCODING 14073
SWIDTH 1000 0
DWIDTH 13 0
BBX 12 12 0 -1
BITMAP 
2200
23F0
2440
FDF0
4D50
55F0
9550
55F0
2640
3580
4C80
8770
ENDCHAR
STARTCHAR U_36FA
ENCODING 14074
SWIDTH 1000 0
DWIDTH 13 0
BBX 12 12 0 -1
BITMAP 
2100
2080
27E0
FC20
4A40
57F0
9000
57E0
2420
37E0
4C20
87E0
ENDCHAR
STARTCHAR U_36FB
ENCODING 14075
SWIDTH 1000 0
DWIDTH 13 0
BBX 12 12 0 -1
BITMAP 
2080
27F0
2140
FE30
4880
53F0
9080
57F0
2080
33E0
4880
87F0
ENDCHAR
STARTCHAR U_36FC
ENCODING 14076
SWIDTH 1000 0
DWIDTH 13 0
BBX 12 12 0 -1
BITMAP 
2060
2780
2080
FBF0
4880
52B0
9490
5490
26B0
3490
4C90
87F0
ENDCHAR
STARTCHAR U_36FD
ENCODING 14077
SWIDTH 1000 0
DWIDTH 13 0
BBX 12 12 0 -1
BITMAP 
2100
2080
27F0
FC90
4AA0
51C0
97F0
5080
21C0
32A0
4C90
8080
ENDCHAR
STARTCHAR U_36FE
ENCODING 14078
SWIDTH 1000 0
DWIDTH 13 0
BBX 12 12 0 -1
BITMAP 
4040
4050
4FF0
F840
ABC0
A840
ABD0
AAA0
4AA0
6BF0
8890
9310
ENDCHAR
STARTCHAR U_36FF
ENCODING 14079
SWIDTH 1000 0
DWIDTH 13 0
BBX 12 12 0 -1
BITMAP 
42A0
42A0
47F0
FAA0
4FF0
5490
93E0
52A0
22A0
32A0
4880
8080
ENDCHAR
STARTCHAR U_3700
ENCODING 14080
SWIDTH 1000 0
DWIDTH 13 0
BBX 12 12 0 -1
BITMAP 
4200
4270
5FD0
F250
5770
56D0
9AD0
9A70
6250
2250
5270
8250
ENDCHAR
STARTCHAR U_3701
ENCODING 14081
SWIDTH 1000 0
DWIDTH 13 0
BBX 12 12 0 -1
BITMAP 
2080
27F0
21C0
FAA0
4C90
4BE0
9220
53E0
2220
33E0
4800
87F0
ENDCHAR
STARTCHAR U_3702
ENCODING 14082
SWIDTH 1000 0
DWIDTH 13 0
BBX 12 12 0 -1
BITMAP
1020
FFF0
1120
7CA0
1020
FE60
0800
FFF0
0880
1100
0E00
71E0
ENDCHAR
STARTCHAR U_3703
ENCODING 14083
SWIDTH 1000 0
DWIDTH 13 0
BBX 12 12 0 -1
BITMAP 
4280
4440
5FF0
F400
55E0
5400
95E0
9400
65E0
2520
5520
85E0
ENDCHAR
STARTCHAR U_3704
ENCODING 14084
SWIDTH 1000 0
DWIDTH 13 0
BBX 12 12 0 -1
BITMAP 
47E0
4460
57A0
F520
57E0
5560
5560
97E0
5520
2560
57E0
8810
ENDCHAR
STARTCHAR U_3705
ENCODING 14085
SWIDTH 1000 0
DWIDTH 13 0
BBX 12 12 0 -1
BITMAP 
4080
47F0
5120
F3C0
50A0
57F0
9000
93E0
52A0
23E0
52A0
83E0
ENDCHAR
STARTCHAR U_3706
ENCODING 14086
SWIDTH 1000 0
DWIDTH 13 0
BBX 12 12 0 -1
BITMAP 
4950
44E0
5040
FFF0
54C0
54E0
9560
5550
2650
3440
4E40
81F0
ENDCHAR
STARTCHAR U_3707
ENCODING 14087
SWIDTH 1000 0
DWIDTH 13 0
BBX 12 12 0 -1
BITMAP 
4080
53E0
F080
57F0
5080
53E0
5080
97F0
5100
26A0
5A30
83E0
ENDCHAR
STARTCHAR U_3708
ENCODING 14088
SWIDTH 1000 0
DWIDTH 13 0
BBX 12 12 0 -1
BITMAP 
7DE0
2B20
10C0
FF70
1DE0
28A0
4B20
FFF0
0480
0900
0F00
78C0
ENDCHAR
STARTCHAR U_3709
ENCODING 14089
SWIDTH 1000 0
DWIDTH 13 0
BBX 12 12 0 -1
BITMAP 
42A0
4540
52A0
F7E0
5420
57E0
9000
97E0
64A0
27E0
5410
87F0
ENDCHAR
STARTCHAR U_370A
ENCODING 14090
SWIDTH 1000 0
DWIDTH 13 0
BBX 12 12 0 -1
BITMAP 
47F0
4410
57F0
F540
57F0
5540
57F0
9540
5550
2560
55A0
8910
ENDCHAR
STARTCHAR U_370B
ENCODING 14091
SWIDTH 1000 0
DWIDTH 13 0
BBX 12 12 0 -1
BITMAP 
4420
4240
4FF0
F240
5220
9420
A410
B810
6FE0
2AA0
5AA0
9FF0
ENDCHAR
STARTCHAR U_370C
ENCODING 14092
SWIDTH 1000 0
DWIDTH 13 0
BBX 12 12 0 -1
BITMAP 
21E0
F920
2120
F920
0230
FC00
8BE0
7120
2120
F8C0
50C0
FB30
ENDCHAR
STARTCHAR U_370D
ENCODING 14093
SWIDTH 1000 0
DWIDTH 13 0
BBX 12 12 0 -1
BITMAP 
4080
47F0
5480
F7E0
54A0
57F0
54A0
97E0
5480
27E0
5A20
93E0
ENDCHAR
STARTCHAR U_370E
ENCODING 14094
SWIDTH 1000 0
DWIDTH 13 0
BBX 12 12 0 -1
BITMAP 
40F0
4710
52A0
F880
5120
5340
51A0
93F0
5080
27F0
5120
8610
ENDCHAR
STARTCHAR U_370F
ENCODING 14095
SWIDTH 1000 0
DWIDTH 13 0
BBX 12 12 0 -1
BITMAP 
43E0
5220
F7F0
5410
57F0
5410
57F0
9410
57F0
2120
5210
8410
ENDCHAR
STARTCHAR U_3710
ENCODING 14096
SWIDTH 1000 0
DWIDTH 13 0
BBX 12 12 0 -1
BITMAP 
4080
44A0
57E0
F000
57E0
5000
57E0
9420
57E0
2420
5240
8FF0
ENDCHAR
STARTCHAR U_3711
ENCODING 14097
SWIDTH 1000 0
DWIDTH 13 0
BBX 12 12 0 -1
BITMAP 
40A0
2FF0
84A0
57E0
24A0
C7E0
44A0
0420
FFF0
0880
0F00
78C0
ENDCHAR
STARTCHAR U_3712
ENCODING 14098
SWIDTH 1000 0
DWIDTH 13 0
BBX 12 12 0 -1
BITMAP 
4100
4670
5410
F770
5410
5730
5120
9120
67F0
2120
5220
8420
ENDCHAR
STARTCHAR U_3713
ENCODING 14099
SWIDTH 1000 0
DWIDTH 13 0
BBX 12 12 0 -1
BITMAP 
4220
4770
52A0
F080
5140
5220
55D0
9000
53E0
2220
5220
83E0
ENDCHAR
STARTCHAR U_3714
ENCODING 14100
SWIDTH 1000 0
DWIDTH 13 0
BBX 12 12 0 -1
BITMAP 
4100
47E0
5240
FFF0
5000
57E0
5420
9420
57E0
2240
5450
8870
ENDCHAR
STARTCHAR U_3715
ENCODING 14101
SWIDTH 1000 0
DWIDTH 13 0
BBX 12 12 0 -1
BITMAP 
4040
41F0
5840
F5F0
5F50
55F0
9550
95F0
6440
25F0
5B40
80F0
ENDCHAR
STARTCHAR U_3716
ENCODING 14102
SWIDTH 1000 0
DWIDTH 13 0
BBX 12 12 0 -1
BITMAP 
4140
47F0
5140
F7F0
5550
57F0
9550
97F0
6220
23E0
5220
83E0
ENDCHAR
STARTCHAR U_3717
ENCODING 14103
SWIDTH 1000 0
DWIDTH 13 0
BBX 12 12 0 -1
BITMAP 
4240
4FF0
5440
FAA0
5FF0
5280
9540
AE30
6180
2640
5180
8E00
ENDCHAR
STARTCHAR U_3718
ENCODING 14104
SWIDTH 1000 0
DWIDTH 13 0
BBX 12 12 0 -1
BITMAP 
4080
40E0
5080
F7F0
5550
57E0
5520
95E0
5520
25E0
5520
9BF0
ENDCHAR
STARTCHAR U_3719
ENCODING 14105
SWIDTH 1000 0
DWIDTH 13 0
BBX 12 12 0 -1
BITMAP 
4080
47F0
5540
F7F0
5550
57F0
5520
95B0
5520
2520
55A0
8930
ENDCHAR
STARTCHAR U_371A
ENCODING 14106
SWIDTH 1000 0
DWIDTH 13 0
BBX 12 12 0 -1
BITMAP 
4080
47F0
5410
F2F0
5240
56F0
9A90
9290
62F0
2290
5290
82F0
ENDCHAR
STARTCHAR U_371B
ENCODING 14107
SWIDTH 1000 0
DWIDTH 13 0
BBX 12 12 0 -1
BITMAP 
4480
5FF0
4550
FF40
5540
5F40
9540
9F40
64A0
3FA0
5490
8510
ENDCHAR
STARTCHAR U_371C
ENCODING 14108
SWIDTH 1000 0
DWIDTH 13 0
BBX 12 12 0 -1
BITMAP 
4240
4240
5770
F290
5750
5250
5FA0
9420
5720
2550
5550
8A90
ENDCHAR
STARTCHAR U_371D
ENCODING 14109
SWIDTH 1000 0
DWIDTH 13 0
BBX 12 12 0 -1
BITMAP 
4180
4240
5D30
F7C0
5080
9FF0
9240
6FF0
2A50
5DB0
4810
8FF0
ENDCHAR
STARTCHAR U_371E
ENCODING 14110
SWIDTH 1000 0
DWIDTH 13 0
BBX 12 12 0 -1
BITMAP 
10E0
FF00
11F0
7D20
5520
7D20
5620
FFF0
1480
0900
0F80
7860
ENDCHAR
STARTCHAR U_371F
ENCODING 14111
SWIDTH 1000 0
DWIDTH 13 0
BBX 12 12 0 -1
BITMAP 
4C80
44F0
FFA0
52A0
5EA0
52A0
5E40
D240
3F40
32A0
4AA0
8310
ENDCHAR
STARTCHAR U_3720
ENCODING 14112
SWIDTH 1000 0
DWIDTH 13 0
BBX 12 12 0 -1
BITMAP 
4080
4490
57F0
F280
5440
5FF0
5480
97E0
6480
27E0
5480
87F0
ENDCHAR
STARTCHAR U_3721
ENCODING 14113
SWIDTH 1000 0
DWIDTH 13 0
BBX 12 12 0 -1
BITMAP 
42A0
44A0
5AA0
F550
5C00
5440
9540
9570
6540
25C0
5540
8630
ENDCHAR
STARTCHAR U_3722
ENCODING 14114
SWIDTH 1000 0
DWIDTH 13 0
BBX 12 12 0 -1
BITMAP 
4100
4FE0
4920
FFF0
A920
AFE0
A920
AFE0
E140
3FF0
5240
8FE0
ENDCHAR
STARTCHAR U_3723
ENCODING 14115
SWIDTH 1000 0
DWIDTH 13 0
BBX 12 12 0 -1
BITMAP 
4440
4760
5950
F5F0
5340
5D40
5240
94A0
6B10
22A0
5550
8950
ENDCHAR
STARTCHAR U_3724
ENCODING 14116
SWIDTH 1000 0
DWIDTH 13 0
BBX 12 12 0 -1
BITMAP 
47F0
4140
57F0
F550
57F0
5220
93E0
5220
23E0
3080
57F0
8080
ENDCHAR
STARTCHAR U_3725
ENCODING 14117
SWIDTH 1000 0
DWIDTH 13 0
BBX 12 12 0 -1
BITMAP 
47F0
4550
57F0
F220
53E0
5220
93E0
9220
53E0
2120
5210
8410
ENDCHAR
STARTCHAR U_3726
ENCODING 14118
SWIDTH 1000 0
DWIDTH 13 0
BBX 12 12 0 -1
BITMAP 
47E0
4020
5FF0
F020
57F0
5250
5F70
9040
6FF0
2240
5140
80C0
ENDCHAR
STARTCHAR U_3727
ENCODING 14119
SWIDTH 1000 0
DWIDTH 13 0
BBX 12 12 0 -1
BITMAP 
4FF0
4CA0
FB20
6FB0
AA50
AAA0
AFA0
AA20
6A20
2A50
5A50
9490
ENDCHAR
STARTCHAR U_3728
ENCODING 14120
SWIDTH 1000 0
DWIDTH 13 0
BBX 12 12 0 -1
BITMAP 
4FF0
4810
EFF0
6EB0
A9C0
AEB0
A880
AA80
6FF0
2880
5FF0
9080
ENDCHAR
STARTCHAR U_3729
ENCODING 14121
SWIDTH 1000 0
DWIDTH 13 0
BBX 12 12 0 -1
BITMAP 
4100
57F0
F4D0
57B0
55D0
57F0
5490
95D0
56B0
2FF0
5140
8630
ENDCHAR
STARTCHAR U_372A
ENCODING 14122
SWIDTH 1000 0
DWIDTH 13 0
BBX 12 12 0 -1
BITMAP 
1030
FFC0
4500
FFF0
1120
FF20
5520
9220
FFF0
0880
1F80
F0E0
ENDCHAR
STARTCHAR U_372B
ENCODING 14123
SWIDTH 1000 0
DWIDTH 13 0
BBX 12 12 0 -1
BITMAP 
4540
4D40
F7F0
6850
BFD0
A850
AAA0
AAA0
6AA0
2AD0
5A50
8C90
ENDCHAR
STARTCHAR U_372C
ENCODING 14124
SWIDTH 1000 0
DWIDTH 13 0
BBX 12 12 0 -1
BITMAP 
41C0
4240
EFF0
6A20
AAA0
AFF0
A800
ABE0
6800
2BE0
5A20
93E0
ENDCHAR
STARTCHAR U_372D
ENCODING 14125
SWIDTH 1000 0
DWIDTH 13 0
BBX 12 12 0 -1
BITMAP 
4540
5FF0
F010
B7C0
A440
A7C0
A000
AFE0
6920
2FE0
5920
8FE0
ENDCHAR
STARTCHAR U_372E
ENCODING 14126
SWIDTH 1000 0
DWIDTH 13 0
BBX 12 12 0 -1
BITMAP 
4F40
4A40
EF70
6980
AF00
AA70
AF00
A000
6FE0
3AA0
4AA0
9FF0
ENDCHAR
STARTCHAR U_372F
ENCODING 14127
SWIDTH 1000 0
DWIDTH 13 0
BBX 12 12 0 -1
BITMAP 
4FF0
4A90
FA90
6FF0
A880
AF80
AA80
AA90
6FF0
2000
56A0
8950
ENDCHAR
STARTCHAR U_3730
ENCODING 14128
SWIDTH 1000 0
DWIDTH 13 0
BBX 12 12 0 -1
BITMAP 
4510
4BA0
FEF0
6790
AAA0
BFF0
A100
BFF0
6540
2520
5910
9110
ENDCHAR
STARTCHAR U_3731
ENCODING 14129
SWIDTH 1000 0
DWIDTH 13 0
BBX 12 12 0 -1
BITMAP 
4F70
4880
EFF0
6AA0
B7E0
A420
A7E0
A420
47E0
6420
57E0
8810
ENDCHAR
STARTCHAR U_3732
ENCODING 14130
SWIDTH 1000 0
DWIDTH 13 0
BBX 12 12 0 -1
BITMAP 
4080
4FF0
5400
F7E0
5420
57E0
9000
AF70
6BD0
2F70
5AD0
9750
ENDCHAR
STARTCHAR U_3733
ENCODING 14131
SWIDTH 1000 0
DWIDTH 13 0
BBX 12 12 0 -1
BITMAP 
4100
5FF0
4AA0
EFE0
6540
A380
AD60
A200
6520
3CC0
5640
8C30
ENDCHAR
STARTCHAR U_3734
ENCODING 14132
SWIDTH 1000 0
DWIDTH 13 0
BBX 12 12 0 -1
BITMAP 
4280
5EF0
E280
6FE0
AAA0
BFF0
B450
A7C0
6440
27C0
5440
87C0
ENDCHAR
STARTCHAR U_3735
ENCODING 14133
SWIDTH 1000 0
DWIDTH 13 0
BBX 12 12 0 -1
BITMAP 
4100
4FF0
5240
F3E0
5240
53E0
9240
93F0
6550
2EB0
5340
8630
ENDCHAR
STARTCHAR U_3736
ENCODING 14134
SWIDTH 1000 0
DWIDTH 13 0
BBX 12 12 0 -1
BITMAP 
4180
4280
5FF0
F410
57F0
5550
56B0
9FF0
5510
27F0
52A0
8CF0
ENDCHAR
STARTCHAR U_3737
ENCODING 14135
SWIDTH 1000 0
DWIDTH 13 0
BBX 12 12 0 -1
BITMAP 
F7F0
12A0
F7F0
85B0
F6D0
15B0
36D0
0480
FFF0
0880
1F00
70C0
ENDCHAR
STARTCHAR U_3738
ENCODING 14136
SWIDTH 1000 0
DWIDTH 13 0
BBX 12 12 0 -1
BITMAP 
2040
FFF0
4040
F9F0
88A0
F3F0
8840
FFF0
0940
1100
0E00
71C0
ENDCHAR
STARTCHAR U_3739
ENCODING 14137
SWIDTH 1000 0
DWIDTH 13 0
BBX 12 12 0 -1
BITMAP 
4770
4550
5770
F550
5770
5280
9240
57F0
2A40
33E0
5240
83F0
ENDCHAR
STARTCHAR U_373A
ENCODING 14138
SWIDTH 1000 0
DWIDTH 13 0
BBX 12 12 0 -1
BITMAP 
4AA0
4FF0
5220
EFF0
6660
ABF0
A420
A7E0
6420
27E0
5220
8C10
ENDCHAR
STARTCHAR U_373B
ENCODING 14139
SWIDTH 1000 0
DWIDTH 13 0
BBX 12 12 0 -1
BITMAP 
4920
53A0
EC50
6BE0
A820
B7D0
BEF0
AAA0
57D0
6A20
4D50
97F0
ENDCHAR
STARTCHAR U_373C
ENCODING 14140
SWIDTH 1000 0
DWIDTH 13 0
BBX 12 12 0 -1
BITMAP 
47C0
4540
5FF0
F550
5FF0
5550
9FF0
94D0
6740
25C0
5640
8FF0
ENDCHAR
STARTCHAR U_373D
ENCODING 14141
SWIDTH 1000 0
DWIDTH 13 0
BBX 12 12 0 -1
BITMAP 
2220
4440
4440
2220
3F80
0100
0220
FFF0
0200
0200
0E00
0200
ENDCHAR
STARTCHAR U_373E
ENCODING 14142
SWIDTH 1000 0
DWIDTH 13 0
BBX 12 12 0 -1
BITMAP
0100
F100
1280
2440
2830
3240
6240
A240
2240
2240
A440
4440
ENDCHAR
STARTCHAR U_373F
ENCODING 14143
SWIDTH 1000 0
DWIDTH 13 0
BBX 12 12 0 -1
BITMAP 
F3F0
1020
20C0
2040
27F0
3050
E040
2040
2040
2040
6140
20C0
ENDCHAR
STARTCHAR U_3740
ENCODING 14144
SWIDTH 1000 0
DWIDTH 13 0
BBX 12 12 0 -1
BITMAP 
7DF0
6420
5440
5440
FE40
65F0
5440
9440
FE40
0440
1440
0CC0
ENDCHAR
STARTCHAR U_3741
ENCODING 14145
SWIDTH 1000 0
DWIDTH 13 0
BBX 12 12 0 -1
BITMAP 
2040
3FF0
5110
9F10
1110
1F60
0000
3F80
0220
FFF0
0200
0E00
ENDCHAR
STARTCHAR U_3742
ENCODING 14146
SWIDTH 1000 0
DWIDTH 13 0
BBX 12 12 0 -1
BITMAP 
F430
25C0
5F00
4500
45F0
7520
C720
5D20
4520
4520
CD20
4620
ENDCHAR
STARTCHAR U_3743
ENCODING 14147
SWIDTH 1000 0
DWIDTH 13 0
BBX 12 12 0 -1
BITMAP 
F200
23C0
4480
4FF0
4490
7490
C7F0
4280
4280
4280
4490
C870
ENDCHAR
STARTCHAR U_3744
ENCODING 14148
SWIDTH 1000 0
DWIDTH 13 0
BBX 12 12 0 -1
BITMAP 
2080
FCA0
03F0
7880
4AA0
7AA0
02A0
FEA0
13E0
3AA0
D090
30F0
ENDCHAR
STARTCHAR U_3745
ENCODING 14149
SWIDTH 1000 0
DWIDTH 13 0
BBX 12 12 0 -1
BITMAP 
23C0
FA40
2240
7240
0430
FBC0
8940
7140
3880
E080
2140
6630
ENDCHAR
STARTCHAR U_3746
ENCODING 14150
SWIDTH 1000 0
DWIDTH 13 0
BBX 12 12 0 -1
BITMAP 
2080
F7F0
1080
23E0
2220
33E0
6140
AFF0
2000
23E0
6220
23E0
ENDCHAR
STARTCHAR U_3747
ENCODING 14151
SWIDTH 1000 0
DWIDTH 13 0
BBX 12 12 0 -1
BITMAP 
2080
FFF0
0000
79E0
4920
79E0
0000
79E0
1C40
F3F0
1040
30C0
ENDCHAR
STARTCHAR U_3748
ENCODING 14152
SWIDTH 1000 0
DWIDTH 13 0
BBX 12 12 0 -1
BITMAP 
2220
5750
E0E0
5750
F0F0
5750
ADA0
7770
2020
FDF0
2020
6060
ENDCHAR
STARTCHAR U_3749
ENCODING 14153
SWIDTH 1000 0
DWIDTH 13 0
BBX 12 12 0 -1
BITMAP 
0000
0400
0200
0200
7FF0
4010
8020
0000
0040
3FE0
0000
0000
ENDCHAR
STARTCHAR U_374A
ENCODING 14154
SWIDTH 1000 0
DWIDTH 13 0
BBX 12 12 0 -1
BITMAP 
0400
4220
7FF0
8020
3FC0
0840
0880
0500
0200
0500
18C0
E030
ENDCHAR
STARTCHAR U_374B
ENCODING 14155
SWIDTH 1000 0
DWIDTH 13 0
BBX 12 12 0 -1
BITMAP 
0400
0200
7FF0
4020
9F80
0100
0200
0200
0200
0200
0A00
0400
ENDCHAR
STARTCHAR U_374C
ENCODING 14156
SWIDTH 1000 0
DWIDTH 13 0
BBX 12 12 0 -1
BITMAP 
0400
0200
7FF0
4820
8F80
1100
2200
0600
0900
1080
2040
C030
ENDCHAR
STARTCHAR U_374D
ENCODING 14157
SWIDTH 1000 0
DWIDTH 13 0
BBX 12 12 0 -1
BITMAP 
0400
0200
7FF0
4820
8800
1FC0
1000
3FC0
0040
FFF0
0080
0300
ENDCHAR
STARTCHAR U_374E
ENCODING 14158
SWIDTH 1000 0
DWIDTH 13 0
BBX 12 12 0 -1
BITMAP 
0400
4220
7FF0
8020
0400
0200
3FC0
0080
0300
0C00
7E00
01F0
ENDCHAR
STARTCHAR U_374F
ENCODING 14159
SWIDTH 1000 0
DWIDTH 13 0
BBX 12 12 0 -1
BITMAP 
0400
4220
7FF0
8420
0A00
1100
2980
C970
0900
0900
1100
2100
ENDCHAR
STARTCHAR U_3750
ENCODING 14160
SWIDTH 1000 0
DWIDTH 13 0
BBX 12 12 0 -1
BITMAP 
0400
0200
7FF0
4010
8B20
1080
2440
C430
0800
0880
13C0
3C40
ENDCHAR
STARTCHAR U_3751
ENCODING 14161
SWIDTH 1000 0
DWIDTH 13 0
BBX 12 12 0 -1
BITMAP 
0400
0200
7FF0
8410
0200
FFF0
0800
0FE0
0820
1020
2020
C1C0
ENDCHAR
STARTCHAR U_3752
ENCODING 14162
SWIDTH 1000 0
DWIDTH 13 0
BBX 12 12 0 -1
BITMAP 
0800
0400
FFE0
8020
0400
7FC0
0400
0400
3F80
2080
2080
3F80
ENDCHAR
STARTCHAR U_3753
ENCODING 14163
SWIDTH 1000 0
DWIDTH 13 0
BBX 12 12 0 -1
BITMAP 
0400
0200
7FF0
4010
8620
1980
2040
DFB0
0000
3FC0
2040
3FC0
ENDCHAR
STARTCHAR U_3754
ENCODING 14164
SWIDTH 1000 0
DWIDTH 13 0
BBX 12 12 0 -1
BITMAP 
0800
0400
FFE0
8820
0400
FFE0
1100
2080
5140
0E00
3180
C060
ENDCHAR
STARTCHAR U_3755
ENCODING 14165
SWIDTH 1000 0
DWIDTH 13 0
BBX 12 12 0 -1
BITMAP 
0400
FFE0
8820
0400
5140
8F20
0000
7FC0
2080
1100
0E00
F1E0
ENDCHAR
STARTCHAR U_3756
ENCODING 14166
SWIDTH 1000 0
DWIDTH 13 0
BBX 12 12 0 -1
BITMAP 
0400
7FF0
8420
0B80
1880
2500
0E00
7400
0FC0
3880
0700
7C00
ENDCHAR
STARTCHAR U_3757
ENCODING 14167
SWIDTH 1000 0
DWIDTH 13 0
BBX 12 12 0 -1
BITMAP 
0200
7FF0
4210
BFE0
2040
3FC0
2040
3FC0
2840
2480
2B00
30E0
ENDCHAR
STARTCHAR U_3758
ENCODING 14168
SWIDTH 1000 0
DWIDTH 13 0
BBX 12 12 0 -1
BITMAP 
0400
FFF0
8210
7FE0
0000
3FC0
0000
3FC0
0000
3FC0
2040
3FC0
ENDCHAR
STARTCHAR U_3759
ENCODING 14169
SWIDTH 1000 0
DWIDTH 13 0
BBX 12 12 0 -1
BITMAP 
0200
3FF0
4020
3FE0
0200
3FC0
0200
3FE0
0000
7FF0
1040
2020
ENDCHAR
STARTCHAR U_375A
ENCODING 14170
SWIDTH 1000 0
DWIDTH 13 0
BBX 12 12 0 -1
BITMAP 
0400
7FF0
8020
7040
1780
2100
75C0
1500
5500
2FE0
5000
8FF0
ENDCHAR
STARTCHAR U_375B
ENCODING 14171
SWIDTH 1000 0
DWIDTH 13 0
BBX 12 12 0 -1
BITMAP 
0400
7FF0
9020
2FF0
4100
AFE0
2920
2AA0
2C60
2820
2FE0
2820
ENDCHAR
STARTCHAR U_375C
ENCODING 14172
SWIDTH 1000 0
DWIDTH 13 0
BBX 12 12 0 -1
BITMAP 
0400
7FF0
90A0
7FE0
1080
FFF0
0000
3FC0
2040
3FC0
2040
3FC0
ENDCHAR
STARTCHAR U_375D
ENCODING 14173
SWIDTH 1000 0
DWIDTH 13 0
BBX 12 12 0 -1
BITMAP 
0200
7FF0
4010
8020
2080
2080
FBE0
71C0
AAA0
28B0
2080
2080
ENDCHAR
STARTCHAR U_375E
ENCODING 14174
SWIDTH 1000 0
DWIDTH 13 0
BBX 12 12 0 -1
BITMAP 
0200
7FF0
4010
8020
3FC0
0900
39C0
2040
2040
39C0
0900
FFF0
ENDCHAR
STARTCHAR U_375F
ENCODING 14175
SWIDTH 1000 0
DWIDTH 13 0
BBX 12 12 0 -1
BITMAP 
0600
FFF0
8010
BFD0
0000
3FC0
2040
3FC0
2040
3FC0
0910
F9F0
ENDCHAR
STARTCHAR U_3760
ENCODING 14176
SWIDTH 1000 0
DWIDTH 13 0
BBX 12 12 0 -1
BITMAP 
0200
7FF0
4010
9FA0
1080
1F80
1080
1F80
0200
7FF0
0880
3060
ENDCHAR
STARTCHAR U_3761
ENCODING 14177
SWIDTH 1000 0
DWIDTH 13 0
BBX 12 12 0 -1
BITMAP 
0200
7FF0
4010
8020
7800
2BE0
3A20
2940
3880
2940
7A20
0C10
ENDCHAR
STARTCHAR U_3762
ENCODING 14178
SWIDTH 1000 0
DWIDTH 13 0
BBX 12 12 0 -1
BITMAP 
0200
7FF0
4090
9F20
0400
1F80
1480
7FE0
4520
47A0
5CA0
4060
ENDCHAR
STARTCHAR U_3763
ENCODING 14179
SWIDTH 1000 0
DWIDTH 13 0
BBX 12 12 0 -1
BITMAP
0400
FFF0
9010
7FE0
1120
7D20
1220
FCC0
1200
FFF0
0880
F070
ENDCHAR
STARTCHAR U_3764
ENCODING 14180
SWIDTH 1000 0
DWIDTH 13 0
BBX 12 12 0 -1
BITMAP 
0200
7FF0
8890
3FE0
0880
7FF0
1240
1FC0
1240
FFF0
1040
10C0
ENDCHAR
STARTCHAR U_3765
ENCODING 14181
SWIDTH 1000 0
DWIDTH 13 0
BBX 12 12 0 -1
BITMAP 
0400
7FF0
8010
4880
4C90
4AA0
7FF0
0880
F9C0
4AA0
4C90
8880
ENDCHAR
STARTCHAR U_3766
ENCODING 14182
SWIDTH 1000 0
DWIDTH 13 0
BBX 12 12 0 -1
BITMAP 
0400
7FF0
9110
1FE0
7100
1FC0
1100
7FF0
0880
08E0
1020
6060
ENDCHAR
STARTCHAR U_3767
ENCODING 14183
SWIDTH 1000 0
DWIDTH 13 0
BBX 12 12 0 -1
BITMAP 
0400
FFF0
9090
7FE0
1080
0F00
70E0
1240
2AA0
7FE0
0200
FFF0
ENDCHAR
STARTCHAR U_3768
ENCODING 14184
SWIDTH 1000 0
DWIDTH 13 0
BBX 12 12 0 -1
BITMAP 
0400
FFF0
8210
3FC0
0200
FFF0
2040
3FC0
0A20
3140
D480
1870
ENDCHAR
STARTCHAR U_3769
ENCODING 14185
SWIDTH 1000 0
DWIDTH 13 0
BBX 12 12 0 -1
BITMAP 
0400
7FF0
4210
BFE0
2240
3FF0
2240
3FC0
3220
4F40
4A80
B660
ENDCHAR
STARTCHAR U_376A
ENCODING 14186
SWIDTH 1000 0
DWIDTH 13 0
BBX 12 12 0 -1
BITMAP 
0400
FFF0
9090
7C80
13E0
FCA0
29A0
7CE0
10A0
FCA0
1130
1210
ENDCHAR
STARTCHAR U_376B
ENCODING 14187
SWIDTH 1000 0
DWIDTH 13 0
BBX 12 12 0 -1
BITMAP 
0400
FFF0
8210
73E0
5620
61C0
56B0
53E0
5480
63E0
4080
4FF0
ENDCHAR
STARTCHAR U_376C
ENCODING 14188
SWIDTH 1000 0
DWIDTH 13 0
BBX 12 12 0 -1
BITMAP 
1040
FE40
9240
7DF0
1040
7C40
13F0
FC40
1040
7CA0
4520
7E10
ENDCHAR
STARTCHAR U_376D
ENCODING 14189
SWIDTH 1000 0
DWIDTH 13 0
BBX 12 12 0 -1
BITMAP 
0400
FFF0
8010
27E0
24A0
B7E0
AA80
A7E0
2880
27E0
2080
3FF0
ENDCHAR
STARTCHAR U_376E
ENCODING 14190
SWIDTH 1000 0
DWIDTH 13 0
BBX 12 12 0 -1
BITMAP 
0400
FFF0
8010
1000
95E0
FD20
9520
FD20
10C0
FCC0
5920
9610
ENDCHAR
STARTCHAR U_376F
ENCODING 14191
SWIDTH 1000 0
DWIDTH 13 0
BBX 12 12 0 -1
BITMAP 
0400
7FF0
8010
BFA0
0400
FFF0
2940
C930
3FC0
2940
2F40
20C0
ENDCHAR
STARTCHAR U_3770
ENCODING 14192
SWIDTH 1000 0
DWIDTH 13 0
BBX 12 12 0 -1
BITMAP 
0200
FFF0
8810
1FC0
1240
7FF0
A450
5FA0
0400
07C0
0840
30C0
ENDCHAR
STARTCHAR U_3771
ENCODING 14193
SWIDTH 1000 0
DWIDTH 13 0
BBX 12 12 0 -1
BITMAP 
0200
7FF0
8010
1140
57F0
5140
77F0
1550
F7F0
52A0
50C0
9700
ENDCHAR
STARTCHAR U_3772
ENCODING 14194
SWIDTH 1000 0
DWIDTH 13 0
BBX 12 12 0 -1
BITMAP 
0200
FFF0
8290
57E0
5AA0
77F0
1940
FFF0
5890
57E0
94A0
1080
ENDCHAR
STARTCHAR U_3773
ENCODING 14195
SWIDTH 1000 0
DWIDTH 13 0
BBX 12 12 0 -1
BITMAP 
0400
0400
0400
FFF0
0400
2440
2520
4490
8490
0400
1400
0800
ENDCHAR
STARTCHAR U_3774
ENCODING 14196
SWIDTH 1000 0
DWIDTH 13 0
BBX 12 12 0 -1
BITMAP 
0020
7820
0020
03F0
FC20
2920
28A0
28A0
2820
4860
4810
87F0
ENDCHAR
STARTCHAR U_3775
ENCODING 14197
SWIDTH 1000 0
DWIDTH 13 0
BBX 12 12 0 -1
BITMAP 
3FC0
2040
3FC0
2040
3FC0
0000
3FC0
0080
FFF0
1080
0880
0380
ENDCHAR
STARTCHAR U_3776
ENCODING 14198
SWIDTH 1000 0
DWIDTH 13 0
BBX 12 12 0 -1
BITMAP 
7FE0
48A0
7FE0
0910
1110
E0F0
0080
FFF0
1080
0880
0880
0180
ENDCHAR
STARTCHAR U_3777
ENCODING 14199
SWIDTH 1000 0
DWIDTH 13 0
BBX 12 12 0 -1
BITMAP 
3FC0
0040
3FC0
0040
7FE0
12A0
FDB0
0290
FFF0
2080
1080
0380
ENDCHAR
STARTCHAR U_3778
ENCODING 14200
SWIDTH 1000 0
DWIDTH 13 0
BBX 12 12 0 -1
BITMAP 
0400
24C0
CC30
1000
3FC0
2040
3FC0
2040
3FC0
1110
2110
C0F0
ENDCHAR
STARTCHAR U_3779
ENCODING 14201
SWIDTH 1000 0
DWIDTH 13 0
BBX 12 12 0 -1
BITMAP
0400
2440
C5A0
0E10
F700
0900
3FC0
2240
3FC0
0A80
1250
E1F0
ENDCHAR
STARTCHAR U_377A
ENCODING 14202
SWIDTH 1000 0
DWIDTH 13 0
BBX 12 12 0 -1
BITMAP 
8840
5040
FC40
5060
FD50
5550
FD40
5650
FC60
5840
D480
5700
ENDCHAR
STARTCHAR U_377B
ENCODING 14203
SWIDTH 1000 0
DWIDTH 13 0
BBX 12 12 0 -1
BITMAP 
4840
FC40
4840
FD60
A550
FD50
2250
FC40
2060
7840
2080
FF00
ENDCHAR
STARTCHAR U_377C
ENCODING 14204
SWIDTH 1000 0
DWIDTH 13 0
BBX 12 12 0 -1
BITMAP 
4000
43E0
4080
F880
57F0
5080
5080
5080
5280
5110
9010
8FF0
ENDCHAR
STARTCHAR U_377D
ENCODING 14205
SWIDTH 1000 0
DWIDTH 13 0
BBX 12 12 0 -1
BITMAP 
4080
4080
F880
5790
51A0
52C0
5CA0
5090
5280
5110
9010
8FF0
ENDCHAR
STARTCHAR U_377E
ENCODING 14206
SWIDTH 1000 0
DWIDTH 13 0
BBX 12 12 0 -1
BITMAP 
4100
4100
4100
FBF0
5100
5100
53E0
5240
5440
51F0
9010
8FF0
ENDCHAR
STARTCHAR U_377F
ENCODING 14207
SWIDTH 1000 0
DWIDTH 13 0
BBX 12 12 0 -1
BITMAP 
4080
4080
47E0
FCA0
5480
57E0
5520
54C0
54C0
5B30
9010
8FF0
ENDCHAR
STARTCHAR U_3780
ENCODING 14208
SWIDTH 1000 0
DWIDTH 13 0
BBX 12 12 0 -1
BITMAP 
4200
4200
47F0
FA40
5350
52E0
5240
54A0
5B10
5000
9010
8FF0
ENDCHAR
STARTCHAR U_3781
ENCODING 14209
SWIDTH 1000 0
DWIDTH 13 0
BBX 12 12 0 -1
BITMAP 
43E0
4220
43E0
FA20
53E0
5200
5260
5380
5220
51E0
9010
8FF0
ENDCHAR
STARTCHAR U_3782
ENCODING 14210
SWIDTH 1000 0
DWIDTH 13 0
BBX 12 12 0 -1
BITMAP 
40E0
4720
42A0
F940
5120
57F0
5120
5220
51C0
5620
9010
8FF0
ENDCHAR
STARTCHAR U_3783
ENCODING 14211
SWIDTH 1000 0
DWIDTH 13 0
BBX 12 12 0 -1
BITMAP 
5100
4940
8520
27F0
3140
4940
8540
7940
4940
4A40
7A50
4C70
ENDCHAR
STARTCHAR U_3784
ENCODING 14212
SWIDTH 1000 0
DWIDTH 13 0
BBX 12 12 0 -1
BITMAP 
4080
47F0
42A0
FFF0
52A0
53E0
52A0
53E0
5090
50F0
9010
8FF0
ENDCHAR
STARTCHAR U_3785
ENCODING 14213
SWIDTH 1000 0
DWIDTH 13 0
BBX 12 12 0 -1
BITMAP 
43E0
42A0
FBE0
52A0
53E0
5080
5FF0
51C0
52A0
5C90
9010
8FF0
ENDCHAR
STARTCHAR U_3786
ENCODING 14214
SWIDTH 1000 0
DWIDTH 13 0
BBX 12 12 0 -1
BITMAP 
4080
47F0
4140
FA20
57F0
5020
53A0
52A0
53A0
5060
9010
8FF0
ENDCHAR
STARTCHAR U_3787
ENCODING 14215
SWIDTH 1000 0
DWIDTH 13 0
BBX 12 12 0 -1
BITMAP 
43E0
42A0
43E0
FAA0
53E0
5000
5FF0
52A0
52C0
5340
9230
8FF0
ENDCHAR
STARTCHAR U_3788
ENCODING 14216
SWIDTH 1000 0
DWIDTH 13 0
BBX 12 12 0 -1
BITMAP 
4080
47F0
4410
FFF0
5400
57F0
5550
57F0
5550
5960
9010
8FF0
ENDCHAR
STARTCHAR U_3789
ENCODING 14217
SWIDTH 1000 0
DWIDTH 13 0
BBX 12 12 0 -1
BITMAP 
4240
47E0
4100
FBC0
5100
57E0
5200
53E0
5480
5BE0
9010
8FF0
ENDCHAR
STARTCHAR U_378A
ENCODING 14218
SWIDTH 1000 0
DWIDTH 13 0
BBX 12 12 0 -1
BITMAP 
A900
F900
27F0
A940
F940
0140
7140
0140
F940
7240
AA50
2470
ENDCHAR
STARTCHAR U_378B
ENCODING 14219
SWIDTH 1000 0
DWIDTH 13 0
BBX 12 12 0 -1
BITMAP 
3FE0
2020
2020
3FE0
2000
3FE0
2420
2440
2280
4380
8440
3830
ENDCHAR
STARTCHAR U_378C
ENCODING 14220
SWIDTH 1000 0
DWIDTH 13 0
BBX 12 12 0 -1
BITMAP 
7FE0
4020
7FE0
4000
4FC0
4040
4080
7FF0
4100
4100
8100
8700
ENDCHAR
STARTCHAR U_378D
ENCODING 14221
SWIDTH 1000 0
DWIDTH 13 0
BBX 12 12 0 -1
BITMAP 
7FE0
4020
4020
7FE0
4400
4400
5FC0
4440
4C40
4640
8950
B030
ENDCHAR
STARTCHAR U_378E
ENCODING 14222
SWIDTH 1000 0
DWIDTH 13 0
BBX 12 12 0 -1
BITMAP 
3FE0
2020
2020
3FE0
2000
2FE0
2920
2FE0
2800
4810
4810
87F0
ENDCHAR
STARTCHAR U_378F
ENCODING 14223
SWIDTH 1000 0
DWIDTH 13 0
BBX 12 12 0 -1
BITMAP 
7FE0
4020
7FE0
4000
43E0
5E00
4100
5FC0
4040
4180
8600
B9F0
ENDCHAR
STARTCHAR U_3790
ENCODING 14224
SWIDTH 1000 0
DWIDTH 13 0
BBX 12 12 0 -1
BITMAP 
3FE0
2020
2020
3FE0
2200
2100
3FE0
2000
2840
4440
4480
9FF0
ENDCHAR
STARTCHAR U_3791
ENCODING 14225
SWIDTH 1000 0
DWIDTH 13 0
BBX 12 12 0 -1
BITMAP 
3FF0
2010
3FF0
2000
2100
2D70
2100
2100
2D70
4100
4110
80F0
ENDCHAR
STARTCHAR U_3792
ENCODING 14226
SWIDTH 1000 0
DWIDTH 13 0
BBX 12 12 0 -1
BITMAP 
7FF0
4010
7FF0
4400
5FE0
5020
5FE0
5020
5FE0
5020
9FE0
9020
ENDCHAR
STARTCHAR U_3793
ENCODING 14227
SWIDTH 1000 0
DWIDTH 13 0
BBX 12 12 0 -1
BITMAP 
7FF0
4010
7FF0
5000
5FE0
5010
4FF0
5020
5FE0
5020
9FE0
9020
ENDCHAR
STARTCHAR U_3794
ENCODING 14228
SWIDTH 1000 0
DWIDTH 13 0
BBX 12 12 0 -1
BITMAP 
7FE0
4020
7FE0
4200
5FC0
4480
4740
78F0
4710
40A0
81C0
BE00
ENDCHAR
STARTCHAR U_3795
ENCODING 14229
SWIDTH 1000 0
DWIDTH 13 0
BBX 12 12 0 -1
BITMAP 
7FE0
4020
7FE0
4840
7030
4FC0
4840
4FC0
4840
4FC0
8840
88C0
ENDCHAR
STARTCHAR U_3796
ENCODING 14230
SWIDTH 1000 0
DWIDTH 13 0
BBX 12 12 0 -1
BITMAP 
3FE0
2020
3FE0
2100
3FF0
2100
2FE0
2920
2920
4BE0
4540
9930
ENDCHAR
STARTCHAR U_3797
ENCODING 14231
SWIDTH 1000 0
DWIDTH 13 0
BBX 12 12 0 -1
BITMAP 
7FE0
4020
7FE0
4140
4120
7FF0
5110
49A0
4340
4D20
B110
8300
ENDCHAR
STARTCHAR U_3798
ENCODING 14232
SWIDTH 1000 0
DWIDTH 13 0
BBX 12 12 0 -1
BITMAP 
7FE0
4020
7FE0
4000
5FF0
4600
5B20
4DC0
5B40
4520
9910
8600
ENDCHAR
STARTCHAR U_3799
ENCODING 14233
SWIDTH 1000 0
DWIDTH 13 0
BBX 12 12 0 -1
BITMAP 
7FE0
4020
7FE0
4200
5FC0
4200
5FE0
4210
43F0
5A40
8B80
F670
ENDCHAR
STARTCHAR U_379A
ENCODING 14234
SWIDTH 1000 0
DWIDTH 13 0
BBX 12 12 0 -1
BITMAP 
7FE0
4020
7FE0
4000
4FC0
4100
7FF0
4960
5120
5DE0
5120
9FE0
ENDCHAR
STARTCHAR U_379B
ENCODING 14235
SWIDTH 1000 0
DWIDTH 13 0
BBX 12 12 0 -1
BITMAP 
3FE0
2020
3FE0
2500
39E0
2100
2510
38F0
2920
69E0
4920
89E0
ENDCHAR
STARTCHAR U_379C
ENCODING 14236
SWIDTH 1000 0
DWIDTH 13 0
BBX 12 12 0 -1
BITMAP 
7FE0
4020
7FE0
4800
53E0
6080
4FF0
52A0
77F0
5120
91E0
9630
ENDCHAR
STARTCHAR U_379D
ENCODING 14237
SWIDTH 1000 0
DWIDTH 13 0
BBX 12 12 0 -1
BITMAP 
00A0
7FF0
4880
4E90
4860
7F60
AA90
BFE0
2020
3FE0
2000
4000
ENDCHAR
STARTCHAR U_379E
ENCODING 14238
SWIDTH 1000 0
DWIDTH 13 0
BBX 12 12 0 -1
BITMAP 
7FE0
4020
7FE0
4A40
7360
4C90
7080
5280
52E0
5280
9580
9870
ENDCHAR
STARTCHAR U_379F
ENCODING 14239
SWIDTH 1000 0
DWIDTH 13 0
BBX 12 12 0 -1
BITMAP 
7FE0
4020
7FE0
4840
7FF0
4480
5FE0
54A0
5B60
7FF0
4840
B030
ENDCHAR
STARTCHAR U_37A0
ENCODING 14240
SWIDTH 1000 0
DWIDTH 13 0
BBX 12 12 0 -1
BITMAP 
7FF0
4010
7FF0
4100
5FF0
5450
4FE0
5930
48A0
4FE0
8540
9B30
ENDCHAR
STARTCHAR U_37A1
ENCODING 14241
SWIDTH 1000 0
DWIDTH 13 0
BBX 12 12 0 -1
BITMAP 
7FF0
4010
7FF0
4000
5EF0
4440
5EF0
4440
5EF0
4CA0
B440
8630
ENDCHAR
STARTCHAR U_37A2
ENCODING 14242
SWIDTH 1000 0
DWIDTH 13 0
BBX 12 12 0 -1
BITMAP 
0200
0200
2220
2220
2220
2220
2220
3FE0
0200
0200
0220
7FF0
ENDCHAR
STARTCHAR U_37A3
ENCODING 14243
SWIDTH 1000 0
DWIDTH 13 0
BBX 12 12 0 -1
BITMAP 
0200
4220
7FE0
0400
1800
6C80
1040
6020
BFD0
0840
3040
C180
ENDCHAR
STARTCHAR U_37A4
ENCODING 14244
SWIDTH 1000 0
DWIDTH 13 0
BBX 12 12 0 -1
BITMAP 
0200
2220
2220
3FE0
0000
0200
0200
0500
0500
0880
1040
6030
ENDCHAR
STARTCHAR U_37A5
ENCODING 14245
SWIDTH 1000 0
DWIDTH 13 0
BBX 12 12 0 -1
BITMAP 
0200
2220
2220
3FE0
0000
0400
0200
0200
0500
0880
1040
6030
ENDCHAR
STARTCHAR U_37A6
ENCODING 14246
SWIDTH 1000 0
DWIDTH 13 0
BBX 12 12 0 -1
BITMAP 
23C0
2240
2240
AA40
AA40
AA40
AA40
AA40
BA50
EC50
0450
1830
ENDCHAR
STARTCHAR U_37A7
ENCODING 14247
SWIDTH 1000 0
DWIDTH 13 0
BBX 12 12 0 -1
BITMAP 
0200
4210
4210
7FF0
0000
7FE0
0840
0880
10F0
1010
2010
C060
ENDCHAR
STARTCHAR U_37A8
ENCODING 14248
SWIDTH 1000 0
DWIDTH 13 0
BBX 12 12 0 -1
BITMAP 
23E0
2020
2040
A880
A880
AFF0
A880
A880
B880
E880
0080
0180
ENDCHAR
STARTCHAR U_37A9
ENCODING 14249
SWIDTH 1000 0
DWIDTH 13 0
BBX 12 12 0 -1
BITMAP 
0200
2220
2220
3FE0
0000
0F80
0880
0C80
0B80
1080
2090
C070
ENDCHAR
STARTCHAR U_37AA
ENCODING 14250
SWIDTH 1000 0
DWIDTH 13 0
BBX 12 12 0 -1
BITMAP 
3FC0
0040
3FC0
0040
FFF0
0000
0400
0400
4420
4420
4420
7FE0
ENDCHAR
STARTCHAR U_37AB
ENCODING 14251
SWIDTH 1000 0
DWIDTH 13 0
BBX 12 12 0 -1
BITMAP 
0400
4420
4420
7FE0
0400
0200
7FE0
0040
0380
1C00
6000
9FF0
ENDCHAR
STARTCHAR U_37AC
ENCODING 14252
SWIDTH 1000 0
DWIDTH 13 0
BBX 12 12 0 -1
BITMAP 
0200
2220
2220
2220
3FE0
0000
0000
3FE0
0200
0200
0200
7FF0
ENDCHAR
STARTCHAR U_37AD
ENCODING 14253
SWIDTH 1000 0
DWIDTH 13 0
BBX 12 12 0 -1
BITMAP 
0200
0400
7FE0
0900
1080
2040
C030
0200
4220
4220
4220
7FE0
ENDCHAR
STARTCHAR U_37AE
ENCODING 14254
SWIDTH 1000 0
DWIDTH 13 0
BBX 12 12 0 -1
BITMAP 
0200
4210
4210
7FF0
0000
0800
0FE0
1020
2040
C680
0100
0080
ENDCHAR
STARTCHAR U_37AF
ENCODING 14255
SWIDTH 1000 0
DWIDTH 13 0
BBX 12 12 0 -1
BITMAP 
FFE0
0020
0020
7FE0
4000
4010
3FF0
0000
8410
8410
8410
FFF0
ENDCHAR
STARTCHAR U_37B0
ENCODING 14256
SWIDTH 1000 0
DWIDTH 13 0
BBX 12 12 0 -1
BITMAP 
2200
2200
23E0
AC80
A880
A880
AFF0
A880
B880
E880
0080
0080
ENDCHAR
STARTCHAR U_37B1
ENCODING 14257
SWIDTH 1000 0
DWIDTH 13 0
BBX 12 12 0 -1
BITMAP 
0200
4210
4210
7FF0
0000
3FE0
2020
2020
3FE0
2020
2020
3FE0
ENDCHAR
STARTCHAR U_37B2
ENCODING 14258
SWIDTH 1000 0
DWIDTH 13 0
BBX 12 12 0 -1
BITMAP 
2080
2080
2080
ABF0
AA90
AA90
AA90
ABF0
B880
E880
0080
0080
ENDCHAR
STARTCHAR U_37B3
ENCODING 14259
SWIDTH 1000 0
DWIDTH 13 0
BBX 12 12 0 -1
BITMAP 
2040
2240
2140
A840
AA40
A940
A870
ABC0
B840
E840
0040
0040
ENDCHAR
STARTCHAR U_37B4
ENCODING 14260
SWIDTH 1000 0
DWIDTH 13 0
BBX 12 12 0 -1
BITMAP 
2030
23C0
AA40
AA40
AA40
ABF0
AA40
AA40
AA50
FA50
0330
0210
ENDCHAR
STARTCHAR U_37B5
ENCODING 14261
SWIDTH 1000 0
DWIDTH 13 0
BBX 12 12 0 -1
BITMAP 
0200
2220
2220
3FE0
0400
0200
7FF0
1040
0880
0700
1880
E070
ENDCHAR
STARTCHAR U_37B6
ENCODING 14262
SWIDTH 1000 0
DWIDTH 13 0
BBX 12 12 0 -1
BITMAP 
2100
2080
27F0
AA20
AA20
AA20
A940
A940
B880
E940
0220
0C10
ENDCHAR
STARTCHAR U_37B7
ENCODING 14263
SWIDTH 1000 0
DWIDTH 13 0
BBX 12 12 0 -1
BITMAP 
0200
2220
2220
3FE0
0C00
3000
3FE0
0200
1FC0
0200
0200
7FF0
ENDCHAR
STARTCHAR U_37B8
ENCODING 14264
SWIDTH 1000 0
DWIDTH 13 0
BBX 12 12 0 -1
BITMAP 
0200
2220
2220
3FE0
0000
7FF0
0600
0B00
32C0
C230
0200
0200
ENDCHAR
STARTCHAR U_37B9
ENCODING 14265
SWIDTH 1000 0
DWIDTH 13 0
BBX 12 12 0 -1
BITMAP 
27F0
2020
2020
ABA0
AAA0
AAA0
AAA0
ABA0
BAA0
E820
0020
0060
ENDCHAR
STARTCHAR U_37BA
ENCODING 14266
SWIDTH 1000 0
DWIDTH 13 0
BBX 12 12 0 -1
BITMAP 
0200
2220
2220
3FE0
1000
3FE0
4200
0200
7FF0
0500
18C0
6030
ENDCHAR
STARTCHAR U_37BB
ENCODING 14267
SWIDTH 1000 0
DWIDTH 13 0
BBX 12 12 0 -1
BITMAP 
0200
2220
3FE0
0000
1FC0
1040
7FF0
0800
1FC0
0040
0040
0380
ENDCHAR
STARTCHAR U_37BC
ENCODING 14268
SWIDTH 1000 0
DWIDTH 13 0
BBX 12 12 0 -1
BITMAP 
3FC0
0080
0310
FA60
0B80
3240
C230
0E00
0200
4210
4210
7FF0
ENDCHAR
STARTCHAR U_37BD
ENCODING 14269
SWIDTH 1000 0
DWIDTH 13 0
BBX 12 12 0 -1
BITMAP 
2080
20A0
2090
ABF0
AA90
AA90
AAA0
AAA0
BA60
EB50
0270
0090
ENDCHAR
STARTCHAR U_37BE
ENCODING 14270
SWIDTH 1000 0
DWIDTH 13 0
BBX 12 12 0 -1
BITMAP 
23F0
2210
2210
ABF0
AA00
AA80
AA90
AAA0
BAC0
EC90
0490
0870
ENDCHAR
STARTCHAR U_37BF
ENCODING 14271
SWIDTH 1000 0
DWIDTH 13 0
BBX 12 12 0 -1
BITMAP 
0200
2220
3FE0
0000
0200
3FE0
0200
7FF0
0880
0700
0D80
7070
ENDCHAR
STARTCHAR U_37C0
ENCODING 14272
SWIDTH 1000 0
DWIDTH 13 0
BBX 12 12 0 -1
BITMAP 
00E0
3F00
0200
7FF0
0700
1AC0
6230
0000
0200
2220
2220
3FE0
ENDCHAR
STARTCHAR U_37C1
ENCODING 14273
SWIDTH 1000 0
DWIDTH 13 0
BBX 12 12 0 -1
BITMAP 
23F0
2200
2200
AAE0
AA40
AA40
AA40
ABF0
BA40
EA40
0440
0440
ENDCHAR
STARTCHAR U_37C2
ENCODING 14274
SWIDTH 1000 0
DWIDTH 13 0
BBX 12 12 0 -1
BITMAP 
23E0
2220
22A0
AA20
AFF0
AA20
AAA0
AAA0
BC20
E7F0
0020
0060
ENDCHAR
STARTCHAR U_37C3
ENCODING 14275
SWIDTH 1000 0
DWIDTH 13 0
BBX 12 12 0 -1
BITMAP 
23F0
2010
23D0
A810
ABD0
AA50
AA50
AA50
ABD0
F810
0050
0020
ENDCHAR
STARTCHAR U_37C4
ENCODING 14276
SWIDTH 1000 0
DWIDTH 13 0
BBX 12 12 0 -1
BITMAP 
2220
2140
27F0
A880
A880
ABE0
A880
A880
AFF0
F880
0080
0080
ENDCHAR
STARTCHAR U_37C5
ENCODING 14277
SWIDTH 1000 0
DWIDTH 13 0
BBX 12 12 0 -1
BITMAP 
2120
2120
22D0
AAD0
AB30
AA10
ABF0
A940
B940
EA50
0250
0C30
ENDCHAR
STARTCHAR U_37C6
ENCODING 14278
SWIDTH 1000 0
DWIDTH 13 0
BBX 12 12 0 -1
BITMAP 
2140
2150
2260
A640
AAC0
AA50
AA70
A880
AFF0
F880
0080
0080
ENDCHAR
STARTCHAR U_37C7
ENCODING 14279
SWIDTH 1000 0
DWIDTH 13 0
BBX 12 12 0 -1
BITMAP 
2080
2080
22A0
AAA0
AAA0
ADD0
ADD0
A880
ABE0
F880
0080
07F0
ENDCHAR
STARTCHAR U_37C8
ENCODING 14280
SWIDTH 1000 0
DWIDTH 13 0
BBX 12 12 0 -1
BITMAP 
20A0
2090
27F0
A080
AC90
AAA0
A9C0
A9C0
BAA0
EA90
0490
0180
ENDCHAR
STARTCHAR U_37C9
ENCODING 14281
SWIDTH 1000 0
DWIDTH 13 0
BBX 12 12 0 -1
BITMAP 
2100
2080
27F0
AC10
A880
AA80
ABE0
AC80
BFF0
C880
0080
0080
ENDCHAR
STARTCHAR U_37CA
ENCODING 14282
SWIDTH 1000 0
DWIDTH 13 0
BBX 12 12 0 -1
BITMAP 
2060
2780
2490
AA20
A840
ABE0
A840
A880
AFF0
F880
0080
0180
ENDCHAR
STARTCHAR U_37CB
ENCODING 14283
SWIDTH 1000 0
DWIDTH 13 0
BBX 12 12 0 -1
BITMAP 
2220
2120
2140
ABE0
AA20
AA20
ABE0
A940
B940
EA50
0450
0830
ENDCHAR
STARTCHAR U_37CC
ENCODING 14284
SWIDTH 1000 0
DWIDTH 13 0
BBX 12 12 0 -1
BITMAP 
2240
2220
AA00
AFD0
AAA0
AAC0
AA90
AAA0
BAD0
ECA0
08D0
10F0
ENDCHAR
STARTCHAR U_37CD
ENCODING 14285
SWIDTH 1000 0
DWIDTH 13 0
BBX 12 12 0 -1
BITMAP 
2100
2080
23E0
AA20
ABE0
AA20
AA20
ABE0
BA90
EA60
0240
0330
ENDCHAR
STARTCHAR U_37CE
ENCODING 14286
SWIDTH 1000 0
DWIDTH 13 0
BBX 12 12 0 -1
BITMAP 
2070
2F80
2110
AC90
AA20
A900
A940
AFF0
B940
EB40
00C0
0730
ENDCHAR
STARTCHAR U_37CF
ENCODING 14287
SWIDTH 1000 0
DWIDTH 13 0
BBX 12 12 0 -1
BITMAP 
2080
2080
2140
AA20
AC90
A840
ABF0
A820
BBF0
EA10
0210
03F0
ENDCHAR
STARTCHAR U_37D0
ENCODING 14288
SWIDTH 1000 0
DWIDTH 13 0
BBX 12 12 0 -1
BITMAP 
2220
2FF0
2220
A900
A880
A880
AFF0
AA00
BA00
EA00
0200
03F0
ENDCHAR
STARTCHAR U_37D1
ENCODING 14289
SWIDTH 1000 0
DWIDTH 13 0
BBX 12 12 0 -1
BITMAP 
2080
23E0
2080
A7F0
AC10
ABE0
A840
A880
BFF0
E880
0080
0180
ENDCHAR
STARTCHAR U_37D2
ENCODING 14290
SWIDTH 1000 0
DWIDTH 13 0
BBX 12 12 0 -1
BITMAP 
2440
3FC0
0000
3FC0
0840
FFF0
0840
3FC0
1000
6FC0
8840
0FC0
ENDCHAR
STARTCHAR U_37D3
ENCODING 14291
SWIDTH 1000 0
DWIDTH 13 0
BBX 12 12 0 -1
BITMAP 
2630
21C0
2360
A490
A900
AFF0
AA40
ADF0
B950
E950
0150
0040
ENDCHAR
STARTCHAR U_37D4
ENCODING 14292
SWIDTH 1000 0
DWIDTH 13 0
BBX 12 12 0 -1
BITMAP 
4440
7FC0
0400
0A00
3180
4460
9F90
0100
0200
3FC0
2040
3FC0
ENDCHAR
STARTCHAR U_37D5
ENCODING 14293
SWIDTH 1000 0
DWIDTH 13 0
BBX 12 12 0 -1
BITMAP 
0200
2220
2220
3FE0
0200
F940
8C40
8A40
8870
8FC0
F840
0040
ENDCHAR
STARTCHAR U_37D6
ENCODING 14294
SWIDTH 1000 0
DWIDTH 13 0
BBX 12 12 0 -1
BITMAP 
2480
3F80
0000
3F80
0400
1F00
0400
7FC0
1100
FFE0
1100
2100
ENDCHAR
STARTCHAR U_37D7
ENCODING 14295
SWIDTH 1000 0
DWIDTH 13 0
BBX 12 12 0 -1
BITMAP 
0200
0200
1280
5AD0
6730
7BD0
4A50
6B50
5290
4210
7FF0
4010
ENDCHAR
STARTCHAR U_37D8
ENCODING 14296
SWIDTH 1000 0
DWIDTH 13 0
BBX 12 12 0 -1
BITMAP 
27F0
2410
A490
A5D0
AC90
ADD0
AC10
ADD0
FD50
05D0
0810
0830
ENDCHAR
STARTCHAR U_37D9
ENCODING 14297
SWIDTH 1000 0
DWIDTH 13 0
BBX 12 12 0 -1
BITMAP 
2120
2120
23F0
A920
ABF0
A800
ABF0
AA10
BBF0
EA10
03F0
0210
ENDCHAR
STARTCHAR U_37DA
ENCODING 14298
SWIDTH 1000 0
DWIDTH 13 0
BBX 12 12 0 -1
BITMAP 
2080
2080
FBE0
2080
73E0
6940
A880
2160
0200
2220
2220
3FE0
ENDCHAR
STARTCHAR U_37DB
ENCODING 14299
SWIDTH 1000 0
DWIDTH 13 0
BBX 12 12 0 -1
BITMAP 
0200
2220
3FE0
0000
1120
7BF0
1120
1920
31E0
5120
1120
31E0
ENDCHAR
STARTCHAR U_37DC
ENCODING 14300
SWIDTH 1000 0
DWIDTH 13 0
BBX 12 12 0 -1
BITMAP 
0200
2220
3FE0
0100
FBF0
0C10
F880
82A0
FA90
0C90
0880
3180
ENDCHAR
STARTCHAR U_37DD
ENCODING 14301
SWIDTH 1000 0
DWIDTH 13 0
BBX 12 12 0 -1
BITMAP 
0100
2080
27F0
AA20
A920
A940
AFF0
A800
BBE0
CA20
0220
03E0
ENDCHAR
STARTCHAR U_37DE
ENCODING 14302
SWIDTH 1000 0
DWIDTH 13 0
BBX 12 12 0 -1
BITMAP 
2280
27F0
AAC0
A900
AAF0
A800
AA80
BFF0
EAC0
0100
06F0
0800
ENDCHAR
STARTCHAR U_37DF
ENCODING 14303
SWIDTH 1000 0
DWIDTH 13 0
BBX 12 12 0 -1
BITMAP 
2220
3FE0
0880
3FE0
0880
7FF0
0D80
3060
CF90
0A80
0920
0FE0
ENDCHAR
STARTCHAR U_37E0
ENCODING 14304
SWIDTH 1000 0
DWIDTH 13 0
BBX 12 12 0 -1
BITMAP 
07F0
0410
2630
2550
AFF0
AC90
AEB0
AEB0
AFF0
FC10
0410
0430
ENDCHAR
STARTCHAR U_37E1
ENCODING 14305
SWIDTH 1000 0
DWIDTH 13 0
BBX 12 12 0 -1
BITMAP 
4440
7FC0
1500
3F80
0400
7FE0
0B00
3080
5F60
9110
1240
1FC0
ENDCHAR
STARTCHAR U_37E2
ENCODING 14306
SWIDTH 1000 0
DWIDTH 13 0
BBX 12 12 0 -1
BITMAP 
2480
3F80
0400
3F80
0A00
1100
FFF0
0040
3E40
2240
3E40
0080
ENDCHAR
STARTCHAR U_37E3
ENCODING 14307
SWIDTH 1000 0
DWIDTH 13 0
BBX 12 12 0 -1
BITMAP 
2200
22A0
22A0
A7A0
AA90
AF10
AB40
AA40
BAA0
EBD0
0200
0200
ENDCHAR
STARTCHAR U_37E4
ENCODING 14308
SWIDTH 1000 0
DWIDTH 13 0
BBX 12 12 0 -1
BITMAP 
2480
3F80
0000
3F80
0080
3F80
0080
FFF0
0400
5540
2480
4C60
ENDCHAR
STARTCHAR U_37E5
ENCODING 14309
SWIDTH 1000 0
DWIDTH 13 0
BBX 12 12 0 -1
BITMAP 
2480
3F80
0900
1F80
0480
FFF0
0A00
3580
CA70
1C80
0300
3C00
ENDCHAR
STARTCHAR U_37E6
ENCODING 14310
SWIDTH 1000 0
DWIDTH 13 0
BBX 12 12 0 -1
BITMAP 
2480
3F80
0000
7FF0
8410
7FE0
2440
3FC0
2440
FFF0
0400
0400
ENDCHAR
STARTCHAR U_37E7
ENCODING 14311
SWIDTH 1000 0
DWIDTH 13 0
BBX 12 12 0 -1
BITMAP 
4440
7FC0
0000
7BC0
4A40
7BC0
0000
FFF0
0800
1F80
0080
0700
ENDCHAR
STARTCHAR U_37E8
ENCODING 14312
SWIDTH 1000 0
DWIDTH 13 0
BBX 12 12 0 -1
BITMAP 
2080
2490
2490
A7F0
A800
AFF0
A880
AFF0
BD50
ED50
0550
0430
ENDCHAR
STARTCHAR U_37E9
ENCODING 14313
SWIDTH 1000 0
DWIDTH 13 0
BBX 12 12 0 -1
BITMAP 
FC80
85F0
FD10
92A0
FC40
94A0
CB10
0000
0400
4420
4420
7FE0
ENDCHAR
STARTCHAR U_37EA
ENCODING 14314
SWIDTH 1000 0
DWIDTH 13 0
BBX 12 12 0 -1
BITMAP 
23E0
22A0
23E0
AAA0
ABE0
A800
AFF0
AB00
BAA0
CA40
0320
0210
ENDCHAR
STARTCHAR U_37EB
ENCODING 14315
SWIDTH 1000 0
DWIDTH 13 0
BBX 12 12 0 -1
BITMAP 
2080
23F0
2210
ABF0
AA10
ABF0
A880
ADD0
BAA0
E2A0
0490
0180
ENDCHAR
STARTCHAR U_37EC
ENCODING 14316
SWIDTH 1000 0
DWIDTH 13 0
BBX 12 12 0 -1
BITMAP 
4440
7FC0
1400
65C0
4440
75C0
4440
7FC0
60C0
1B00
0E00
71E0
ENDCHAR
STARTCHAR U_37ED
ENCODING 14317
SWIDTH 1000 0
DWIDTH 13 0
BBX 12 12 0 -1
BITMAP 
03F0
0210
23F0
2240
ABF0
AA40
AB20
ABF0
AA10
FBF0
0210
03F0
ENDCHAR
STARTCHAR U_37EE
ENCODING 14318
SWIDTH 1000 0
DWIDTH 13 0
BBX 12 12 0 -1
BITMAP 
2100
2080
27F0
A950
A220
A880
A8A0
AFF0
B880
E940
0220
0410
ENDCHAR
STARTCHAR U_37EF
ENCODING 14319
SWIDTH 1000 0
DWIDTH 13 0
BBX 12 12 0 -1
BITMAP 
1240
1FC0
0200
7FF0
4810
97A0
2900
4600
0900
3FC0
50B0
1F80
ENDCHAR
STARTCHAR U_37F0
ENCODING 14320
SWIDTH 1000 0
DWIDTH 13 0
BBX 12 12 0 -1
BITMAP 
27F0
2810
23E0
AA20
ABE0
AA20
ABE0
A880
AFF0
F800
0220
0410
ENDCHAR
STARTCHAR U_37F1
ENCODING 14321
SWIDTH 1000 0
DWIDTH 13 0
BBX 12 12 0 -1
BITMAP 
2220
2140
27F0
A880
A880
AFF0
A880
A880
AFF0
F800
0550
0550
ENDCHAR
STARTCHAR U_37F2
ENCODING 14322
SWIDTH 1000 0
DWIDTH 13 0
BBX 12 12 0 -1
BITMAP 
2FF0
2840
2880
ABF0
AA10
ABF0
AA10
ABF0
B880
EAA0
0C90
1180
ENDCHAR
STARTCHAR U_37F3
ENCODING 14323
SWIDTH 1000 0
DWIDTH 13 0
BBX 12 12 0 -1
BITMAP 
27F0
2140
27F0
AD50
AD50
AFF0
A880
AFF0
AAA0
FA90
0490
0080
ENDCHAR
STARTCHAR U_37F4
ENCODING 14324
SWIDTH 1000 0
DWIDTH 13 0
BBX 12 12 0 -1
BITMAP 
2100
2200
23E0
AAA0
ABE0
AAA0
ABE0
A8A0
B9D0
EAF0
0490
1870
ENDCHAR
STARTCHAR U_37F5
ENCODING 14325
SWIDTH 1000 0
DWIDTH 13 0
BBX 12 12 0 -1
BITMAP 
4420
7FE0
0000
7FE0
4920
7FE0
0000
7FE0
0200
13C0
1200
FFF0
ENDCHAR
STARTCHAR U_37F6
ENCODING 14326
SWIDTH 1000 0
DWIDTH 13 0
BBX 12 12 0 -1
BITMAP 
4220
7FE0
0000
7FE0
4400
5FE0
5020
5FE0
5020
5FE0
8940
B330
ENDCHAR
STARTCHAR U_37F7
ENCODING 14327
SWIDTH 1000 0
DWIDTH 13 0
BBX 12 12 0 -1
BITMAP 
2420
2420
BEF0
A240
A900
AA80
AC60
ABD0
B800
E7E0
0420
07E0
ENDCHAR
STARTCHAR U_37F8
ENCODING 14328
SWIDTH 1000 0
DWIDTH 13 0
BBX 12 12 0 -1
BITMAP 
2100
27E0
2420
AFE0
AC20
AFE0
A900
AFF0
BA40
E520
0FF0
0100
ENDCHAR
STARTCHAR U_37F9
ENCODING 14329
SWIDTH 1000 0
DWIDTH 13 0
BBX 12 12 0 -1
BITMAP 
5EF0
5550
D550
DD50
D550
D550
DD50
D5D0
D770
FCD0
04C0
0540
ENDCHAR
STARTCHAR U_37FA
ENCODING 14330
SWIDTH 1000 0
DWIDTH 13 0
BBX 12 12 0 -1
BITMAP 
2220
3FE0
1240
7FF0
1240
1FC0
0200
3FE0
2AA0
7FF0
0700
1DC0
ENDCHAR
STARTCHAR U_37FB
ENCODING 14331
SWIDTH 1000 0
DWIDTH 13 0
BBX 12 12 0 -1
BITMAP 
1030
FDC0
1100
FDF0
FD20
9520
FD20
1220
FE20
1200
4210
7FF0
ENDCHAR
STARTCHAR U_37FC
ENCODING 14332
SWIDTH 1000 0
DWIDTH 13 0
BBX 12 12 0 -1
BITMAP 
2220
3FE0
1000
7C80
10F0
3920
1120
7EA0
10C0
1C40
24A0
4B10
ENDCHAR
STARTCHAR U_37FD
ENCODING 14333
SWIDTH 1000 0
DWIDTH 13 0
BBX 12 12 0 -1
BITMAP 
1FF0
2280
2FE0
AAA0
AFE0
A800
AFE0
A800
BFF0
E100
0920
1310
ENDCHAR
STARTCHAR U_37FE
ENCODING 14334
SWIDTH 1000 0
DWIDTH 13 0
BBX 12 12 0 -1
BITMAP 
2080
2FF0
A880
ABE0
A8A0
AFF0
A8A0
ABE0
AAA0
FBE0
12A0
12A0
ENDCHAR
STARTCHAR U_37FF
ENCODING 14335
SWIDTH 1000 0
DWIDTH 13 0
BBX 12 12 0 -1
BITMAP 
2220
2770
2220
A890
AFF0
A940
AA20
AD50
B940
EFF0
0240
0440
ENDCHAR
STARTCHAR U_3800
ENCODING 14336
SWIDTH 1000 0
DWIDTH 13 0
BBX 12 12 0 -1
BITMAP 
0800
3F80
2080
3F80
2080
3FE0
2000
3FF0
AA10
0060
4440
7FC0
ENDCHAR
STARTCHAR U_3801
ENCODING 14337
SWIDTH 1000 0
DWIDTH 13 0
BBX 12 12 0 -1
BITMAP 
2080
2140
ABC0
AE60
AF70
A990
AE40
A9B0
AEC0
FB30
00C0
0F00
ENDCHAR
STARTCHAR U_3802
ENCODING 14338
SWIDTH 1000 0
DWIDTH 13 0
BBX 12 12 0 -1
BITMAP 
2240
2F40
2240
AF70
A890
AA50
AF50
AA50
BF20
E520
0550
0B90
ENDCHAR
STARTCHAR U_3803
ENCODING 14339
SWIDTH 1000 0
DWIDTH 13 0
BBX 12 12 0 -1
BITMAP 
2080
27F0
2220
A940
AFF0
AC90
ADD0
AC90
ADD0
FD50
05D0
0430
ENDCHAR
STARTCHAR U_3804
ENCODING 14340
SWIDTH 1000 0
DWIDTH 13 0
BBX 12 12 0 -1
BITMAP 
4220
7FE0
0000
F9F0
68D0
1870
E9D0
1420
3FC0
3FC0
2040
3FC0
ENDCHAR
STARTCHAR U_3805
ENCODING 14341
SWIDTH 1000 0
DWIDTH 13 0
BBX 12 12 0 -1
BITMAP 
4220
7FE0
2400
27F0
4FE0
9420
27E0
6200
A7F0
2A40
2180
2F70
ENDCHAR
STARTCHAR U_3806
ENCODING 14342
SWIDTH 1000 0
DWIDTH 13 0
BBX 12 12 0 -1
BITMAP 
2770
2550
2770
A800
ABE0
AAA0
ABE0
AAA0
ABE0
F880
07F0
0080
ENDCHAR
STARTCHAR U_3807
ENCODING 14343
SWIDTH 1000 0
DWIDTH 13 0
BBX 12 12 0 -1
BITMAP 
4210
7FF0
1000
7CA0
0080
FFF0
4480
44C0
7D40
5540
9250
3470
ENDCHAR
STARTCHAR U_3808
ENCODING 14344
SWIDTH 1000 0
DWIDTH 13 0
BBX 12 12 0 -1
BITMAP 
2770
2550
2770
AD50
AF70
AC10
ADD0
AC90
ADD0
FC90
05D0
0430
ENDCHAR
STARTCHAR U_3809
ENCODING 14345
SWIDTH 1000 0
DWIDTH 13 0
BBX 12 12 0 -1
BITMAP 
2100
2FE0
2440
BFF0
A800
AFE0
A920
AFE0
A920
FFE0
0100
1FF0
ENDCHAR
STARTCHAR U_380A
ENCODING 14346
SWIDTH 1000 0
DWIDTH 13 0
BBX 12 12 0 -1
BITMAP 
40E0
4080
D7F0
D480
D7F0
D480
D470
D540
D550
F770
0940
17F0
ENDCHAR
STARTCHAR U_380B
ENCODING 14347
SWIDTH 1000 0
DWIDTH 13 0
BBX 12 12 0 -1
BITMAP 
4420
7FE0
1080
7FE0
4920
7FE0
1F80
0000
FFF0
3F80
0040
03C0
ENDCHAR
STARTCHAR U_380C
ENCODING 14348
SWIDTH 1000 0
DWIDTH 13 0
BBX 12 12 0 -1
BITMAP 
4420
7FE0
4880
FD00
49F0
7A90
4CA0
7880
48C0
FD40
5120
8E10
ENDCHAR
STARTCHAR U_380D
ENCODING 14349
SWIDTH 1000 0
DWIDTH 13 0
BBX 12 12 0 -1
BITMAP 
4210
7FF0
1100
3FE0
6100
AFE0
2100
2FE0
2300
FFF0
1240
E230
ENDCHAR
STARTCHAR U_380E
ENCODING 14350
SWIDTH 1000 0
DWIDTH 13 0
BBX 12 12 0 -1
BITMAP 
2240
23F0
AE40
ABF0
AA40
ABF0
AA40
ABF0
A880
FFF0
02A0
0490
ENDCHAR
STARTCHAR U_380F
ENCODING 14351
SWIDTH 1000 0
DWIDTH 13 0
BBX 12 12 0 -1
BITMAP 
2220
2770
AA20
A800
AFF0
AAA0
AFF0
AAA0
AFF0
F880
03E0
0080
ENDCHAR
STARTCHAR U_3810
ENCODING 14352
SWIDTH 1000 0
DWIDTH 13 0
BBX 12 12 0 -1
BITMAP 
4440
7FC0
0180
3E00
0820
FFF0
2940
7FE0
A950
2940
2F40
20C0
ENDCHAR
STARTCHAR U_3811
ENCODING 14353
SWIDTH 1000 0
DWIDTH 13 0
BBX 12 12 0 -1
BITMAP 
0400
2440
3FC0
0000
7FE0
4920
FFF0
0900
79E0
0900
F9F0
1100
ENDCHAR
STARTCHAR U_3812
ENCODING 14354
SWIDTH 1000 0
DWIDTH 13 0
BBX 12 12 0 -1
BITMAP 
2F90
2510
2F90
2A90
2DD0
AF50
A850
AF50
A850
BF90
C690
0A70
ENDCHAR
STARTCHAR U_3813
ENCODING 14355
SWIDTH 1000 0
DWIDTH 13 0
BBX 12 12 0 -1
BITMAP 
2220
2770
2220
AFF0
A810
ABE0
A910
A9A0
BAC0
E960
8650
0080
ENDCHAR
STARTCHAR U_3814
ENCODING 14356
SWIDTH 1000 0
DWIDTH 13 0
BBX 12 12 0 -1
BITMAP 
0200
4220
7FE0
0080
7BE0
4940
7880
47F0
B880
ABE0
3880
0080
ENDCHAR
STARTCHAR U_3815
ENCODING 14357
SWIDTH 1000 0
DWIDTH 13 0
BBX 12 12 0 -1
BITMAP 
4420
7FE0
0080
F7F0
9490
E7F0
9490
97F0
A1A0
C2F0
8490
88F0
ENDCHAR
STARTCHAR U_3816
ENCODING 14358
SWIDTH 1000 0
DWIDTH 13 0
BBX 12 12 0 -1
BITMAP 
4420
7FE0
1080
7FE0
0400
3FC0
0400
7FE0
1120
FFF0
18C0
7370
ENDCHAR
STARTCHAR U_3817
ENCODING 14359
SWIDTH 1000 0
DWIDTH 13 0
BBX 12 12 0 -1
BITMAP 
2100
2FF0
2B50
AD90
AFF0
AB90
AB50
AD30
B100
EFF0
8240
0C30
ENDCHAR
STARTCHAR U_3818
ENCODING 14360
SWIDTH 1000 0
DWIDTH 13 0
BBX 12 12 0 -1
BITMAP 
4420
7FE0
2860
4F20
78E0
4F20
75E0
4920
FFF0
1040
2020
C010
ENDCHAR
STARTCHAR U_3819
ENCODING 14361
SWIDTH 1000 0
DWIDTH 13 0
BBX 12 12 0 -1
BITMAP 
2080
27F0
2220
2BE0
A800
AFF0
A810
ABE0
B920
EAC0
8160
06D0
ENDCHAR
STARTCHAR U_381A
ENCODING 14362
SWIDTH 1000 0
DWIDTH 13 0
BBX 12 12 0 -1
BITMAP 
2520
2DA0
2520
AFF0
A820
AD20
AFA0
BA60
EFA0
8220
0320
0E60
ENDCHAR
STARTCHAR U_381B
ENCODING 14363
SWIDTH 1000 0
DWIDTH 13 0
BBX 12 12 0 -1
BITMAP 
2140
2770
A940
ABF0
AE80
ABE0
AA80
ABE0
AA80
FFF0
0140
0FF0
ENDCHAR
STARTCHAR U_381C
ENCODING 14364
SWIDTH 1000 0
DWIDTH 13 0
BBX 12 12 0 -1
BITMAP 
22F0
2320
2A40
ABF0
A850
AA40
AF40
AA70
BF40
C240
82C0
0530
ENDCHAR
STARTCHAR U_381D
ENCODING 14365
SWIDTH 1000 0
DWIDTH 13 0
BBX 12 12 0 -1
BITMAP 
2220
2770
2A20
AF70
AA20
ADD0
AA20
ABE0
BA20
EBE0
8220
0410
ENDCHAR
STARTCHAR U_381E
ENCODING 14366
SWIDTH 1000 0
DWIDTH 13 0
BBX 12 12 0 -1
BITMAP 
3540
5F70
A0D0
5F50
C420
4E20
4450
5F90
0200
2220
2220
3FE0
ENDCHAR
STARTCHAR U_381F
ENCODING 14367
SWIDTH 1000 0
DWIDTH 13 0
BBX 12 12 0 -1
BITMAP 
21C0
2370
2950
AFB0
AB50
AD90
A930
A880
B940
EEB0
81C0
06A0
ENDCHAR
STARTCHAR U_3820
ENCODING 14368
SWIDTH 1000 0
DWIDTH 13 0
BBX 12 12 0 -1
BITMAP 
0100
21E0
2100
AFF0
A950
AFE0
AAA0
ABE0
FAA0
8FF0
1550
2FF0
ENDCHAR
STARTCHAR U_3821
ENCODING 14369
SWIDTH 1000 0
DWIDTH 13 0
BBX 12 12 0 -1
BITMAP 
0080
27F0
2240
23F0
AA40
ABF0
AD50
A9B0
AA90
FEA0
8340
0630
ENDCHAR
STARTCHAR U_3822
ENCODING 14370
SWIDTH 1000 0
DWIDTH 13 0
BBX 12 12 0 -1
BITMAP 
4420
7FE0
2440
3FC0
2440
3FC0
12A0
22E0
FFB0
1240
7180
18E0
ENDCHAR
STARTCHAR U_3823
ENCODING 14371
SWIDTH 1000 0
DWIDTH 13 0
BBX 12 12 0 -1
BITMAP 
2FF0
2920
AA40
AFF0
AB40
AEE0
AB50
AA40
F880
8AE0
1280
27F0
ENDCHAR
STARTCHAR U_3824
ENCODING 14372
SWIDTH 1000 0
DWIDTH 13 0
BBX 12 12 0 -1
BITMAP 
0080
2FF0
2550
2770
A940
AFF0
A940
AFF0
A940
FFF0
86A0
0B70
ENDCHAR
STARTCHAR U_3825
ENCODING 14373
SWIDTH 1000 0
DWIDTH 13 0
BBX 12 12 0 -1
BITMAP 
03E0
22A0
23E0
22A0
AFF0
AAB0
AD50
AFF0
A880
FBE0
8880
07F0
ENDCHAR
STARTCHAR U_3826
ENCODING 14374
SWIDTH 1000 0
DWIDTH 13 0
BBX 12 12 0 -1
BITMAP 
0550
27F0
2550
27F0
A550
AFF0
A800
ABE0
AA20
FBE0
8940
07F0
ENDCHAR
STARTCHAR U_3827
ENCODING 14375
SWIDTH 1000 0
DWIDTH 13 0
BBX 12 12 0 -1
BITMAP 
0080
2FF0
2A20
AFF0
AB60
AEB0
A940
AF70
F940
8F70
0940
1240
ENDCHAR
STARTCHAR U_3828
ENCODING 14376
SWIDTH 1000 0
DWIDTH 13 0
BBX 12 12 0 -1
BITMAP 
0220
2770
2AA0
2FF0
AA50
AFF0
A910
AFF0
A950
FF30
8A10
0D30
ENDCHAR
STARTCHAR U_3829
ENCODING 14377
SWIDTH 1000 0
DWIDTH 13 0
BBX 12 12 0 -1
BITMAP 
4200
4200
4500
5880
4000
7FE0
2480
2480
2480
2480
4480
8470
ENDCHAR
STARTCHAR U_382A
ENCODING 14378
SWIDTH 1000 0
DWIDTH 13 0
BBX 12 12 0 -1
BITMAP 
0020
FFF0
0400
0400
0400
07C0
0400
0400
0400
0400
0420
FFF0
ENDCHAR
STARTCHAR U_382B
ENCODING 14379
SWIDTH 1000 0
DWIDTH 13 0
BBX 12 12 0 -1
BITMAP 
FBC0
2240
2340
22C0
3A50
C470
3FC0
0420
FFF0
0A00
1100
60E0
ENDCHAR
STARTCHAR U_382C
ENCODING 14380
SWIDTH 1000 0
DWIDTH 13 0
BBX 12 12 0 -1
BITMAP 
FDF0
1110
1110
1D10
E1F0
0400
3FC0
0400
FFF0
0900
1080
6070
ENDCHAR
STARTCHAR U_382D
ENCODING 14381
SWIDTH 1000 0
DWIDTH 13 0
BBX 12 12 0 -1
BITMAP 
FBE0
2080
2080
20A0
FBF0
0000
FBE0
2080
2080
2080
38A0
C7F0
ENDCHAR
STARTCHAR U_382E
ENCODING 14382
SWIDTH 1000 0
DWIDTH 13 0
BBX 12 12 0 -1
BITMAP 
4420
29F0
FE40
2840
AA40
6C40
2840
FE40
4440
7C40
4440
7FF0
ENDCHAR
STARTCHAR U_382F
ENCODING 14383
SWIDTH 1000 0
DWIDTH 13 0
BBX 12 12 0 -1
BITMAP 
0000
7FC0
0040
4040
7FC0
4000
4000
7FE0
4020
4020
7FE0
4020
ENDCHAR
STARTCHAR U_3830
ENCODING 14384
SWIDTH 1000 0
DWIDTH 13 0
BBX 12 12 0 -1
BITMAP 
1000
7DE0
1520
2520
55E0
8800
3F80
0080
3F80
2020
2020
3FE0
ENDCHAR
STARTCHAR U_3831
ENCODING 14385
SWIDTH 1000 0
DWIDTH 13 0
BBX 12 12 0 -1
BITMAP 
3F80
0080
3F80
2020
1FE0
1080
7FE0
1080
1F80
1080
FFF0
30C0
ENDCHAR
STARTCHAR U_3832
ENCODING 14386
SWIDTH 1000 0
DWIDTH 13 0
BBX 12 12 0 -1
BITMAP 
2200
2200
FA00
AA30
AAC0
AB00
AA00
AA00
BA00
2210
2210
21F0
ENDCHAR
STARTCHAR U_3833
ENCODING 14387
SWIDTH 1000 0
DWIDTH 13 0
BBX 12 12 0 -1
BITMAP 
1800
0400
0B00
30C0
C430
0400
3FC0
2440
2440
2540
2480
0400
ENDCHAR
STARTCHAR U_3834
ENCODING 14388
SWIDTH 1000 0
DWIDTH 13 0
BBX 12 12 0 -1
BITMAP 
2000
23F0
F890
A890
AA90
AA90
AC90
A890
B910
2110
2250
2420
ENDCHAR
STARTCHAR U_3835
ENCODING 14389
SWIDTH 1000 0
DWIDTH 13 0
BBX 12 12 0 -1
BITMAP 
0400
FFE0
2000
2000
3FC0
0400
3FC0
2440
2440
2540
2480
0400
ENDCHAR
STARTCHAR U_3836
ENCODING 14390
SWIDTH 1000 0
DWIDTH 13 0
BBX 12 12 0 -1
BITMAP 
2080
2100
FBC0
AA40
AA40
AA40
AA40
AA40
BA40
2250
2450
2830
ENDCHAR
STARTCHAR U_3837
ENCODING 14391
SWIDTH 1000 0
DWIDTH 13 0
BBX 12 12 0 -1
BITMAP 
2000
27E0
FA20
AA40
AAF0
AA10
AB10
AAA0
BAA0
2440
24A0
2B10
ENDCHAR
STARTCHAR U_3838
ENCODING 14392
SWIDTH 1000 0
DWIDTH 13 0
BBX 12 12 0 -1
BITMAP 
2080
2080
FBE0
A880
A880
AFF0
A880
A940
B940
2220
2420
2810
ENDCHAR
STARTCHAR U_3839
ENCODING 14393
SWIDTH 1000 0
DWIDTH 13 0
BBX 12 12 0 -1
BITMAP 
2080
2080
F940
AA20
AC10
A940
A940
A940
B940
2140
2240
2440
ENDCHAR
STARTCHAR U_383A
ENCODING 14394
SWIDTH 1000 0
DWIDTH 13 0
BBX 12 12 0 -1
BITMAP 
2080
2080
F880
AAA0
AA90
AA90
AC80
A8A0
B840
2080
2300
2C00
ENDCHAR
STARTCHAR U_383B
ENCODING 14395
SWIDTH 1000 0
DWIDTH 13 0
BBX 12 12 0 -1
BITMAP 
0400
3F40
0480
FFF0
0800
1400
3FC0
E440
2440
2540
2480
0400
ENDCHAR
STARTCHAR U_383C
ENCODING 14396
SWIDTH 1000 0
DWIDTH 13 0
BBX 12 12 0 -1
BITMAP 
2060
2380
FA00
AA00
ABF0
AA40
AA40
AA40
BA40
2240
2440
2440
ENDCHAR
STARTCHAR U_383D
ENCODING 14397
SWIDTH 1000 0
DWIDTH 13 0
BBX 12 12 0 -1
BITMAP 
2100
21E0
FA20
AD40
A880
A940
AE30
A880
B840
2100
20C0
2040
ENDCHAR
STARTCHAR U_383E
ENCODING 14398
SWIDTH 1000 0
DWIDTH 13 0
BBX 12 12 0 -1
BITMAP 
23C0
3A40
4AC0
AA20
15E0
2400
7FC0
A440
2440
2540
2480
0400
ENDCHAR
STARTCHAR U_383F
ENCODING 14399
SWIDTH 1000 0
DWIDTH 13 0
BBX 12 12 0 -1
BITMAP 
1200
12C0
5B00
5220
5DE0
E400
3FC0
2440
2440
2540
2480
0400
ENDCHAR
STARTCHAR U_3840
ENCODING 14400
SWIDTH 1000 0
DWIDTH 13 0
BBX 12 12 0 -1
BITMAP 
4440
2440
1480
9510
FFF0
8410
9510
9490
A450
C450
8410
8030
ENDCHAR
STARTCHAR U_3841
ENCODING 14401
SWIDTH 1000 0
DWIDTH 13 0
BBX 12 12 0 -1
BITMAP 
2080
27F0
F940
AA20
ADD0
A800
AFF0
B900
ABE0
2020
20A0
2040
ENDCHAR
STARTCHAR U_3842
ENCODING 14402
SWIDTH 1000 0
DWIDTH 13 0
BBX 12 12 0 -1
BITMAP 
7E10
1090
3E90
D290
0C90
1870
E220
3FE0
2220
2220
2260
0200
ENDCHAR
STARTCHAR U_3843
ENCODING 14403
SWIDTH 1000 0
DWIDTH 13 0
BBX 12 12 0 -1
BITMAP 
2240
2240
FAA0
AB10
ABF0
A800
AAA0
AAA0
BAA0
AAA0
22A0
2430
ENDCHAR
STARTCHAR U_3844
ENCODING 14404
SWIDTH 1000 0
DWIDTH 13 0
BBX 12 12 0 -1
BITMAP 
2200
2220
FBF0
AC10
ABD0
AA50
ABD0
AA50
BBD0
AA10
2050
2020
ENDCHAR
STARTCHAR U_3845
ENCODING 14405
SWIDTH 1000 0
DWIDTH 13 0
BBX 12 12 0 -1
BITMAP 
2080
21F0
FB20
A8C0
A880
AB40
A8F0
AB10
B8A0
2040
2080
2700
ENDCHAR
STARTCHAR U_3846
ENCODING 14406
SWIDTH 1000 0
DWIDTH 13 0
BBX 12 12 0 -1
BITMAP 
2080
27F0
FA00
AA00
ABF0
A800
AAA0
AAA0
BAA0
AAA0
22A0
2430
ENDCHAR
STARTCHAR U_3847
ENCODING 14407
SWIDTH 1000 0
DWIDTH 13 0
BBX 12 12 0 -1
BITMAP 
2FF0
2540
FD40
AF40
AD40
AD40
AF40
AD40
BF40
2540
2950
2170
ENDCHAR
STARTCHAR U_3848
ENCODING 14408
SWIDTH 1000 0
DWIDTH 13 0
BBX 12 12 0 -1
BITMAP 
2100
21E0
FA40
AFF0
AA90
AA90
ABF0
A940
B940
A940
2250
2470
ENDCHAR
STARTCHAR U_3849
ENCODING 14409
SWIDTH 1000 0
DWIDTH 13 0
BBX 12 12 0 -1
BITMAP 
2E80
2240
23F0
FE40
A840
A880
AEA0
ABA0
BA40
AAA0
22B0
2DD0
ENDCHAR
STARTCHAR U_384A
ENCODING 14410
SWIDTH 1000 0
DWIDTH 13 0
BBX 12 12 0 -1
BITMAP 
2100
21E0
FA20
AC40
A800
A9A0
AA70
BA10
AB70
2210
23F0
2210
ENDCHAR
STARTCHAR U_384B
ENCODING 14411
SWIDTH 1000 0
DWIDTH 13 0
BBX 12 12 0 -1
BITMAP 
2080
27F0
F940
AAA0
AFF0
AAA0
ABE0
AAA0
BBE0
A880
2080
2070
ENDCHAR
STARTCHAR U_384C
ENCODING 14412
SWIDTH 1000 0
DWIDTH 13 0
BBX 12 12 0 -1
BITMAP 
23F0
2210
FBF0
AA10
ABF0
A910
A9F0
A910
B9F0
A910
2110
2230
ENDCHAR
STARTCHAR U_384D
ENCODING 14413
SWIDTH 1000 0
DWIDTH 13 0
BBX 12 12 0 -1
BITMAP 
0800
3FC0
2340
2C40
3FC0
0400
FFF0
1280
3FC0
D2B0
1280
0200
ENDCHAR
STARTCHAR U_384E
ENCODING 14414
SWIDTH 1000 0
DWIDTH 13 0
BBX 12 12 0 -1
BITMAP 
2140
23E0
F880
AFF0
A940
AA60
AC90
AB40
B8A0
AB40
2080
2700
ENDCHAR
STARTCHAR U_384F
ENCODING 14415
SWIDTH 1000 0
DWIDTH 13 0
BBX 12 12 0 -1
BITMAP 
2080
2140
FA20
AFF0
A800
AF10
A950
AF50
B950
AF50
2910
3330
ENDCHAR
STARTCHAR U_3850
ENCODING 14416
SWIDTH 1000 0
DWIDTH 13 0
BBX 12 12 0 -1
BITMAP 
2220
2140
2FF0
F800
AF10
A950
AF50
A950
AF50
B950
2910
3330
ENDCHAR
STARTCHAR U_3851
ENCODING 14417
SWIDTH 1000 0
DWIDTH 13 0
BBX 12 12 0 -1
BITMAP 
1C80
F290
11A0
FE80
1940
3630
D200
3FE0
2220
2220
2260
0200
ENDCHAR
STARTCHAR U_3852
ENCODING 14418
SWIDTH 1000 0
DWIDTH 13 0
BBX 12 12 0 -1
BITMAP 
20E0
2700
F880
AFF0
A900
ABE0
AA20
ABE0
BA20
ABE0
2A20
33E0
ENDCHAR
STARTCHAR U_3853
ENCODING 14419
SWIDTH 1000 0
DWIDTH 13 0
BBX 12 12 0 -1
BITMAP 
27F0
2410
F880
AFF0
A880
ABE0
AAA0
ABE0
BAA0
AFF0
2080
2080
ENDCHAR
STARTCHAR U_3854
ENCODING 14420
SWIDTH 1000 0
DWIDTH 13 0
BBX 12 12 0 -1
BITMAP 
7D00
09F0
FF20
18A0
2840
C8A0
1B10
0400
7FE0
4420
4460
0400
ENDCHAR
STARTCHAR U_3855
ENCODING 14421
SWIDTH 1000 0
DWIDTH 13 0
BBX 12 12 0 -1
BITMAP 
2220
2770
A2A0
F880
ABE0
AAA0
AAA0
AFF0
B940
A920
2210
2C10
ENDCHAR
STARTCHAR U_3856
ENCODING 14422
SWIDTH 1000 0
DWIDTH 13 0
BBX 12 12 0 -1
BITMAP 
20E0
A780
F880
AFF0
A880
ABE0
AAA0
ABE0
BAA0
ABE0
2080
27F0
ENDCHAR
STARTCHAR U_3857
ENCODING 14423
SWIDTH 1000 0
DWIDTH 13 0
BBX 12 12 0 -1
BITMAP 
20E0
2F80
F8E0
A880
ABF0
AAA0
ABF0
AA00
BAA0
AAA0
2AA0
3530
ENDCHAR
STARTCHAR U_3858
ENCODING 14424
SWIDTH 1000 0
DWIDTH 13 0
BBX 12 12 0 -1
BITMAP 
2240
2FF0
FA80
AFE0
AAA0
AFF0
AAA0
BFE0
AA80
26C0
2AA0
3290
ENDCHAR
STARTCHAR U_3859
ENCODING 14425
SWIDTH 1000 0
DWIDTH 13 0
BBX 12 12 0 -1
BITMAP 
2100
2200
FFE0
AAA0
A920
AAA0
AFE0
A880
BEF0
A880
2A90
2C70
ENDCHAR
STARTCHAR U_385A
ENCODING 14426
SWIDTH 1000 0
DWIDTH 13 0
BBX 12 12 0 -1
BITMAP 
2140
27F0
F940
ABE0
A940
AFF0
AAA0
ABE0
AAA0
BFF0
2220
2260
ENDCHAR
STARTCHAR U_385B
ENCODING 14427
SWIDTH 1000 0
DWIDTH 13 0
BBX 12 12 0 -1
BITMAP 
2140
2770
F900
AA40
AA40
AAA0
ABF0
A800
BAA0
22A0
22A0
2C90
ENDCHAR
STARTCHAR U_385C
ENCODING 14428
SWIDTH 1000 0
DWIDTH 13 0
BBX 12 12 0 -1
BITMAP 
2200
23F0
FE90
AD60
AB40
AA20
ADD0
A800
BFF0
22A0
2490
2990
ENDCHAR
STARTCHAR U_385D
ENCODING 14429
SWIDTH 1000 0
DWIDTH 13 0
BBX 12 12 0 -1
BITMAP 
20E0
25A0
FA40
A8B0
AF40
AAF0
AA40
AAE0
AA40
BBF0
2240
25F0
ENDCHAR
STARTCHAR U_385E
ENCODING 14430
SWIDTH 1000 0
DWIDTH 13 0
BBX 12 12 0 -1
BITMAP 
2080
23E0
FAA0
AFF0
AAA0
ABE0
AAA0
ABE0
B920
27F0
2140
27F0
ENDCHAR
STARTCHAR U_385F
ENCODING 14431
SWIDTH 1000 0
DWIDTH 13 0
BBX 12 12 0 -1
BITMAP 
2240
27F0
FA40
AFF0
AA50
AFF0
AA50
AFF0
BA20
ABE0
2220
23E0
ENDCHAR
STARTCHAR U_3860
ENCODING 14432
SWIDTH 1000 0
DWIDTH 13 0
BBX 12 12 0 -1
BITMAP 
2790
24A0
FB50
AA20
ADD0
A800
ABE0
AA20
BBE0
AA20
2140
27F0
ENDCHAR
STARTCHAR U_3861
ENCODING 14433
SWIDTH 1000 0
DWIDTH 13 0
BBX 12 12 0 -1
BITMAP 
2FF0
2800
FF20
A820
AFF0
A920
A9A0
AF60
B920
2E20
3320
2C60
ENDCHAR
STARTCHAR U_3862
ENCODING 14434
SWIDTH 1000 0
DWIDTH 13 0
BBX 12 12 0 -1
BITMAP 
23E0
2220
FBE0
AA20
AFF0
AA50
AFF0
A800
BBE0
A900
21E0
2220
ENDCHAR
STARTCHAR U_3863
ENCODING 14435
SWIDTH 1000 0
DWIDTH 13 0
BBX 12 12 0 -1
BITMAP 
1080
FEF0
4480
28F0
FE10
92F0
7C80
54F0
5480
5CF0
1080
10F0
ENDCHAR
STARTCHAR U_3864
ENCODING 14436
SWIDTH 1000 0
DWIDTH 13 0
BBX 12 12 0 -1
BITMAP 
2140
2550
A360
FFF0
A940
AFF0
A880
ABE0
B880
AFF0
22A0
2490
ENDCHAR
STARTCHAR U_3865
ENCODING 14437
SWIDTH 1000 0
DWIDTH 13 0
BBX 12 12 0 -1
BITMAP 
20E0
2790
FAA0
ABE0
A880
ABE0
A820
ABF0
B820
ABE0
22A0
25D0
ENDCHAR
STARTCHAR U_3866
ENCODING 14438
SWIDTH 1000 0
DWIDTH 13 0
BBX 12 12 0 -1
BITMAP 
2080
27F0
F810
AFE0
AA90
ACA0
ABE0
AEA0
BB60
22A0
23E0
2410
ENDCHAR
STARTCHAR U_3867
ENCODING 14439
SWIDTH 1000 0
DWIDTH 13 0
BBX 12 12 0 -1
BITMAP 
2080
27F0
FD50
AA20
AF60
ADD0
AA20
AFF0
BA20
ABE0
2140
27F0
ENDCHAR
STARTCHAR U_3868
ENCODING 14440
SWIDTH 1000 0
DWIDTH 13 0
BBX 12 12 0 -1
BITMAP 
22A0
22B0
A560
FFF0
AAA0
AEE0
AAA0
AEF0
BAA0
AEE0
22A0
27D0
ENDCHAR
STARTCHAR U_3869
ENCODING 14441
SWIDTH 1000 0
DWIDTH 13 0
BBX 12 12 0 -1
BITMAP 
4420
EF70
4020
AF50
E070
5FA0
A950
AF50
0200
3FE0
2220
2260
ENDCHAR
STARTCHAR U_386A
ENCODING 14442
SWIDTH 1000 0
DWIDTH 13 0
BBX 12 12 0 -1
BITMAP 
27F0
22A0
FFF0
A810
AFF0
AA50
ABF0
AE40
B9F0
AB20
28C0
3730
ENDCHAR
STARTCHAR U_386B
ENCODING 14443
SWIDTH 1000 0
DWIDTH 13 0
BBX 12 12 0 -1
BITMAP 
03E0
2220
23E0
4220
D3E0
5100
23F0
2650
52D0
FB30
4BD0
0020
ENDCHAR
STARTCHAR U_386C
ENCODING 14444
SWIDTH 1000 0
DWIDTH 13 0
BBX 12 12 0 -1
BITMAP 
2240
52A0
F3E0
2240
52A0
FBF0
0240
7FE0
4200
7920
48C0
8F30
ENDCHAR
STARTCHAR U_386D
ENCODING 14445
SWIDTH 1000 0
DWIDTH 13 0
BBX 12 12 0 -1
BITMAP 
9040
A490
B8E0
9040
A490
FFF0
9040
A490
B8E0
9040
A490
FFF0
ENDCHAR
STARTCHAR U_386E
ENCODING 14446
SWIDTH 1000 0
DWIDTH 13 0
BBX 12 12 0 -1
BITMAP 
5480
FE80
54F0
BB00
D6F0
1400
7EF0
4810
6820
5A40
4C90
B2F0
ENDCHAR
STARTCHAR U_386F
ENCODING 14447
SWIDTH 1000 0
DWIDTH 13 0
BBX 12 12 0 -1
BITMAP 
0400
0220
7FF0
4000
43C0
5E00
4220
5FF0
4200
4200
4210
81F0
ENDCHAR
STARTCHAR U_3870
ENCODING 14448
SWIDTH 1000 0
DWIDTH 13 0
BBX 12 12 0 -1
BITMAP 
0200
7FF0
4000
5FC0
4200
4200
7FE0
4200
4200
4200
4200
8600
ENDCHAR
STARTCHAR U_3871
ENCODING 14449
SWIDTH 1000 0
DWIDTH 13 0
BBX 12 12 0 -1
BITMAP 
0220
7FF0
4000
4400
4780
4880
5100
4100
4280
4440
9830
0000
ENDCHAR
STARTCHAR U_3872
ENCODING 14450
SWIDTH 1000 0
DWIDTH 13 0
BBX 12 12 0 -1
BITMAP 
0200
7FF0
4280
4240
7FF0
4200
4220
4240
4180
4100
86D0
B830
ENDCHAR
STARTCHAR U_3873
ENCODING 14451
SWIDTH 1000 0
DWIDTH 13 0
BBX 12 12 0 -1
BITMAP 
0400
7FF0
4000
5FC0
5100
5100
5FF0
5100
5100
5080
9C50
9030
ENDCHAR
STARTCHAR U_3874
ENCODING 14452
SWIDTH 1000 0
DWIDTH 13 0
BBX 12 12 0 -1
BITMAP 
0200
7FF0
4200
4120
7FF0
4000
4840
4440
4440
4480
8080
BFF0
ENDCHAR
STARTCHAR U_3875
ENCODING 14453
SWIDTH 1000 0
DWIDTH 13 0
BBX 12 12 0 -1
BITMAP 
0200
7FF0
4200
4500
48C0
7730
4000
4FC0
4080
4500
8200
8100
ENDCHAR
STARTCHAR U_3876
ENCODING 14454
SWIDTH 1000 0
DWIDTH 13 0
BBX 12 12 0 -1
BITMAP 
0200
7FF0
4000
4FC0
4840
4840
4840
4FC0
4000
4840
9020
A010
ENDCHAR
STARTCHAR U_3877
ENCODING 14455
SWIDTH 1000 0
DWIDTH 13 0
BBX 12 12 0 -1
BITMAP 
0200
7FF0
4200
4200
7FF0
4200
4700
4A80
5240
6FB0
8200
8200
ENDCHAR
STARTCHAR U_3878
ENCODING 14456
SWIDTH 1000 0
DWIDTH 13 0
BBX 12 12 0 -1
BITMAP 
0200
7FF0
4800
4800
4FF0
5200
63F0
4200
43F0
4200
8200
8200
ENDCHAR
STARTCHAR U_3879
ENCODING 14457
SWIDTH 1000 0
DWIDTH 13 0
BBX 12 12 0 -1
BITMAP 
0200
7FF0
4000
4FC0
4840
4840
4FC0
4840
4FC0
4840
8840
BFF0
ENDCHAR
STARTCHAR U_387A
ENCODING 14458
SWIDTH 1000 0
DWIDTH 13 0
BBX 12 12 0 -1
BITMAP 
0200
7FF0
4000
4FC0
4840
4840
4FC0
4840
4840
4FC0
8000
BFF0
ENDCHAR
STARTCHAR U_387B
ENCODING 14459
SWIDTH 1000 0
DWIDTH 13 0
BBX 12 12 0 -1
BITMAP 
0200
7FF0
4000
5EF0
5090
5090
5290
5E90
44B0
4480
8880
9080
ENDCHAR
STARTCHAR U_387C
ENCODING 14460
SWIDTH 1000 0
DWIDTH 13 0
BBX 12 12 0 -1
BITMAP 
0200
7FF0
4200
5FC0
5240
5FC0
5240
5FC0
4240
4180
86D0
B830
ENDCHAR
STARTCHAR U_387D
ENCODING 14461
SWIDTH 1000 0
DWIDTH 13 0
BBX 12 12 0 -1
BITMAP 
0200
7FF0
4200
5FE0
4220
7FF0
4220
5FE0
4200
7FF0
8200
8200
ENDCHAR
STARTCHAR U_387E
ENCODING 14462
SWIDTH 1000 0
DWIDTH 13 0
BBX 12 12 0 -1
BITMAP 
0200
7FF0
4000
5FE0
5020
5FE0
5020
5FE0
5220
5140
94C0
9830
ENDCHAR
STARTCHAR U_387F
ENCODING 14463
SWIDTH 1000 0
DWIDTH 13 0
BBX 12 12 0 -1
BITMAP 
0200
7FF0
4840
4480
7FF0
4200
5220
5220
5FE0
4200
8400
9800
ENDCHAR
STARTCHAR U_3880
ENCODING 14464
SWIDTH 1000 0
DWIDTH 13 0
BBX 12 12 0 -1
BITMAP 
0200
3FF0
2100
2FE0
2100
2FE0
2920
2960
2380
4540
4920
9110
ENDCHAR
STARTCHAR U_3881
ENCODING 14465
SWIDTH 1000 0
DWIDTH 13 0
BBX 12 12 0 -1
BITMAP 
0200
3FF0
2200
27C0
2C80
2300
2E80
21E0
2620
4140
4080
8F00
ENDCHAR
STARTCHAR U_3882
ENCODING 14466
SWIDTH 1000 0
DWIDTH 13 0
BBX 12 12 0 -1
BITMAP 
0200
3FF0
2400
2FE0
2820
2820
2FE0
2800
2FF0
4810
4810
8FF0
ENDCHAR
STARTCHAR U_3883
ENCODING 14467
SWIDTH 1000 0
DWIDTH 13 0
BBX 12 12 0 -1
BITMAP 
0200
3FF0
2100
2FE0
2820
2FE0
2820
2FE0
2A20
4940
4A80
8C70
ENDCHAR
STARTCHAR U_3884
ENCODING 14468
SWIDTH 1000 0
DWIDTH 13 0
BBX 12 12 0 -1
BITMAP 
0200
3FF0
2000
2FE0
2000
27C0
2440
27C0
2000
4440
4280
9FF0
ENDCHAR
STARTCHAR U_3885
ENCODING 14469
SWIDTH 1000 0
DWIDTH 13 0
BBX 12 12 0 -1
BITMAP 
0200
3FF0
2000
2FE0
2100
27C0
2100
2FE0
2440
5FF0
4440
8840
ENDCHAR
STARTCHAR U_3886
ENCODING 14470
SWIDTH 1000 0
DWIDTH 13 0
BBX 12 12 0 -1
BITMAP 
0200
3FF0
2000
2FE0
2920
2FE0
2920
2FE0
2100
4FE0
4100
9FF0
ENDCHAR
STARTCHAR U_3887
ENCODING 14471
SWIDTH 1000 0
DWIDTH 13 0
BBX 12 12 0 -1
BITMAP 
0200
3FF0
2100
2FF0
2000
27E0
2000
27E0
2000
47E0
4420
C7E0
ENDCHAR
STARTCHAR U_3888
ENCODING 14472
SWIDTH 1000 0
DWIDTH 13 0
BBX 12 12 0 -1
BITMAP 
0200
3FF0
2500
2480
2FF0
3880
2FF0
2880
2FF0
4880
4FF0
8800
ENDCHAR
STARTCHAR U_3889
ENCODING 14473
SWIDTH 1000 0
DWIDTH 13 0
BBX 12 12 0 -1
BITMAP 
0200
3FF0
2210
2DE0
2440
3F40
2470
2EC0
2D40
5440
4450
8470
ENDCHAR
STARTCHAR U_388A
ENCODING 14474
SWIDTH 1000 0
DWIDTH 13 0
BBX 12 12 0 -1
BITMAP 
0200
3FF0
2100
2FE0
2280
2440
3FF0
2020
2720
4520
4720
8060
ENDCHAR
STARTCHAR U_388B
ENCODING 14475
SWIDTH 1000 0
DWIDTH 13 0
BBX 12 12 0 -1
BITMAP 
0200
3FF0
2480
25E0
2A40
3D80
2940
2EF0
2910
4AA0
4840
8B80
ENDCHAR
STARTCHAR U_388C
ENCODING 14476
SWIDTH 1000 0
DWIDTH 13 0
BBX 12 12 0 -1
BITMAP 
0200
3FF0
2000
2FF0
2A20
2C20
2AE0
2AA0
2EE0
4820
4820
8860
ENDCHAR
STARTCHAR U_388D
ENCODING 14477
SWIDTH 1000 0
DWIDTH 13 0
BBX 12 12 0 -1
BITMAP 
0200
3FF0
2440
2EE0
2540
2100
2FE0
2920
3FF0
4200
44C0
9830
ENDCHAR
STARTCHAR U_388E
ENCODING 14478
SWIDTH 1000 0
DWIDTH 13 0
BBX 12 12 0 -1
BITMAP 
0200
3FF0
2000
2FE0
2100
3FF0
2500
2960
2920
4D60
4920
8FE0
ENDCHAR
STARTCHAR U_388F
ENCODING 14479
SWIDTH 1000 0
DWIDTH 13 0
BBX 12 12 0 -1
BITMAP 
0200
3FF0
2100
2280
2440
2BA0
3010
2EA0
2AA0
4EA0
4A20
9660
ENDCHAR
STARTCHAR U_3890
ENCODING 14480
SWIDTH 1000 0
DWIDTH 13 0
BBX 12 12 0 -1
BITMAP 
0200
7FF0
4000
4FC0
4840
4BC0
4A40
5FE0
5020
57A0
94A0
97A0
ENDCHAR
STARTCHAR U_3891
ENCODING 14481
SWIDTH 1000 0
DWIDTH 13 0
BBX 12 12 0 -1
BITMAP 
0200
7FF0
4900
7FF0
5100
5FE0
5100
5FF0
4100
7FF0
8100
8100
ENDCHAR
STARTCHAR U_3892
ENCODING 14482
SWIDTH 1000 0
DWIDTH 13 0
BBX 12 12 0 -1
BITMAP 
0200
7FF0
4280
5FF0
5290
5FE0
5440
57C0
5440
57C0
9440
AFF0
ENDCHAR
STARTCHAR U_3893
ENCODING 14483
SWIDTH 1000 0
DWIDTH 13 0
BBX 12 12 0 -1
BITMAP 
0200
7FF0
4100
5FE0
4480
7FF0
4840
4FC0
4840
7FF0
8100
8100
ENDCHAR
STARTCHAR U_3894
ENCODING 14484
SWIDTH 1000 0
DWIDTH 13 0
BBX 12 12 0 -1
BITMAP 
0200
7FF0
4940
5140
6AA0
5510
7080
5280
52F0
5280
9580
9870
ENDCHAR
STARTCHAR U_3895
ENCODING 14485
SWIDTH 1000 0
DWIDTH 13 0
BBX 12 12 0 -1
BITMAP 
0200
7FF0
4880
5120
77F0
4920
55F0
7D20
45F0
4920
9120
A1F0
ENDCHAR
STARTCHAR U_3896
ENCODING 14486
SWIDTH 1000 0
DWIDTH 13 0
BBX 12 12 0 -1
BITMAP 
0200
7FF0
4000
7FE0
5240
7FF0
4A80
5FC0
7270
5FC0
5240
9FC0
ENDCHAR
STARTCHAR U_3897
ENCODING 14487
SWIDTH 1000 0
DWIDTH 13 0
BBX 12 12 0 -1
BITMAP 
0200
7FF0
4000
5FE0
4400
7FF0
4CC0
74B0
5FE0
54A0
97A0
9060
ENDCHAR
STARTCHAR U_3898
ENCODING 14488
SWIDTH 1000 0
DWIDTH 13 0
BBX 12 12 0 -1
BITMAP 
0200
7FF0
4840
7FF0
4480
5FE0
44A0
7FF0
44A0
5FE0
5490
A250
ENDCHAR
STARTCHAR U_3899
ENCODING 14489
SWIDTH 1000 0
DWIDTH 13 0
BBX 12 12 0 -1
BITMAP 
0200
7FF0
5440
7E40
55F0
7E50
4A50
7E50
4850
7E90
8890
BF60
ENDCHAR
STARTCHAR U_389A
ENCODING 14490
SWIDTH 1000 0
DWIDTH 13 0
BBX 12 12 0 -1
BITMAP 
0200
7FF0
4140
5FF0
5150
5FE0
52A0
5FF0
52A0
53F0
A110
AE60
ENDCHAR
STARTCHAR U_389B
ENCODING 14491
SWIDTH 1000 0
DWIDTH 13 0
BBX 12 12 0 -1
BITMAP 
0200
7FF0
4200
4500
48C0
77B0
4000
5EF0
5290
5EF0
8840
96B0
ENDCHAR
STARTCHAR U_389C
ENCODING 14492
SWIDTH 1000 0
DWIDTH 13 0
BBX 12 12 0 -1
BITMAP 
0200
7FF0
4440
7FF0
4440
4FE0
4920
4FE0
4920
4FE0
9920
A7D0
ENDCHAR
STARTCHAR U_389D
ENCODING 14493
SWIDTH 1000 0
DWIDTH 13 0
BBX 12 12 0 -1
BITMAP 
0200
7FF0
4800
4EF0
5240
7FF0
5540
5F60
55D0
5F50
9540
AAC0
ENDCHAR
STARTCHAR U_389E
ENCODING 14494
SWIDTH 1000 0
DWIDTH 13 0
BBX 12 12 0 -1
BITMAP 
0200
7FF0
54A0
4C60
54A0
4FE0
4920
4FE0
4AA0
7FF0
8820
B010
ENDCHAR
STARTCHAR U_389F
ENCODING 14495
SWIDTH 1000 0
DWIDTH 13 0
BBX 12 12 0 -1
BITMAP 
0080
E080
2080
2480
44F0
7480
1480
9480
6FF0
2000
5800
87F0
ENDCHAR
STARTCHAR U_38A0
ENCODING 14496
SWIDTH 1000 0
DWIDTH 13 0
BBX 12 12 0 -1
BITMAP 
0020
EFF0
2810
4BD0
8A50
EA50
2BD0
AA50
A830
4810
7000
8FF0
ENDCHAR
STARTCHAR U_38A1
ENCODING 14497
SWIDTH 1000 0
DWIDTH 13 0
BBX 12 12 0 -1
BITMAP 
48E0
4F20
7AC0
09A0
7EF0
4920
48A0
8860
1080
FFF0
1080
2080
ENDCHAR
STARTCHAR U_38A2
ENCODING 14498
SWIDTH 1000 0
DWIDTH 13 0
BBX 12 12 0 -1
BITMAP 
9280
5480
FFF0
82A0
BAA0
AA40
BBB0
1080
FFF0
1080
2080
4080
ENDCHAR
STARTCHAR U_38A3
ENCODING 14499
SWIDTH 1000 0
DWIDTH 13 0
BBX 12 12 0 -1
BITMAP 
EE80
28F0
7F10
8290
7AA0
4A40
7AA0
1590
1080
FFF0
1080
6080
ENDCHAR
STARTCHAR U_38A4
ENCODING 14500
SWIDTH 1000 0
DWIDTH 13 0
BBX 12 12 0 -1
BITMAP 
1140
1120
7D20
1100
FFF0
2080
2080
3C80
2450
4450
5430
8810
ENDCHAR
STARTCHAR U_38A5
ENCODING 14501
SWIDTH 1000 0
DWIDTH 13 0
BBX 12 12 0 -1
BITMAP 
FE60
8250
8240
FFF0
8240
BA40
AA40
AA40
BA40
8220
8230
8610
ENDCHAR
STARTCHAR U_38A6
ENCODING 14502
SWIDTH 1000 0
DWIDTH 13 0
BBX 12 12 0 -1
BITMAP 
FE60
0450
7440
55F0
7440
0440
FE40
0440
7440
5450
7430
0C10
ENDCHAR
STARTCHAR U_38A7
ENCODING 14503
SWIDTH 1000 0
DWIDTH 13 0
BBX 12 12 0 -1
BITMAP 
0000
3FC0
0040
0040
1FC0
1000
2000
3FE0
0020
7F20
0020
01C0
ENDCHAR
STARTCHAR U_38A8
ENCODING 14504
SWIDTH 1000 0
DWIDTH 13 0
BBX 12 12 0 -1
BITMAP 
FBE0
0880
0880
7880
4080
87F0
F880
0880
0880
0880
4880
3080
ENDCHAR
STARTCHAR U_38A9
ENCODING 14505
SWIDTH 1000 0
DWIDTH 13 0
BBX 12 12 0 -1
BITMAP 
FA00
0A00
0BF0
7C10
4810
8110
F890
0890
0810
0810
6810
1060
ENDCHAR
STARTCHAR U_38AA
ENCODING 14506
SWIDTH 1000 0
DWIDTH 13 0
BBX 12 12 0 -1
BITMAP 
F800
0BE0
0800
7800
47F0
4100
7900
0BE0
0820
0820
5140
2080
ENDCHAR
STARTCHAR U_38AB
ENCODING 14507
SWIDTH 1000 0
DWIDTH 13 0
BBX 12 12 0 -1
BITMAP 
F080
1080
1080
7080
4490
8490
F490
1490
1490
1490
77F0
2410
ENDCHAR
STARTCHAR U_38AC
ENCODING 14508
SWIDTH 1000 0
DWIDTH 13 0
BBX 12 12 0 -1
BITMAP 
F080
1080
1080
7FF0
4100
8100
F140
1240
1280
14A0
5910
23F0
ENDCHAR
STARTCHAR U_38AD
ENCODING 14509
SWIDTH 1000 0
DWIDTH 13 0
BBX 12 12 0 -1
BITMAP 
F080
1080
10E0
7080
4080
83E0
F220
1220
1140
1080
7140
2630
ENDCHAR
STARTCHAR U_38AE
ENCODING 14510
SWIDTH 1000 0
DWIDTH 13 0
BBX 12 12 0 -1
BITMAP 
F200
1200
17F0
7800
4500
85E0
FF20
1520
1520
1450
5410
23F0
ENDCHAR
STARTCHAR U_38AF
ENCODING 14511
SWIDTH 1000 0
DWIDTH 13 0
BBX 12 12 0 -1
BITMAP 
FBF0
0A10
0A10
7BF0
4240
8240
FBF0
0A40
0A40
0A50
4B30
3210
ENDCHAR
STARTCHAR U_38B0
ENCODING 14512
SWIDTH 1000 0
DWIDTH 13 0
BBX 12 12 0 -1
BITMAP 
0080
F080
17F0
1490
F4A0
8480
87E0
F620
1540
1480
5540
2A30
ENDCHAR
STARTCHAR U_38B1
ENCODING 14513
SWIDTH 1000 0
DWIDTH 13 0
BBX 12 12 0 -1
BITMAP 
0080
F880
0900
7A20
47F0
4090
7AC0
0AA0
0C90
0890
4A80
3180
ENDCHAR
STARTCHAR U_38B2
ENCODING 14514
SWIDTH 1000 0
DWIDTH 13 0
BBX 12 12 0 -1
BITMAP 
7BE0
0820
79E0
4100
79E0
0820
38E0
0000
FFF0
0000
1080
2040
ENDCHAR
STARTCHAR U_38B3
ENCODING 14515
SWIDTH 1000 0
DWIDTH 13 0
BBX 12 12 0 -1
BITMAP 
0200
F200
13F0
F400
8860
F380
1310
12A0
12C0
1240
52A0
2310
ENDCHAR
STARTCHAR U_38B4
ENCODING 14516
SWIDTH 1000 0
DWIDTH 13 0
BBX 12 12 0 -1
BITMAP 
7FE0
0020
3FE0
4000
7FF0
0010
3F90
2A90
2590
2A90
3F90
0060
ENDCHAR
STARTCHAR U_38B5
ENCODING 14517
SWIDTH 1000 0
DWIDTH 13 0
BBX 12 12 0 -1
BITMAP 
F100
1100
1280
7440
4830
87C0
F000
17C0
1440
1440
17C0
6440
ENDCHAR
STARTCHAR U_38B6
ENCODING 14518
SWIDTH 1000 0
DWIDTH 13 0
BBX 12 12 0 -1
BITMAP 
0000
FFF0
1100
7100
4200
77E0
1420
17E0
1420
1420
57E0
2420
ENDCHAR
STARTCHAR U_38B7
ENCODING 14519
SWIDTH 1000 0
DWIDTH 13 0
BBX 12 12 0 -1
BITMAP 
0080
F490
1490
17F0
7100
41E0
4220
7320
14C0
1040
5080
2300
ENDCHAR
ENDFONT
